%TF.GenerationSoftware,KiCad,Pcbnew,7.0.9*%
%TF.CreationDate,2023-12-16T18:31:18-05:00*%
%TF.ProjectId,Nano2UNO-Adapter-3V3,4e616e6f-3255-44e4-9f2d-416461707465,1.0.0*%
%TF.SameCoordinates,PX6486dd0PY8062360*%
%TF.FileFunction,Legend,Top*%
%TF.FilePolarity,Positive*%
%FSLAX46Y46*%
G04 Gerber Fmt 4.6, Leading zero omitted, Abs format (unit mm)*
G04 Created by KiCad (PCBNEW 7.0.9) date 2023-12-16 18:31:18*
%MOMM*%
%LPD*%
G01*
G04 APERTURE LIST*
G04 Aperture macros list*
%AMRoundRect*
0 Rectangle with rounded corners*
0 $1 Rounding radius*
0 $2 $3 $4 $5 $6 $7 $8 $9 X,Y pos of 4 corners*
0 Add a 4 corners polygon primitive as box body*
4,1,4,$2,$3,$4,$5,$6,$7,$8,$9,$2,$3,0*
0 Add four circle primitives for the rounded corners*
1,1,$1+$1,$2,$3*
1,1,$1+$1,$4,$5*
1,1,$1+$1,$6,$7*
1,1,$1+$1,$8,$9*
0 Add four rect primitives between the rounded corners*
20,1,$1+$1,$2,$3,$4,$5,0*
20,1,$1+$1,$4,$5,$6,$7,0*
20,1,$1+$1,$6,$7,$8,$9,0*
20,1,$1+$1,$8,$9,$2,$3,0*%
G04 Aperture macros list end*
%ADD10C,0.150000*%
%ADD11C,0.225000*%
%ADD12C,0.120000*%
%ADD13C,1.700000*%
%ADD14RoundRect,0.550000X0.550000X0.550000X-0.550000X0.550000X-0.550000X-0.550000X0.550000X-0.550000X0*%
%ADD15O,2.200000X2.200000*%
%ADD16RoundRect,0.400000X0.400000X0.400000X-0.400000X0.400000X-0.400000X-0.400000X0.400000X-0.400000X0*%
%ADD17C,1.600000*%
%ADD18C,3.200000*%
%ADD19C,2.600000*%
%ADD20O,2.300000X1.500000*%
%ADD21C,2.000000*%
G04 APERTURE END LIST*
D10*
X39370000Y21590000D02*
X57150000Y21590000D01*
X57150000Y13970000D01*
X39370000Y13970000D01*
X39370000Y21590000D01*
X50800000Y17780000D02*
X50800000Y13970000D01*
X39370000Y17780000D02*
X57150000Y17780000D01*
D11*
X40585000Y15621343D02*
X41299286Y15621343D01*
X40442143Y15192772D02*
X40942143Y16692772D01*
X40942143Y16692772D02*
X41442143Y15192772D01*
X41942142Y15192772D02*
X41942142Y16692772D01*
X41942142Y16692772D02*
X42299285Y16692772D01*
X42299285Y16692772D02*
X42513571Y16621343D01*
X42513571Y16621343D02*
X42656428Y16478486D01*
X42656428Y16478486D02*
X42727857Y16335629D01*
X42727857Y16335629D02*
X42799285Y16049915D01*
X42799285Y16049915D02*
X42799285Y15835629D01*
X42799285Y15835629D02*
X42727857Y15549915D01*
X42727857Y15549915D02*
X42656428Y15407058D01*
X42656428Y15407058D02*
X42513571Y15264200D01*
X42513571Y15264200D02*
X42299285Y15192772D01*
X42299285Y15192772D02*
X41942142Y15192772D01*
X43370714Y15621343D02*
X44085000Y15621343D01*
X43227857Y15192772D02*
X43727857Y16692772D01*
X43727857Y16692772D02*
X44227857Y15192772D01*
X44727856Y15192772D02*
X44727856Y16692772D01*
X44727856Y16692772D02*
X45299285Y16692772D01*
X45299285Y16692772D02*
X45442142Y16621343D01*
X45442142Y16621343D02*
X45513571Y16549915D01*
X45513571Y16549915D02*
X45584999Y16407058D01*
X45584999Y16407058D02*
X45584999Y16192772D01*
X45584999Y16192772D02*
X45513571Y16049915D01*
X45513571Y16049915D02*
X45442142Y15978486D01*
X45442142Y15978486D02*
X45299285Y15907058D01*
X45299285Y15907058D02*
X44727856Y15907058D01*
X46013571Y16692772D02*
X46870714Y16692772D01*
X46442142Y15192772D02*
X46442142Y16692772D01*
X47370713Y15978486D02*
X47870713Y15978486D01*
X48084999Y15192772D02*
X47370713Y15192772D01*
X47370713Y15192772D02*
X47370713Y16692772D01*
X47370713Y16692772D02*
X48084999Y16692772D01*
X49584999Y15192772D02*
X49084999Y15907058D01*
X48727856Y15192772D02*
X48727856Y16692772D01*
X48727856Y16692772D02*
X49299285Y16692772D01*
X49299285Y16692772D02*
X49442142Y16621343D01*
X49442142Y16621343D02*
X49513571Y16549915D01*
X49513571Y16549915D02*
X49584999Y16407058D01*
X49584999Y16407058D02*
X49584999Y16192772D01*
X49584999Y16192772D02*
X49513571Y16049915D01*
X49513571Y16049915D02*
X49442142Y15978486D01*
X49442142Y15978486D02*
X49299285Y15907058D01*
X49299285Y15907058D02*
X48727856Y15907058D01*
D10*
X45164762Y12245181D02*
X44831429Y12721372D01*
X44593334Y12245181D02*
X44593334Y13245181D01*
X44593334Y13245181D02*
X44974286Y13245181D01*
X44974286Y13245181D02*
X45069524Y13197562D01*
X45069524Y13197562D02*
X45117143Y13149943D01*
X45117143Y13149943D02*
X45164762Y13054705D01*
X45164762Y13054705D02*
X45164762Y12911848D01*
X45164762Y12911848D02*
X45117143Y12816610D01*
X45117143Y12816610D02*
X45069524Y12768991D01*
X45069524Y12768991D02*
X44974286Y12721372D01*
X44974286Y12721372D02*
X44593334Y12721372D01*
X45593334Y12768991D02*
X45926667Y12768991D01*
X46069524Y12245181D02*
X45593334Y12245181D01*
X45593334Y12245181D02*
X45593334Y13245181D01*
X45593334Y13245181D02*
X46069524Y13245181D01*
X46355239Y13245181D02*
X46688572Y12245181D01*
X46688572Y12245181D02*
X47021905Y13245181D01*
X47355239Y12340420D02*
X47402858Y12292800D01*
X47402858Y12292800D02*
X47355239Y12245181D01*
X47355239Y12245181D02*
X47307620Y12292800D01*
X47307620Y12292800D02*
X47355239Y12340420D01*
X47355239Y12340420D02*
X47355239Y12245181D01*
X47355239Y12864229D02*
X47402858Y12816610D01*
X47402858Y12816610D02*
X47355239Y12768991D01*
X47355239Y12768991D02*
X47307620Y12816610D01*
X47307620Y12816610D02*
X47355239Y12864229D01*
X47355239Y12864229D02*
X47355239Y12768991D01*
X49117143Y12245181D02*
X48545715Y12245181D01*
X48831429Y12245181D02*
X48831429Y13245181D01*
X48831429Y13245181D02*
X48736191Y13102324D01*
X48736191Y13102324D02*
X48640953Y13007086D01*
X48640953Y13007086D02*
X48545715Y12959467D01*
X49545715Y12340420D02*
X49593334Y12292800D01*
X49593334Y12292800D02*
X49545715Y12245181D01*
X49545715Y12245181D02*
X49498096Y12292800D01*
X49498096Y12292800D02*
X49545715Y12340420D01*
X49545715Y12340420D02*
X49545715Y12245181D01*
X50212381Y13245181D02*
X50307619Y13245181D01*
X50307619Y13245181D02*
X50402857Y13197562D01*
X50402857Y13197562D02*
X50450476Y13149943D01*
X50450476Y13149943D02*
X50498095Y13054705D01*
X50498095Y13054705D02*
X50545714Y12864229D01*
X50545714Y12864229D02*
X50545714Y12626134D01*
X50545714Y12626134D02*
X50498095Y12435658D01*
X50498095Y12435658D02*
X50450476Y12340420D01*
X50450476Y12340420D02*
X50402857Y12292800D01*
X50402857Y12292800D02*
X50307619Y12245181D01*
X50307619Y12245181D02*
X50212381Y12245181D01*
X50212381Y12245181D02*
X50117143Y12292800D01*
X50117143Y12292800D02*
X50069524Y12340420D01*
X50069524Y12340420D02*
X50021905Y12435658D01*
X50021905Y12435658D02*
X49974286Y12626134D01*
X49974286Y12626134D02*
X49974286Y12864229D01*
X49974286Y12864229D02*
X50021905Y13054705D01*
X50021905Y13054705D02*
X50069524Y13149943D01*
X50069524Y13149943D02*
X50117143Y13197562D01*
X50117143Y13197562D02*
X50212381Y13245181D01*
X50974286Y12340420D02*
X51021905Y12292800D01*
X51021905Y12292800D02*
X50974286Y12245181D01*
X50974286Y12245181D02*
X50926667Y12292800D01*
X50926667Y12292800D02*
X50974286Y12340420D01*
X50974286Y12340420D02*
X50974286Y12245181D01*
X51640952Y13245181D02*
X51736190Y13245181D01*
X51736190Y13245181D02*
X51831428Y13197562D01*
X51831428Y13197562D02*
X51879047Y13149943D01*
X51879047Y13149943D02*
X51926666Y13054705D01*
X51926666Y13054705D02*
X51974285Y12864229D01*
X51974285Y12864229D02*
X51974285Y12626134D01*
X51974285Y12626134D02*
X51926666Y12435658D01*
X51926666Y12435658D02*
X51879047Y12340420D01*
X51879047Y12340420D02*
X51831428Y12292800D01*
X51831428Y12292800D02*
X51736190Y12245181D01*
X51736190Y12245181D02*
X51640952Y12245181D01*
X51640952Y12245181D02*
X51545714Y12292800D01*
X51545714Y12292800D02*
X51498095Y12340420D01*
X51498095Y12340420D02*
X51450476Y12435658D01*
X51450476Y12435658D02*
X51402857Y12626134D01*
X51402857Y12626134D02*
X51402857Y12864229D01*
X51402857Y12864229D02*
X51450476Y13054705D01*
X51450476Y13054705D02*
X51498095Y13149943D01*
X51498095Y13149943D02*
X51545714Y13197562D01*
X51545714Y13197562D02*
X51640952Y13245181D01*
D11*
G36*
X47621929Y20338886D02*
G01*
X47729844Y20230971D01*
X47790357Y19988923D01*
X47790357Y19516622D01*
X47729844Y19274574D01*
X47621929Y19166659D01*
X47519157Y19115272D01*
X47286557Y19115272D01*
X47183784Y19166659D01*
X47075868Y19274575D01*
X47015357Y19516621D01*
X47015357Y19988924D01*
X47075868Y20230971D01*
X47183782Y20338885D01*
X47286558Y20390272D01*
X47519156Y20390272D01*
X47621929Y20338886D01*
G37*
G36*
X53764787Y20338886D02*
G01*
X53872702Y20230971D01*
X53933215Y19988923D01*
X53933215Y19516622D01*
X53872702Y19274574D01*
X53764787Y19166659D01*
X53662015Y19115272D01*
X53429415Y19115272D01*
X53326642Y19166659D01*
X53218726Y19274575D01*
X53158215Y19516621D01*
X53158215Y19988924D01*
X53218726Y20230971D01*
X53326640Y20338885D01*
X53429416Y20390272D01*
X53662014Y20390272D01*
X53764787Y20338886D01*
G37*
G36*
X44603914Y19543843D02*
G01*
X44201800Y19543843D01*
X44402856Y20147016D01*
X44603914Y19543843D01*
G37*
G36*
X54372501Y18675986D02*
G01*
X42218927Y18675986D01*
X42218927Y19002772D01*
X42433213Y19002772D01*
X42454699Y18936646D01*
X42510949Y18895778D01*
X42580477Y18895778D01*
X42636727Y18936646D01*
X42658213Y19002772D01*
X42658213Y20079147D01*
X43305179Y18946956D01*
X43309879Y18942686D01*
X43311842Y18936646D01*
X43335239Y18919647D01*
X43356642Y18900203D01*
X43362953Y18899512D01*
X43368092Y18895778D01*
X43397010Y18895778D01*
X43425756Y18892627D01*
X43431270Y18895778D01*
X43437620Y18895778D01*
X43461012Y18912774D01*
X43486124Y18927123D01*
X43488733Y18932914D01*
X43493870Y18936646D01*
X43502805Y18964147D01*
X43504911Y18968821D01*
X43795603Y18968821D01*
X43836043Y18912262D01*
X43902003Y18890275D01*
X43968290Y18911258D01*
X44009584Y18967196D01*
X44126800Y19318843D01*
X44678914Y19318843D01*
X44796130Y18967196D01*
X44837424Y18911258D01*
X44903712Y18890275D01*
X44969672Y18912262D01*
X45010111Y18968820D01*
X45009854Y19002772D01*
X45290356Y19002772D01*
X45311842Y18936646D01*
X45368092Y18895778D01*
X45437620Y18895778D01*
X45493870Y18936646D01*
X45515356Y19002772D01*
X45515356Y20079147D01*
X46162322Y18946956D01*
X46167022Y18942686D01*
X46168985Y18936646D01*
X46192382Y18919647D01*
X46213785Y18900203D01*
X46220096Y18899512D01*
X46225235Y18895778D01*
X46254153Y18895778D01*
X46282899Y18892627D01*
X46288413Y18895778D01*
X46294763Y18895778D01*
X46318155Y18912774D01*
X46343267Y18927123D01*
X46345876Y18932914D01*
X46351013Y18936646D01*
X46359948Y18964147D01*
X46371829Y18990514D01*
X46370536Y18996732D01*
X46372499Y19002772D01*
X46372499Y19502772D01*
X46790357Y19502772D01*
X46794684Y19489456D01*
X46793716Y19475487D01*
X46865144Y19189773D01*
X46881087Y19164295D01*
X46894735Y19137508D01*
X47037594Y18994650D01*
X47053841Y18986372D01*
X47066832Y18973577D01*
X47209689Y18902149D01*
X47235333Y18898287D01*
X47260000Y18890272D01*
X47545714Y18890272D01*
X47570380Y18898287D01*
X47596025Y18902149D01*
X47738882Y18973577D01*
X47751873Y18986373D01*
X47768121Y18994651D01*
X47793840Y19020370D01*
X48291742Y19020370D01*
X48295863Y18994353D01*
X48295863Y18968008D01*
X48301198Y18960664D01*
X48302619Y18951698D01*
X48321246Y18933071D01*
X48336731Y18911758D01*
X48345364Y18908953D01*
X48351783Y18902534D01*
X48377802Y18898413D01*
X48402857Y18890272D01*
X49331429Y18890272D01*
X49397555Y18911758D01*
X49438423Y18968008D01*
X49438423Y19037536D01*
X49397555Y19093786D01*
X49331429Y19115272D01*
X48674457Y19115272D01*
X48847671Y19288486D01*
X49861785Y19288486D01*
X49869799Y19263821D01*
X49873662Y19238174D01*
X49945091Y19095317D01*
X49957885Y19082327D01*
X49966164Y19066079D01*
X50037594Y18994650D01*
X50053841Y18986372D01*
X50066832Y18973577D01*
X50209689Y18902149D01*
X50235333Y18898287D01*
X50260000Y18890272D01*
X50545714Y18890272D01*
X50570380Y18898287D01*
X50596025Y18902149D01*
X50738882Y18973577D01*
X50751871Y18986371D01*
X50768121Y18994650D01*
X50776243Y19002772D01*
X51433214Y19002772D01*
X51454700Y18936646D01*
X51510950Y18895778D01*
X51580478Y18895778D01*
X51636728Y18936646D01*
X51658214Y19002772D01*
X51658214Y20079147D01*
X52305180Y18946956D01*
X52309880Y18942686D01*
X52311843Y18936646D01*
X52335240Y18919647D01*
X52356643Y18900203D01*
X52362954Y18899512D01*
X52368093Y18895778D01*
X52397011Y18895778D01*
X52425757Y18892627D01*
X52431271Y18895778D01*
X52437621Y18895778D01*
X52461013Y18912774D01*
X52486125Y18927123D01*
X52488734Y18932914D01*
X52493871Y18936646D01*
X52502806Y18964147D01*
X52514687Y18990514D01*
X52513394Y18996732D01*
X52515357Y19002772D01*
X52515357Y19502772D01*
X52933215Y19502772D01*
X52937542Y19489456D01*
X52936574Y19475487D01*
X53008002Y19189773D01*
X53023945Y19164295D01*
X53037593Y19137508D01*
X53180452Y18994650D01*
X53196699Y18986372D01*
X53209690Y18973577D01*
X53352547Y18902149D01*
X53378191Y18898287D01*
X53402858Y18890272D01*
X53688572Y18890272D01*
X53713238Y18898287D01*
X53738883Y18902149D01*
X53881740Y18973577D01*
X53894731Y18986373D01*
X53910979Y18994651D01*
X54053836Y19137509D01*
X54067484Y19164296D01*
X54083427Y19189773D01*
X54154856Y19475486D01*
X54153887Y19489455D01*
X54158215Y19502772D01*
X54158215Y20002772D01*
X54153887Y20016090D01*
X54154856Y20030058D01*
X54083427Y20315771D01*
X54067483Y20341250D01*
X54053835Y20368036D01*
X53910979Y20510893D01*
X53894731Y20519172D01*
X53881741Y20531966D01*
X53738884Y20603395D01*
X53713237Y20607258D01*
X53688572Y20615272D01*
X53402858Y20615272D01*
X53378192Y20607258D01*
X53352546Y20603395D01*
X53209689Y20531966D01*
X53196697Y20519171D01*
X53180452Y20510893D01*
X53037594Y20368036D01*
X53023947Y20341253D01*
X53008002Y20315771D01*
X52936574Y20030057D01*
X52937542Y20016089D01*
X52933215Y20002772D01*
X52933215Y19502772D01*
X52515357Y19502772D01*
X52515357Y20502772D01*
X52493871Y20568898D01*
X52437621Y20609766D01*
X52368093Y20609766D01*
X52311843Y20568898D01*
X52290357Y20502772D01*
X52290357Y19426397D01*
X51643391Y20558588D01*
X51638690Y20562859D01*
X51636728Y20568898D01*
X51613333Y20585896D01*
X51591929Y20605341D01*
X51585616Y20606033D01*
X51580478Y20609766D01*
X51551560Y20609766D01*
X51522814Y20612917D01*
X51517300Y20609766D01*
X51510950Y20609766D01*
X51487555Y20592770D01*
X51462447Y20578421D01*
X51459838Y20572632D01*
X51454700Y20568898D01*
X51445763Y20541395D01*
X51433884Y20515030D01*
X51435176Y20508813D01*
X51433214Y20502772D01*
X51433214Y19002772D01*
X50776243Y19002772D01*
X50839550Y19066080D01*
X50847828Y19082328D01*
X50860623Y19095318D01*
X50932051Y19238175D01*
X50935913Y19263820D01*
X50943928Y19288486D01*
X50943928Y20502772D01*
X50922442Y20568898D01*
X50866192Y20609766D01*
X50796664Y20609766D01*
X50740414Y20568898D01*
X50718928Y20502772D01*
X50718928Y19315043D01*
X50667542Y19212271D01*
X50621928Y19166658D01*
X50519157Y19115272D01*
X50286557Y19115272D01*
X50183784Y19166658D01*
X50138172Y19212271D01*
X50086785Y19315045D01*
X50086785Y20502772D01*
X50065299Y20568898D01*
X50009049Y20609766D01*
X49939521Y20609766D01*
X49883271Y20568898D01*
X49861785Y20502772D01*
X49861785Y19288486D01*
X48847671Y19288486D01*
X49339549Y19780365D01*
X49351323Y19803474D01*
X49366727Y19824339D01*
X49438156Y20038624D01*
X49438294Y20056859D01*
X49443929Y20074200D01*
X49443929Y20217058D01*
X49435914Y20241724D01*
X49432052Y20267370D01*
X49360623Y20410227D01*
X49347826Y20423220D01*
X49339549Y20439465D01*
X49268122Y20510893D01*
X49251872Y20519173D01*
X49238883Y20531966D01*
X49096026Y20603395D01*
X49070379Y20607258D01*
X49045714Y20615272D01*
X48688572Y20615272D01*
X48663906Y20607258D01*
X48638260Y20603395D01*
X48495402Y20531966D01*
X48482409Y20519170D01*
X48466164Y20510892D01*
X48394736Y20439465D01*
X48363171Y20377513D01*
X48374048Y20308841D01*
X48423212Y20259677D01*
X48491884Y20248800D01*
X48553836Y20280365D01*
X48612354Y20338885D01*
X48715129Y20390272D01*
X49019156Y20390272D01*
X49121930Y20338885D01*
X49167541Y20293275D01*
X49218929Y20190500D01*
X49218929Y20092458D01*
X49161671Y19920686D01*
X48323307Y19082322D01*
X48311346Y19058847D01*
X48295863Y19037536D01*
X48295863Y19028459D01*
X48291742Y19020370D01*
X47793840Y19020370D01*
X47910978Y19137509D01*
X47924626Y19164296D01*
X47940569Y19189773D01*
X48011998Y19475486D01*
X48011029Y19489455D01*
X48015357Y19502772D01*
X48015357Y20002772D01*
X48011029Y20016090D01*
X48011998Y20030058D01*
X47940569Y20315771D01*
X47924625Y20341250D01*
X47910977Y20368036D01*
X47768121Y20510893D01*
X47751873Y20519172D01*
X47738883Y20531966D01*
X47596026Y20603395D01*
X47570379Y20607258D01*
X47545714Y20615272D01*
X47260000Y20615272D01*
X47235334Y20607258D01*
X47209688Y20603395D01*
X47066831Y20531966D01*
X47053839Y20519171D01*
X47037594Y20510893D01*
X46894736Y20368036D01*
X46881089Y20341253D01*
X46865144Y20315771D01*
X46793716Y20030057D01*
X46794684Y20016089D01*
X46790357Y20002772D01*
X46790357Y19502772D01*
X46372499Y19502772D01*
X46372499Y20502772D01*
X46351013Y20568898D01*
X46294763Y20609766D01*
X46225235Y20609766D01*
X46168985Y20568898D01*
X46147499Y20502772D01*
X46147499Y19426397D01*
X45500533Y20558588D01*
X45495832Y20562859D01*
X45493870Y20568898D01*
X45470475Y20585896D01*
X45449071Y20605341D01*
X45442758Y20606033D01*
X45437620Y20609766D01*
X45408702Y20609766D01*
X45379956Y20612917D01*
X45374442Y20609766D01*
X45368092Y20609766D01*
X45344697Y20592770D01*
X45319589Y20578421D01*
X45316980Y20572632D01*
X45311842Y20568898D01*
X45302905Y20541395D01*
X45291026Y20515030D01*
X45292318Y20508813D01*
X45290356Y20502772D01*
X45290356Y19002772D01*
X45009854Y19002772D01*
X45009584Y19038347D01*
X44509584Y20538348D01*
X44489413Y20565672D01*
X44469672Y20593282D01*
X44468822Y20593566D01*
X44468290Y20594286D01*
X44435931Y20604530D01*
X44403712Y20615269D01*
X44402857Y20614999D01*
X44402003Y20615269D01*
X44369793Y20604533D01*
X44337424Y20594286D01*
X44336891Y20593565D01*
X44336043Y20593282D01*
X44316327Y20565709D01*
X44296130Y20538348D01*
X43796130Y19038348D01*
X43795603Y18968821D01*
X43504911Y18968821D01*
X43514686Y18990514D01*
X43513393Y18996732D01*
X43515356Y19002772D01*
X43515356Y20502772D01*
X43493870Y20568898D01*
X43437620Y20609766D01*
X43368092Y20609766D01*
X43311842Y20568898D01*
X43290356Y20502772D01*
X43290356Y19426397D01*
X42643390Y20558588D01*
X42638689Y20562859D01*
X42636727Y20568898D01*
X42613332Y20585896D01*
X42591928Y20605341D01*
X42585615Y20606033D01*
X42580477Y20609766D01*
X42551559Y20609766D01*
X42522813Y20612917D01*
X42517299Y20609766D01*
X42510949Y20609766D01*
X42487554Y20592770D01*
X42462446Y20578421D01*
X42459837Y20572632D01*
X42454699Y20568898D01*
X42445762Y20541395D01*
X42433883Y20515030D01*
X42435175Y20508813D01*
X42433213Y20502772D01*
X42433213Y19002772D01*
X42218927Y19002772D01*
X42218927Y20829558D01*
X54372501Y20829558D01*
X54372501Y18675986D01*
G37*
X52117857Y16692772D02*
X53046429Y16692772D01*
X53046429Y16692772D02*
X52546429Y16121343D01*
X52546429Y16121343D02*
X52760714Y16121343D01*
X52760714Y16121343D02*
X52903572Y16049915D01*
X52903572Y16049915D02*
X52975000Y15978486D01*
X52975000Y15978486D02*
X53046429Y15835629D01*
X53046429Y15835629D02*
X53046429Y15478486D01*
X53046429Y15478486D02*
X52975000Y15335629D01*
X52975000Y15335629D02*
X52903572Y15264200D01*
X52903572Y15264200D02*
X52760714Y15192772D01*
X52760714Y15192772D02*
X52332143Y15192772D01*
X52332143Y15192772D02*
X52189286Y15264200D01*
X52189286Y15264200D02*
X52117857Y15335629D01*
X53475000Y16692772D02*
X53975000Y15192772D01*
X53975000Y15192772D02*
X54475000Y16692772D01*
X54832142Y16692772D02*
X55760714Y16692772D01*
X55760714Y16692772D02*
X55260714Y16121343D01*
X55260714Y16121343D02*
X55474999Y16121343D01*
X55474999Y16121343D02*
X55617857Y16049915D01*
X55617857Y16049915D02*
X55689285Y15978486D01*
X55689285Y15978486D02*
X55760714Y15835629D01*
X55760714Y15835629D02*
X55760714Y15478486D01*
X55760714Y15478486D02*
X55689285Y15335629D01*
X55689285Y15335629D02*
X55617857Y15264200D01*
X55617857Y15264200D02*
X55474999Y15192772D01*
X55474999Y15192772D02*
X55046428Y15192772D01*
X55046428Y15192772D02*
X54903571Y15264200D01*
X54903571Y15264200D02*
X54832142Y15335629D01*
D10*
X45174819Y4638923D02*
X46174819Y4972256D01*
X46174819Y4972256D02*
X45174819Y5305589D01*
X46174819Y5638923D02*
X45174819Y5638923D01*
X46174819Y6115113D02*
X45174819Y6115113D01*
X45174819Y6115113D02*
X46174819Y6686541D01*
X46174819Y6686541D02*
X45174819Y6686541D01*
G36*
X43012343Y5462010D02*
G01*
X43086456Y5387897D01*
X43124949Y5310910D01*
X43168333Y5137376D01*
X43168333Y5012987D01*
X43124949Y4839453D01*
X43086455Y4762466D01*
X43012343Y4688353D01*
X42897830Y4650181D01*
X42746905Y4650181D01*
X42746905Y5500181D01*
X42897830Y5500181D01*
X43012343Y5462010D01*
G37*
G36*
X43461190Y4357324D02*
G01*
X40358810Y4357324D01*
X40358810Y5003753D01*
X40501667Y5003753D01*
X40502852Y5000496D01*
X40503906Y4985563D01*
X40551525Y4795087D01*
X40553513Y4792143D01*
X40557204Y4779736D01*
X40604823Y4684498D01*
X40606009Y4683375D01*
X40618872Y4665006D01*
X40714110Y4569767D01*
X40718174Y4567872D01*
X40720521Y4564052D01*
X40743426Y4551649D01*
X40886282Y4504030D01*
X40887917Y4504075D01*
X40910000Y4500181D01*
X41005238Y4500181D01*
X41006776Y4500742D01*
X41028955Y4504030D01*
X41171812Y4551649D01*
X41175323Y4554437D01*
X41179792Y4554827D01*
X41201129Y4569768D01*
X41206542Y4575181D01*
X41549286Y4575181D01*
X41566833Y4526972D01*
X41611262Y4501320D01*
X41661786Y4510229D01*
X41694763Y4549529D01*
X41699286Y4575181D01*
X41699286Y5292765D01*
X42130596Y4537970D01*
X42135889Y4533489D01*
X42138261Y4526972D01*
X42154998Y4517309D01*
X42169749Y4504819D01*
X42176683Y4504789D01*
X42182690Y4501320D01*
X42201723Y4504677D01*
X42221051Y4504590D01*
X42226384Y4509025D01*
X42233214Y4510229D01*
X42245638Y4525036D01*
X42260498Y4537392D01*
X42261732Y4544216D01*
X42266191Y4549529D01*
X42270714Y4575181D01*
X42596905Y4575181D01*
X42603568Y4556873D01*
X42606953Y4537681D01*
X42612137Y4533331D01*
X42614452Y4526972D01*
X42631325Y4517230D01*
X42646253Y4504704D01*
X42655995Y4502987D01*
X42658881Y4501320D01*
X42662163Y4501899D01*
X42671905Y4500181D01*
X42910000Y4500181D01*
X42911538Y4500742D01*
X42933717Y4504030D01*
X43076574Y4551649D01*
X43080086Y4554437D01*
X43084553Y4554827D01*
X43105890Y4569767D01*
X43201129Y4665007D01*
X43201820Y4666490D01*
X43215177Y4684498D01*
X43262796Y4779736D01*
X43263202Y4783265D01*
X43268475Y4795087D01*
X43316094Y4985563D01*
X43315733Y4989012D01*
X43318333Y5003753D01*
X43318333Y5146610D01*
X43317147Y5149868D01*
X43316094Y5164800D01*
X43268475Y5355276D01*
X43266486Y5358221D01*
X43262796Y5370627D01*
X43215177Y5465865D01*
X43213990Y5466989D01*
X43201128Y5485357D01*
X43105890Y5580595D01*
X43101826Y5582490D01*
X43099479Y5586311D01*
X43076574Y5598713D01*
X42933717Y5646332D01*
X42932082Y5646288D01*
X42910000Y5650181D01*
X42671905Y5650181D01*
X42653596Y5643518D01*
X42634405Y5640133D01*
X42630054Y5634949D01*
X42623696Y5632634D01*
X42613953Y5615761D01*
X42601428Y5600833D01*
X42599710Y5591091D01*
X42598044Y5588205D01*
X42598622Y5584923D01*
X42596905Y5575181D01*
X42596905Y4575181D01*
X42270714Y4575181D01*
X42270714Y5575181D01*
X42253167Y5623390D01*
X42208738Y5649042D01*
X42158214Y5640133D01*
X42125237Y5600833D01*
X42120714Y5575181D01*
X42120714Y4857598D01*
X41689404Y5612391D01*
X41684111Y5616873D01*
X41681739Y5623390D01*
X41664999Y5633055D01*
X41650251Y5645543D01*
X41643316Y5645574D01*
X41637310Y5649042D01*
X41618276Y5645686D01*
X41598949Y5645772D01*
X41593615Y5641338D01*
X41586786Y5640133D01*
X41574361Y5625327D01*
X41559502Y5612970D01*
X41558267Y5606147D01*
X41553809Y5600833D01*
X41549286Y5575181D01*
X41549286Y4575181D01*
X41206542Y4575181D01*
X41248747Y4617387D01*
X41255665Y4632225D01*
X41266191Y4644768D01*
X41269034Y4660896D01*
X41270428Y4663884D01*
X41269905Y4665835D01*
X41270714Y4670420D01*
X41270714Y5003753D01*
X41264050Y5022062D01*
X41260666Y5041253D01*
X41255481Y5045604D01*
X41253167Y5051962D01*
X41236293Y5061705D01*
X41221366Y5074230D01*
X41211623Y5075948D01*
X41208738Y5077614D01*
X41205455Y5077036D01*
X41195714Y5078753D01*
X41005238Y5078753D01*
X40957029Y5061206D01*
X40931377Y5016777D01*
X40940286Y4966253D01*
X40979586Y4933276D01*
X41005238Y4928753D01*
X41120714Y4928753D01*
X41120714Y4701486D01*
X41107581Y4688353D01*
X40993068Y4650181D01*
X40922170Y4650181D01*
X40807657Y4688352D01*
X40733544Y4762466D01*
X40695050Y4839453D01*
X40651667Y5012987D01*
X40651667Y5137376D01*
X40695050Y5310910D01*
X40733544Y5387897D01*
X40807657Y5462010D01*
X40922170Y5500181D01*
X41035152Y5500181D01*
X41114554Y5460480D01*
X41165520Y5454615D01*
X41208333Y5482881D01*
X41222960Y5532056D01*
X41202557Y5579127D01*
X41181636Y5594644D01*
X41086398Y5642263D01*
X41081944Y5642776D01*
X41078509Y5645658D01*
X41052857Y5650181D01*
X40910000Y5650181D01*
X40908462Y5649622D01*
X40886282Y5646332D01*
X40743426Y5598713D01*
X40739915Y5595927D01*
X40735447Y5595536D01*
X40714110Y5580595D01*
X40618872Y5485357D01*
X40618181Y5483876D01*
X40604823Y5465865D01*
X40557204Y5370627D01*
X40556797Y5367099D01*
X40551525Y5355276D01*
X40503906Y5164800D01*
X40504266Y5161352D01*
X40501667Y5146610D01*
X40501667Y5003753D01*
X40358810Y5003753D01*
X40358810Y5793038D01*
X43461190Y5793038D01*
X43461190Y4357324D01*
G37*
X30934819Y4781780D02*
X29934819Y4781780D01*
X29934819Y5448446D02*
X29934819Y5638922D01*
X29934819Y5638922D02*
X29982438Y5734160D01*
X29982438Y5734160D02*
X30077676Y5829398D01*
X30077676Y5829398D02*
X30268152Y5877017D01*
X30268152Y5877017D02*
X30601485Y5877017D01*
X30601485Y5877017D02*
X30791961Y5829398D01*
X30791961Y5829398D02*
X30887200Y5734160D01*
X30887200Y5734160D02*
X30934819Y5638922D01*
X30934819Y5638922D02*
X30934819Y5448446D01*
X30934819Y5448446D02*
X30887200Y5353208D01*
X30887200Y5353208D02*
X30791961Y5257970D01*
X30791961Y5257970D02*
X30601485Y5210351D01*
X30601485Y5210351D02*
X30268152Y5210351D01*
X30268152Y5210351D02*
X30077676Y5257970D01*
X30077676Y5257970D02*
X29982438Y5353208D01*
X29982438Y5353208D02*
X29934819Y5448446D01*
X30934819Y6877017D02*
X30458628Y6543684D01*
X30934819Y6305589D02*
X29934819Y6305589D01*
X29934819Y6305589D02*
X29934819Y6686541D01*
X29934819Y6686541D02*
X29982438Y6781779D01*
X29982438Y6781779D02*
X30030057Y6829398D01*
X30030057Y6829398D02*
X30125295Y6877017D01*
X30125295Y6877017D02*
X30268152Y6877017D01*
X30268152Y6877017D02*
X30363390Y6829398D01*
X30363390Y6829398D02*
X30411009Y6781779D01*
X30411009Y6781779D02*
X30458628Y6686541D01*
X30458628Y6686541D02*
X30458628Y6305589D01*
X30411009Y7305589D02*
X30411009Y7638922D01*
X30934819Y7781779D02*
X30934819Y7305589D01*
X30934819Y7305589D02*
X29934819Y7305589D01*
X29934819Y7305589D02*
X29934819Y7781779D01*
X30411009Y8543684D02*
X30411009Y8210351D01*
X30934819Y8210351D02*
X29934819Y8210351D01*
X29934819Y8210351D02*
X29934819Y8686541D01*
X33474819Y5353208D02*
X32998628Y5019875D01*
X33474819Y4781780D02*
X32474819Y4781780D01*
X32474819Y4781780D02*
X32474819Y5162732D01*
X32474819Y5162732D02*
X32522438Y5257970D01*
X32522438Y5257970D02*
X32570057Y5305589D01*
X32570057Y5305589D02*
X32665295Y5353208D01*
X32665295Y5353208D02*
X32808152Y5353208D01*
X32808152Y5353208D02*
X32903390Y5305589D01*
X32903390Y5305589D02*
X32951009Y5257970D01*
X32951009Y5257970D02*
X32998628Y5162732D01*
X32998628Y5162732D02*
X32998628Y4781780D01*
X32951009Y5781780D02*
X32951009Y6115113D01*
X33474819Y6257970D02*
X33474819Y5781780D01*
X33474819Y5781780D02*
X32474819Y5781780D01*
X32474819Y5781780D02*
X32474819Y6257970D01*
X33427200Y6638923D02*
X33474819Y6781780D01*
X33474819Y6781780D02*
X33474819Y7019875D01*
X33474819Y7019875D02*
X33427200Y7115113D01*
X33427200Y7115113D02*
X33379580Y7162732D01*
X33379580Y7162732D02*
X33284342Y7210351D01*
X33284342Y7210351D02*
X33189104Y7210351D01*
X33189104Y7210351D02*
X33093866Y7162732D01*
X33093866Y7162732D02*
X33046247Y7115113D01*
X33046247Y7115113D02*
X32998628Y7019875D01*
X32998628Y7019875D02*
X32951009Y6829399D01*
X32951009Y6829399D02*
X32903390Y6734161D01*
X32903390Y6734161D02*
X32855771Y6686542D01*
X32855771Y6686542D02*
X32760533Y6638923D01*
X32760533Y6638923D02*
X32665295Y6638923D01*
X32665295Y6638923D02*
X32570057Y6686542D01*
X32570057Y6686542D02*
X32522438Y6734161D01*
X32522438Y6734161D02*
X32474819Y6829399D01*
X32474819Y6829399D02*
X32474819Y7067494D01*
X32474819Y7067494D02*
X32522438Y7210351D01*
X32951009Y7638923D02*
X32951009Y7972256D01*
X33474819Y8115113D02*
X33474819Y7638923D01*
X33474819Y7638923D02*
X32474819Y7638923D01*
X32474819Y7638923D02*
X32474819Y8115113D01*
X32474819Y8400828D02*
X32474819Y8972256D01*
X33474819Y8686542D02*
X32474819Y8686542D01*
X35014819Y4686542D02*
X35014819Y5305589D01*
X35014819Y5305589D02*
X35395771Y4972256D01*
X35395771Y4972256D02*
X35395771Y5115113D01*
X35395771Y5115113D02*
X35443390Y5210351D01*
X35443390Y5210351D02*
X35491009Y5257970D01*
X35491009Y5257970D02*
X35586247Y5305589D01*
X35586247Y5305589D02*
X35824342Y5305589D01*
X35824342Y5305589D02*
X35919580Y5257970D01*
X35919580Y5257970D02*
X35967200Y5210351D01*
X35967200Y5210351D02*
X36014819Y5115113D01*
X36014819Y5115113D02*
X36014819Y4829399D01*
X36014819Y4829399D02*
X35967200Y4734161D01*
X35967200Y4734161D02*
X35919580Y4686542D01*
X35919580Y5734161D02*
X35967200Y5781780D01*
X35967200Y5781780D02*
X36014819Y5734161D01*
X36014819Y5734161D02*
X35967200Y5686542D01*
X35967200Y5686542D02*
X35919580Y5734161D01*
X35919580Y5734161D02*
X36014819Y5734161D01*
X35014819Y6115113D02*
X35014819Y6734160D01*
X35014819Y6734160D02*
X35395771Y6400827D01*
X35395771Y6400827D02*
X35395771Y6543684D01*
X35395771Y6543684D02*
X35443390Y6638922D01*
X35443390Y6638922D02*
X35491009Y6686541D01*
X35491009Y6686541D02*
X35586247Y6734160D01*
X35586247Y6734160D02*
X35824342Y6734160D01*
X35824342Y6734160D02*
X35919580Y6686541D01*
X35919580Y6686541D02*
X35967200Y6638922D01*
X35967200Y6638922D02*
X36014819Y6543684D01*
X36014819Y6543684D02*
X36014819Y6257970D01*
X36014819Y6257970D02*
X35967200Y6162732D01*
X35967200Y6162732D02*
X35919580Y6115113D01*
X35014819Y7019875D02*
X36014819Y7353208D01*
X36014819Y7353208D02*
X35014819Y7686541D01*
X27871009Y5115113D02*
X27918628Y5257970D01*
X27918628Y5257970D02*
X27966247Y5305589D01*
X27966247Y5305589D02*
X28061485Y5353208D01*
X28061485Y5353208D02*
X28204342Y5353208D01*
X28204342Y5353208D02*
X28299580Y5305589D01*
X28299580Y5305589D02*
X28347200Y5257970D01*
X28347200Y5257970D02*
X28394819Y5162732D01*
X28394819Y5162732D02*
X28394819Y4781780D01*
X28394819Y4781780D02*
X27394819Y4781780D01*
X27394819Y4781780D02*
X27394819Y5115113D01*
X27394819Y5115113D02*
X27442438Y5210351D01*
X27442438Y5210351D02*
X27490057Y5257970D01*
X27490057Y5257970D02*
X27585295Y5305589D01*
X27585295Y5305589D02*
X27680533Y5305589D01*
X27680533Y5305589D02*
X27775771Y5257970D01*
X27775771Y5257970D02*
X27823390Y5210351D01*
X27823390Y5210351D02*
X27871009Y5115113D01*
X27871009Y5115113D02*
X27871009Y4781780D01*
X27394819Y5972256D02*
X27394819Y6162732D01*
X27394819Y6162732D02*
X27442438Y6257970D01*
X27442438Y6257970D02*
X27537676Y6353208D01*
X27537676Y6353208D02*
X27728152Y6400827D01*
X27728152Y6400827D02*
X28061485Y6400827D01*
X28061485Y6400827D02*
X28251961Y6353208D01*
X28251961Y6353208D02*
X28347200Y6257970D01*
X28347200Y6257970D02*
X28394819Y6162732D01*
X28394819Y6162732D02*
X28394819Y5972256D01*
X28394819Y5972256D02*
X28347200Y5877018D01*
X28347200Y5877018D02*
X28251961Y5781780D01*
X28251961Y5781780D02*
X28061485Y5734161D01*
X28061485Y5734161D02*
X27728152Y5734161D01*
X27728152Y5734161D02*
X27537676Y5781780D01*
X27537676Y5781780D02*
X27442438Y5877018D01*
X27442438Y5877018D02*
X27394819Y5972256D01*
X27394819Y7019875D02*
X27394819Y7210351D01*
X27394819Y7210351D02*
X27442438Y7305589D01*
X27442438Y7305589D02*
X27537676Y7400827D01*
X27537676Y7400827D02*
X27728152Y7448446D01*
X27728152Y7448446D02*
X28061485Y7448446D01*
X28061485Y7448446D02*
X28251961Y7400827D01*
X28251961Y7400827D02*
X28347200Y7305589D01*
X28347200Y7305589D02*
X28394819Y7210351D01*
X28394819Y7210351D02*
X28394819Y7019875D01*
X28394819Y7019875D02*
X28347200Y6924637D01*
X28347200Y6924637D02*
X28251961Y6829399D01*
X28251961Y6829399D02*
X28061485Y6781780D01*
X28061485Y6781780D02*
X27728152Y6781780D01*
X27728152Y6781780D02*
X27537676Y6829399D01*
X27537676Y6829399D02*
X27442438Y6924637D01*
X27442438Y6924637D02*
X27394819Y7019875D01*
X27394819Y7734161D02*
X27394819Y8305589D01*
X28394819Y8019875D02*
X27394819Y8019875D01*
X37554819Y5257970D02*
X37554819Y4781780D01*
X37554819Y4781780D02*
X38031009Y4734161D01*
X38031009Y4734161D02*
X37983390Y4781780D01*
X37983390Y4781780D02*
X37935771Y4877018D01*
X37935771Y4877018D02*
X37935771Y5115113D01*
X37935771Y5115113D02*
X37983390Y5210351D01*
X37983390Y5210351D02*
X38031009Y5257970D01*
X38031009Y5257970D02*
X38126247Y5305589D01*
X38126247Y5305589D02*
X38364342Y5305589D01*
X38364342Y5305589D02*
X38459580Y5257970D01*
X38459580Y5257970D02*
X38507200Y5210351D01*
X38507200Y5210351D02*
X38554819Y5115113D01*
X38554819Y5115113D02*
X38554819Y4877018D01*
X38554819Y4877018D02*
X38507200Y4781780D01*
X38507200Y4781780D02*
X38459580Y4734161D01*
X37554819Y5591304D02*
X38554819Y5924637D01*
X38554819Y5924637D02*
X37554819Y6257970D01*
X56049104Y4734161D02*
X56049104Y5210351D01*
X56334819Y4638923D02*
X55334819Y4972256D01*
X55334819Y4972256D02*
X56334819Y5305589D01*
X55430057Y5591304D02*
X55382438Y5638923D01*
X55382438Y5638923D02*
X55334819Y5734161D01*
X55334819Y5734161D02*
X55334819Y5972256D01*
X55334819Y5972256D02*
X55382438Y6067494D01*
X55382438Y6067494D02*
X55430057Y6115113D01*
X55430057Y6115113D02*
X55525295Y6162732D01*
X55525295Y6162732D02*
X55620533Y6162732D01*
X55620533Y6162732D02*
X55763390Y6115113D01*
X55763390Y6115113D02*
X56334819Y5543685D01*
X56334819Y5543685D02*
X56334819Y6162732D01*
X58589104Y4734161D02*
X58589104Y5210351D01*
X58874819Y4638923D02*
X57874819Y4972256D01*
X57874819Y4972256D02*
X58874819Y5305589D01*
X57874819Y5543685D02*
X57874819Y6162732D01*
X57874819Y6162732D02*
X58255771Y5829399D01*
X58255771Y5829399D02*
X58255771Y5972256D01*
X58255771Y5972256D02*
X58303390Y6067494D01*
X58303390Y6067494D02*
X58351009Y6115113D01*
X58351009Y6115113D02*
X58446247Y6162732D01*
X58446247Y6162732D02*
X58684342Y6162732D01*
X58684342Y6162732D02*
X58779580Y6115113D01*
X58779580Y6115113D02*
X58827200Y6067494D01*
X58827200Y6067494D02*
X58874819Y5972256D01*
X58874819Y5972256D02*
X58874819Y5686542D01*
X58874819Y5686542D02*
X58827200Y5591304D01*
X58827200Y5591304D02*
X58779580Y5543685D01*
X63669104Y4734161D02*
X63669104Y5210351D01*
X63954819Y4638923D02*
X62954819Y4972256D01*
X62954819Y4972256D02*
X63954819Y5305589D01*
X62954819Y6115113D02*
X62954819Y5638923D01*
X62954819Y5638923D02*
X63431009Y5591304D01*
X63431009Y5591304D02*
X63383390Y5638923D01*
X63383390Y5638923D02*
X63335771Y5734161D01*
X63335771Y5734161D02*
X63335771Y5972256D01*
X63335771Y5972256D02*
X63383390Y6067494D01*
X63383390Y6067494D02*
X63431009Y6115113D01*
X63431009Y6115113D02*
X63526247Y6162732D01*
X63526247Y6162732D02*
X63764342Y6162732D01*
X63764342Y6162732D02*
X63859580Y6115113D01*
X63859580Y6115113D02*
X63907200Y6067494D01*
X63907200Y6067494D02*
X63954819Y5972256D01*
X63954819Y5972256D02*
X63954819Y5734161D01*
X63954819Y5734161D02*
X63907200Y5638923D01*
X63907200Y5638923D02*
X63859580Y5591304D01*
X50969104Y4734161D02*
X50969104Y5210351D01*
X51254819Y4638923D02*
X50254819Y4972256D01*
X50254819Y4972256D02*
X51254819Y5305589D01*
X50254819Y5829399D02*
X50254819Y5924637D01*
X50254819Y5924637D02*
X50302438Y6019875D01*
X50302438Y6019875D02*
X50350057Y6067494D01*
X50350057Y6067494D02*
X50445295Y6115113D01*
X50445295Y6115113D02*
X50635771Y6162732D01*
X50635771Y6162732D02*
X50873866Y6162732D01*
X50873866Y6162732D02*
X51064342Y6115113D01*
X51064342Y6115113D02*
X51159580Y6067494D01*
X51159580Y6067494D02*
X51207200Y6019875D01*
X51207200Y6019875D02*
X51254819Y5924637D01*
X51254819Y5924637D02*
X51254819Y5829399D01*
X51254819Y5829399D02*
X51207200Y5734161D01*
X51207200Y5734161D02*
X51159580Y5686542D01*
X51159580Y5686542D02*
X51064342Y5638923D01*
X51064342Y5638923D02*
X50873866Y5591304D01*
X50873866Y5591304D02*
X50635771Y5591304D01*
X50635771Y5591304D02*
X50445295Y5638923D01*
X50445295Y5638923D02*
X50350057Y5686542D01*
X50350057Y5686542D02*
X50302438Y5734161D01*
X50302438Y5734161D02*
X50254819Y5829399D01*
X53509104Y4734161D02*
X53509104Y5210351D01*
X53794819Y4638923D02*
X52794819Y4972256D01*
X52794819Y4972256D02*
X53794819Y5305589D01*
X53794819Y6162732D02*
X53794819Y5591304D01*
X53794819Y5877018D02*
X52794819Y5877018D01*
X52794819Y5877018D02*
X52937676Y5781780D01*
X52937676Y5781780D02*
X53032914Y5686542D01*
X53032914Y5686542D02*
X53080533Y5591304D01*
X61129104Y4734161D02*
X61129104Y5210351D01*
X61414819Y4638923D02*
X60414819Y4972256D01*
X60414819Y4972256D02*
X61414819Y5305589D01*
X60748152Y6067494D02*
X61414819Y6067494D01*
X60367200Y5829399D02*
X61081485Y5591304D01*
X61081485Y5591304D02*
X61081485Y6210351D01*
X19203200Y46224888D02*
X19250819Y46367745D01*
X19250819Y46367745D02*
X19250819Y46605840D01*
X19250819Y46605840D02*
X19203200Y46701078D01*
X19203200Y46701078D02*
X19155580Y46748697D01*
X19155580Y46748697D02*
X19060342Y46796316D01*
X19060342Y46796316D02*
X18965104Y46796316D01*
X18965104Y46796316D02*
X18869866Y46748697D01*
X18869866Y46748697D02*
X18822247Y46701078D01*
X18822247Y46701078D02*
X18774628Y46605840D01*
X18774628Y46605840D02*
X18727009Y46415364D01*
X18727009Y46415364D02*
X18679390Y46320126D01*
X18679390Y46320126D02*
X18631771Y46272507D01*
X18631771Y46272507D02*
X18536533Y46224888D01*
X18536533Y46224888D02*
X18441295Y46224888D01*
X18441295Y46224888D02*
X18346057Y46272507D01*
X18346057Y46272507D02*
X18298438Y46320126D01*
X18298438Y46320126D02*
X18250819Y46415364D01*
X18250819Y46415364D02*
X18250819Y46653459D01*
X18250819Y46653459D02*
X18298438Y46796316D01*
X19155580Y47796316D02*
X19203200Y47748697D01*
X19203200Y47748697D02*
X19250819Y47605840D01*
X19250819Y47605840D02*
X19250819Y47510602D01*
X19250819Y47510602D02*
X19203200Y47367745D01*
X19203200Y47367745D02*
X19107961Y47272507D01*
X19107961Y47272507D02*
X19012723Y47224888D01*
X19012723Y47224888D02*
X18822247Y47177269D01*
X18822247Y47177269D02*
X18679390Y47177269D01*
X18679390Y47177269D02*
X18488914Y47224888D01*
X18488914Y47224888D02*
X18393676Y47272507D01*
X18393676Y47272507D02*
X18298438Y47367745D01*
X18298438Y47367745D02*
X18250819Y47510602D01*
X18250819Y47510602D02*
X18250819Y47605840D01*
X18250819Y47605840D02*
X18298438Y47748697D01*
X18298438Y47748697D02*
X18346057Y47796316D01*
X19250819Y48701078D02*
X19250819Y48224888D01*
X19250819Y48224888D02*
X18250819Y48224888D01*
X31950819Y47653459D02*
X31950819Y47082031D01*
X31950819Y47367745D02*
X30950819Y47367745D01*
X30950819Y47367745D02*
X31093676Y47272507D01*
X31093676Y47272507D02*
X31188914Y47177269D01*
X31188914Y47177269D02*
X31236533Y47082031D01*
X31046057Y48034412D02*
X30998438Y48082031D01*
X30998438Y48082031D02*
X30950819Y48177269D01*
X30950819Y48177269D02*
X30950819Y48415364D01*
X30950819Y48415364D02*
X30998438Y48510602D01*
X30998438Y48510602D02*
X31046057Y48558221D01*
X31046057Y48558221D02*
X31141295Y48605840D01*
X31141295Y48605840D02*
X31236533Y48605840D01*
X31236533Y48605840D02*
X31379390Y48558221D01*
X31379390Y48558221D02*
X31950819Y47986793D01*
X31950819Y47986793D02*
X31950819Y48605840D01*
X37030819Y47653459D02*
X37030819Y47082031D01*
X37030819Y47367745D02*
X36030819Y47367745D01*
X36030819Y47367745D02*
X36173676Y47272507D01*
X36173676Y47272507D02*
X36268914Y47177269D01*
X36268914Y47177269D02*
X36316533Y47082031D01*
X36030819Y48272507D02*
X36030819Y48367745D01*
X36030819Y48367745D02*
X36078438Y48462983D01*
X36078438Y48462983D02*
X36126057Y48510602D01*
X36126057Y48510602D02*
X36221295Y48558221D01*
X36221295Y48558221D02*
X36411771Y48605840D01*
X36411771Y48605840D02*
X36649866Y48605840D01*
X36649866Y48605840D02*
X36840342Y48558221D01*
X36840342Y48558221D02*
X36935580Y48510602D01*
X36935580Y48510602D02*
X36983200Y48462983D01*
X36983200Y48462983D02*
X37030819Y48367745D01*
X37030819Y48367745D02*
X37030819Y48272507D01*
X37030819Y48272507D02*
X36983200Y48177269D01*
X36983200Y48177269D02*
X36935580Y48129650D01*
X36935580Y48129650D02*
X36840342Y48082031D01*
X36840342Y48082031D02*
X36649866Y48034412D01*
X36649866Y48034412D02*
X36411771Y48034412D01*
X36411771Y48034412D02*
X36221295Y48082031D01*
X36221295Y48082031D02*
X36126057Y48129650D01*
X36126057Y48129650D02*
X36078438Y48177269D01*
X36078438Y48177269D02*
X36030819Y48272507D01*
X34490819Y47653459D02*
X34490819Y47082031D01*
X34490819Y47367745D02*
X33490819Y47367745D01*
X33490819Y47367745D02*
X33633676Y47272507D01*
X33633676Y47272507D02*
X33728914Y47177269D01*
X33728914Y47177269D02*
X33776533Y47082031D01*
X34490819Y48605840D02*
X34490819Y48034412D01*
X34490819Y48320126D02*
X33490819Y48320126D01*
X33490819Y48320126D02*
X33633676Y48224888D01*
X33633676Y48224888D02*
X33728914Y48129650D01*
X33728914Y48129650D02*
X33776533Y48034412D01*
X41539390Y48224888D02*
X41491771Y48129650D01*
X41491771Y48129650D02*
X41444152Y48082031D01*
X41444152Y48082031D02*
X41348914Y48034412D01*
X41348914Y48034412D02*
X41301295Y48034412D01*
X41301295Y48034412D02*
X41206057Y48082031D01*
X41206057Y48082031D02*
X41158438Y48129650D01*
X41158438Y48129650D02*
X41110819Y48224888D01*
X41110819Y48224888D02*
X41110819Y48415364D01*
X41110819Y48415364D02*
X41158438Y48510602D01*
X41158438Y48510602D02*
X41206057Y48558221D01*
X41206057Y48558221D02*
X41301295Y48605840D01*
X41301295Y48605840D02*
X41348914Y48605840D01*
X41348914Y48605840D02*
X41444152Y48558221D01*
X41444152Y48558221D02*
X41491771Y48510602D01*
X41491771Y48510602D02*
X41539390Y48415364D01*
X41539390Y48415364D02*
X41539390Y48224888D01*
X41539390Y48224888D02*
X41587009Y48129650D01*
X41587009Y48129650D02*
X41634628Y48082031D01*
X41634628Y48082031D02*
X41729866Y48034412D01*
X41729866Y48034412D02*
X41920342Y48034412D01*
X41920342Y48034412D02*
X42015580Y48082031D01*
X42015580Y48082031D02*
X42063200Y48129650D01*
X42063200Y48129650D02*
X42110819Y48224888D01*
X42110819Y48224888D02*
X42110819Y48415364D01*
X42110819Y48415364D02*
X42063200Y48510602D01*
X42063200Y48510602D02*
X42015580Y48558221D01*
X42015580Y48558221D02*
X41920342Y48605840D01*
X41920342Y48605840D02*
X41729866Y48605840D01*
X41729866Y48605840D02*
X41634628Y48558221D01*
X41634628Y48558221D02*
X41587009Y48510602D01*
X41587009Y48510602D02*
X41539390Y48415364D01*
X21743200Y46177269D02*
X21790819Y46320126D01*
X21790819Y46320126D02*
X21790819Y46558221D01*
X21790819Y46558221D02*
X21743200Y46653459D01*
X21743200Y46653459D02*
X21695580Y46701078D01*
X21695580Y46701078D02*
X21600342Y46748697D01*
X21600342Y46748697D02*
X21505104Y46748697D01*
X21505104Y46748697D02*
X21409866Y46701078D01*
X21409866Y46701078D02*
X21362247Y46653459D01*
X21362247Y46653459D02*
X21314628Y46558221D01*
X21314628Y46558221D02*
X21267009Y46367745D01*
X21267009Y46367745D02*
X21219390Y46272507D01*
X21219390Y46272507D02*
X21171771Y46224888D01*
X21171771Y46224888D02*
X21076533Y46177269D01*
X21076533Y46177269D02*
X20981295Y46177269D01*
X20981295Y46177269D02*
X20886057Y46224888D01*
X20886057Y46224888D02*
X20838438Y46272507D01*
X20838438Y46272507D02*
X20790819Y46367745D01*
X20790819Y46367745D02*
X20790819Y46605840D01*
X20790819Y46605840D02*
X20838438Y46748697D01*
X21790819Y47177269D02*
X20790819Y47177269D01*
X20790819Y47177269D02*
X20790819Y47415364D01*
X20790819Y47415364D02*
X20838438Y47558221D01*
X20838438Y47558221D02*
X20933676Y47653459D01*
X20933676Y47653459D02*
X21028914Y47701078D01*
X21028914Y47701078D02*
X21219390Y47748697D01*
X21219390Y47748697D02*
X21362247Y47748697D01*
X21362247Y47748697D02*
X21552723Y47701078D01*
X21552723Y47701078D02*
X21647961Y47653459D01*
X21647961Y47653459D02*
X21743200Y47558221D01*
X21743200Y47558221D02*
X21790819Y47415364D01*
X21790819Y47415364D02*
X21790819Y47177269D01*
X21505104Y48129650D02*
X21505104Y48605840D01*
X21790819Y48034412D02*
X20790819Y48367745D01*
X20790819Y48367745D02*
X21790819Y48701078D01*
X29410819Y47653459D02*
X29410819Y47082031D01*
X29410819Y47367745D02*
X28410819Y47367745D01*
X28410819Y47367745D02*
X28553676Y47272507D01*
X28553676Y47272507D02*
X28648914Y47177269D01*
X28648914Y47177269D02*
X28696533Y47082031D01*
X28410819Y47986793D02*
X28410819Y48605840D01*
X28410819Y48605840D02*
X28791771Y48272507D01*
X28791771Y48272507D02*
X28791771Y48415364D01*
X28791771Y48415364D02*
X28839390Y48510602D01*
X28839390Y48510602D02*
X28887009Y48558221D01*
X28887009Y48558221D02*
X28982247Y48605840D01*
X28982247Y48605840D02*
X29220342Y48605840D01*
X29220342Y48605840D02*
X29315580Y48558221D01*
X29315580Y48558221D02*
X29363200Y48510602D01*
X29363200Y48510602D02*
X29410819Y48415364D01*
X29410819Y48415364D02*
X29410819Y48129650D01*
X29410819Y48129650D02*
X29363200Y48034412D01*
X29363200Y48034412D02*
X29315580Y47986793D01*
X24045104Y45367745D02*
X24045104Y45843935D01*
X24330819Y45272507D02*
X23330819Y45605840D01*
X23330819Y45605840D02*
X24330819Y45939173D01*
X24330819Y46843935D02*
X23854628Y46510602D01*
X24330819Y46272507D02*
X23330819Y46272507D01*
X23330819Y46272507D02*
X23330819Y46653459D01*
X23330819Y46653459D02*
X23378438Y46748697D01*
X23378438Y46748697D02*
X23426057Y46796316D01*
X23426057Y46796316D02*
X23521295Y46843935D01*
X23521295Y46843935D02*
X23664152Y46843935D01*
X23664152Y46843935D02*
X23759390Y46796316D01*
X23759390Y46796316D02*
X23807009Y46748697D01*
X23807009Y46748697D02*
X23854628Y46653459D01*
X23854628Y46653459D02*
X23854628Y46272507D01*
X23807009Y47272507D02*
X23807009Y47605840D01*
X24330819Y47748697D02*
X24330819Y47272507D01*
X24330819Y47272507D02*
X23330819Y47272507D01*
X23330819Y47272507D02*
X23330819Y47748697D01*
X23807009Y48510602D02*
X23807009Y48177269D01*
X24330819Y48177269D02*
X23330819Y48177269D01*
X23330819Y48177269D02*
X23330819Y48653459D01*
X39570819Y48129650D02*
X39570819Y48320126D01*
X39570819Y48320126D02*
X39523200Y48415364D01*
X39523200Y48415364D02*
X39475580Y48462983D01*
X39475580Y48462983D02*
X39332723Y48558221D01*
X39332723Y48558221D02*
X39142247Y48605840D01*
X39142247Y48605840D02*
X38761295Y48605840D01*
X38761295Y48605840D02*
X38666057Y48558221D01*
X38666057Y48558221D02*
X38618438Y48510602D01*
X38618438Y48510602D02*
X38570819Y48415364D01*
X38570819Y48415364D02*
X38570819Y48224888D01*
X38570819Y48224888D02*
X38618438Y48129650D01*
X38618438Y48129650D02*
X38666057Y48082031D01*
X38666057Y48082031D02*
X38761295Y48034412D01*
X38761295Y48034412D02*
X38999390Y48034412D01*
X38999390Y48034412D02*
X39094628Y48082031D01*
X39094628Y48082031D02*
X39142247Y48129650D01*
X39142247Y48129650D02*
X39189866Y48224888D01*
X39189866Y48224888D02*
X39189866Y48415364D01*
X39189866Y48415364D02*
X39142247Y48510602D01*
X39142247Y48510602D02*
X39094628Y48558221D01*
X39094628Y48558221D02*
X38999390Y48605840D01*
G36*
X26606547Y48487457D02*
G01*
X26683534Y48448963D01*
X26757648Y48374850D01*
X26795819Y48260337D01*
X26795819Y48109412D01*
X25945819Y48109412D01*
X25945819Y48260337D01*
X25983990Y48374851D01*
X26058103Y48448963D01*
X26135090Y48487457D01*
X26308624Y48530840D01*
X26433013Y48530840D01*
X26606547Y48487457D01*
G37*
G36*
X27088676Y45721317D02*
G01*
X25652962Y45721317D01*
X25652962Y46272507D01*
X25795819Y46272507D01*
X25796379Y46270969D01*
X25799668Y46248790D01*
X25847287Y46105933D01*
X25850074Y46102421D01*
X25850465Y46097954D01*
X25865405Y46076617D01*
X25960643Y45981379D01*
X25962124Y45980689D01*
X25980135Y45967330D01*
X26075373Y45919711D01*
X26078901Y45919305D01*
X26090724Y45914032D01*
X26281200Y45866413D01*
X26284648Y45866774D01*
X26299390Y45864174D01*
X26442247Y45864174D01*
X26445504Y45865360D01*
X26460437Y45866413D01*
X26650913Y45914032D01*
X26653857Y45916021D01*
X26666264Y45919711D01*
X26761502Y45967330D01*
X26762625Y45968517D01*
X26780994Y45981379D01*
X26876233Y46076617D01*
X26878128Y46080682D01*
X26881948Y46083028D01*
X26894351Y46105933D01*
X26941970Y46248789D01*
X26941925Y46250425D01*
X26945819Y46272507D01*
X26945819Y46367745D01*
X26945259Y46369283D01*
X26941970Y46391463D01*
X26894351Y46534319D01*
X26891563Y46537831D01*
X26891173Y46542299D01*
X26876232Y46563636D01*
X26828612Y46611255D01*
X26813774Y46618174D01*
X26801232Y46628698D01*
X26785104Y46631542D01*
X26782116Y46632935D01*
X26780165Y46632413D01*
X26775580Y46633221D01*
X26442247Y46633221D01*
X26423938Y46626558D01*
X26404747Y46623173D01*
X26400396Y46617989D01*
X26394038Y46615674D01*
X26384295Y46598801D01*
X26371770Y46583873D01*
X26370052Y46574131D01*
X26368386Y46571245D01*
X26368964Y46567963D01*
X26367247Y46558221D01*
X26367247Y46367745D01*
X26384794Y46319536D01*
X26429223Y46293884D01*
X26479747Y46302793D01*
X26512724Y46342093D01*
X26517247Y46367745D01*
X26517247Y46483221D01*
X26744514Y46483221D01*
X26757648Y46470088D01*
X26795819Y46355575D01*
X26795819Y46284677D01*
X26757648Y46170165D01*
X26683534Y46096052D01*
X26606547Y46057558D01*
X26433013Y46014174D01*
X26308624Y46014174D01*
X26135090Y46057558D01*
X26058103Y46096051D01*
X25983990Y46170164D01*
X25945819Y46284678D01*
X25945819Y46397659D01*
X25985520Y46477061D01*
X25991385Y46528027D01*
X25963119Y46570840D01*
X25913944Y46585467D01*
X25866873Y46565064D01*
X25851356Y46544143D01*
X25803737Y46448905D01*
X25803224Y46444452D01*
X25800342Y46441016D01*
X25795819Y46415364D01*
X25795819Y46272507D01*
X25652962Y46272507D01*
X25652962Y46999817D01*
X25796958Y46999817D01*
X25800314Y46980784D01*
X25800228Y46961456D01*
X25804662Y46956123D01*
X25805867Y46949293D01*
X25820673Y46936869D01*
X25833030Y46922009D01*
X25839853Y46920775D01*
X25845167Y46916316D01*
X25870819Y46911793D01*
X26870819Y46911793D01*
X26919028Y46929340D01*
X26944680Y46973769D01*
X26935771Y47024293D01*
X26896471Y47057270D01*
X26870819Y47061793D01*
X26153236Y47061793D01*
X26908030Y47493103D01*
X26912511Y47498397D01*
X26919028Y47500768D01*
X26928691Y47517506D01*
X26941181Y47532256D01*
X26941211Y47539191D01*
X26944680Y47545197D01*
X26941323Y47564231D01*
X26941410Y47583558D01*
X26936975Y47588892D01*
X26935771Y47595721D01*
X26920964Y47608146D01*
X26908608Y47623005D01*
X26901784Y47624240D01*
X26896471Y47628698D01*
X26870819Y47633221D01*
X25870819Y47633221D01*
X25822610Y47615674D01*
X25796958Y47571245D01*
X25805867Y47520721D01*
X25845167Y47487744D01*
X25870819Y47483221D01*
X26588402Y47483221D01*
X25833609Y47051911D01*
X25829127Y47046619D01*
X25822610Y47044246D01*
X25812945Y47027507D01*
X25800457Y47012758D01*
X25800426Y47005824D01*
X25796958Y46999817D01*
X25652962Y46999817D01*
X25652962Y48034412D01*
X25795819Y48034412D01*
X25802482Y48016104D01*
X25805867Y47996912D01*
X25811051Y47992562D01*
X25813366Y47986203D01*
X25830239Y47976461D01*
X25845167Y47963935D01*
X25854909Y47962218D01*
X25857795Y47960551D01*
X25861077Y47961130D01*
X25870819Y47959412D01*
X26870819Y47959412D01*
X26889127Y47966076D01*
X26908319Y47969460D01*
X26912669Y47974645D01*
X26919028Y47976959D01*
X26928770Y47993833D01*
X26941296Y48008760D01*
X26943013Y48018503D01*
X26944680Y48021388D01*
X26944101Y48024671D01*
X26945819Y48034412D01*
X26945819Y48272507D01*
X26945259Y48274045D01*
X26941970Y48296225D01*
X26894351Y48439081D01*
X26891564Y48442592D01*
X26891174Y48447060D01*
X26876233Y48468397D01*
X26780994Y48563635D01*
X26779512Y48564326D01*
X26761502Y48577684D01*
X26666264Y48625303D01*
X26662735Y48625710D01*
X26650913Y48630982D01*
X26460437Y48678601D01*
X26456988Y48678241D01*
X26442247Y48680840D01*
X26299390Y48680840D01*
X26296132Y48679655D01*
X26281200Y48678601D01*
X26090724Y48630982D01*
X26087779Y48628994D01*
X26075373Y48625303D01*
X25980135Y48577684D01*
X25979011Y48576498D01*
X25960643Y48563635D01*
X25865405Y48468397D01*
X25863510Y48464334D01*
X25859689Y48461986D01*
X25847287Y48439081D01*
X25799668Y48296224D01*
X25799712Y48294590D01*
X25795819Y48272507D01*
X25795819Y48034412D01*
X25652962Y48034412D01*
X25652962Y48823697D01*
X27088676Y48823697D01*
X27088676Y45721317D01*
G37*
X45174819Y47986793D02*
X45174819Y48653459D01*
X45174819Y48653459D02*
X46174819Y48224888D01*
X60414819Y44986793D02*
X60414819Y45558221D01*
X61414819Y45272507D02*
X60414819Y45272507D01*
X60414819Y45796317D02*
X61414819Y46462983D01*
X60414819Y46462983D02*
X61414819Y45796317D01*
X61033866Y46843936D02*
X61033866Y47605840D01*
X61224342Y47415364D02*
X61033866Y47605840D01*
X61033866Y47605840D02*
X60843390Y47415364D01*
X61414819Y48605840D02*
X61414819Y48034412D01*
X61414819Y48320126D02*
X60414819Y48320126D01*
X60414819Y48320126D02*
X60557676Y48224888D01*
X60557676Y48224888D02*
X60652914Y48129650D01*
X60652914Y48129650D02*
X60700533Y48034412D01*
X53128152Y48510602D02*
X53794819Y48510602D01*
X52747200Y48272507D02*
X53461485Y48034412D01*
X53461485Y48034412D02*
X53461485Y48653459D01*
X57970057Y48034412D02*
X57922438Y48082031D01*
X57922438Y48082031D02*
X57874819Y48177269D01*
X57874819Y48177269D02*
X57874819Y48415364D01*
X57874819Y48415364D02*
X57922438Y48510602D01*
X57922438Y48510602D02*
X57970057Y48558221D01*
X57970057Y48558221D02*
X58065295Y48605840D01*
X58065295Y48605840D02*
X58160533Y48605840D01*
X58160533Y48605840D02*
X58303390Y48558221D01*
X58303390Y48558221D02*
X58874819Y47986793D01*
X58874819Y47986793D02*
X58874819Y48605840D01*
X55334819Y47986793D02*
X55334819Y48605840D01*
X55334819Y48605840D02*
X55715771Y48272507D01*
X55715771Y48272507D02*
X55715771Y48415364D01*
X55715771Y48415364D02*
X55763390Y48510602D01*
X55763390Y48510602D02*
X55811009Y48558221D01*
X55811009Y48558221D02*
X55906247Y48605840D01*
X55906247Y48605840D02*
X56144342Y48605840D01*
X56144342Y48605840D02*
X56239580Y48558221D01*
X56239580Y48558221D02*
X56287200Y48510602D01*
X56287200Y48510602D02*
X56334819Y48415364D01*
X56334819Y48415364D02*
X56334819Y48129650D01*
X56334819Y48129650D02*
X56287200Y48034412D01*
X56287200Y48034412D02*
X56239580Y47986793D01*
X50254819Y48558221D02*
X50254819Y48082031D01*
X50254819Y48082031D02*
X50731009Y48034412D01*
X50731009Y48034412D02*
X50683390Y48082031D01*
X50683390Y48082031D02*
X50635771Y48177269D01*
X50635771Y48177269D02*
X50635771Y48415364D01*
X50635771Y48415364D02*
X50683390Y48510602D01*
X50683390Y48510602D02*
X50731009Y48558221D01*
X50731009Y48558221D02*
X50826247Y48605840D01*
X50826247Y48605840D02*
X51064342Y48605840D01*
X51064342Y48605840D02*
X51159580Y48558221D01*
X51159580Y48558221D02*
X51207200Y48510602D01*
X51207200Y48510602D02*
X51254819Y48415364D01*
X51254819Y48415364D02*
X51254819Y48177269D01*
X51254819Y48177269D02*
X51207200Y48082031D01*
X51207200Y48082031D02*
X51159580Y48034412D01*
X63954819Y45462983D02*
X63478628Y45129650D01*
X63954819Y44891555D02*
X62954819Y44891555D01*
X62954819Y44891555D02*
X62954819Y45272507D01*
X62954819Y45272507D02*
X63002438Y45367745D01*
X63002438Y45367745D02*
X63050057Y45415364D01*
X63050057Y45415364D02*
X63145295Y45462983D01*
X63145295Y45462983D02*
X63288152Y45462983D01*
X63288152Y45462983D02*
X63383390Y45415364D01*
X63383390Y45415364D02*
X63431009Y45367745D01*
X63431009Y45367745D02*
X63478628Y45272507D01*
X63478628Y45272507D02*
X63478628Y44891555D01*
X62954819Y45796317D02*
X63954819Y46462983D01*
X62954819Y46462983D02*
X63954819Y45796317D01*
X63573866Y47605840D02*
X63573866Y46843936D01*
X63764342Y47034412D02*
X63573866Y46843936D01*
X63573866Y46843936D02*
X63383390Y47034412D01*
X62954819Y48272507D02*
X62954819Y48367745D01*
X62954819Y48367745D02*
X63002438Y48462983D01*
X63002438Y48462983D02*
X63050057Y48510602D01*
X63050057Y48510602D02*
X63145295Y48558221D01*
X63145295Y48558221D02*
X63335771Y48605840D01*
X63335771Y48605840D02*
X63573866Y48605840D01*
X63573866Y48605840D02*
X63764342Y48558221D01*
X63764342Y48558221D02*
X63859580Y48510602D01*
X63859580Y48510602D02*
X63907200Y48462983D01*
X63907200Y48462983D02*
X63954819Y48367745D01*
X63954819Y48367745D02*
X63954819Y48272507D01*
X63954819Y48272507D02*
X63907200Y48177269D01*
X63907200Y48177269D02*
X63859580Y48129650D01*
X63859580Y48129650D02*
X63764342Y48082031D01*
X63764342Y48082031D02*
X63573866Y48034412D01*
X63573866Y48034412D02*
X63335771Y48034412D01*
X63335771Y48034412D02*
X63145295Y48082031D01*
X63145295Y48082031D02*
X63050057Y48129650D01*
X63050057Y48129650D02*
X63002438Y48177269D01*
X63002438Y48177269D02*
X62954819Y48272507D01*
X47714819Y48510602D02*
X47714819Y48320126D01*
X47714819Y48320126D02*
X47762438Y48224888D01*
X47762438Y48224888D02*
X47810057Y48177269D01*
X47810057Y48177269D02*
X47952914Y48082031D01*
X47952914Y48082031D02*
X48143390Y48034412D01*
X48143390Y48034412D02*
X48524342Y48034412D01*
X48524342Y48034412D02*
X48619580Y48082031D01*
X48619580Y48082031D02*
X48667200Y48129650D01*
X48667200Y48129650D02*
X48714819Y48224888D01*
X48714819Y48224888D02*
X48714819Y48415364D01*
X48714819Y48415364D02*
X48667200Y48510602D01*
X48667200Y48510602D02*
X48619580Y48558221D01*
X48619580Y48558221D02*
X48524342Y48605840D01*
X48524342Y48605840D02*
X48286247Y48605840D01*
X48286247Y48605840D02*
X48191009Y48558221D01*
X48191009Y48558221D02*
X48143390Y48510602D01*
X48143390Y48510602D02*
X48095771Y48415364D01*
X48095771Y48415364D02*
X48095771Y48224888D01*
X48095771Y48224888D02*
X48143390Y48129650D01*
X48143390Y48129650D02*
X48191009Y48082031D01*
X48191009Y48082031D02*
X48286247Y48034412D01*
X63415810Y32550181D02*
X63415810Y33550181D01*
X64463428Y32645420D02*
X64415809Y32597800D01*
X64415809Y32597800D02*
X64272952Y32550181D01*
X64272952Y32550181D02*
X64177714Y32550181D01*
X64177714Y32550181D02*
X64034857Y32597800D01*
X64034857Y32597800D02*
X63939619Y32693039D01*
X63939619Y32693039D02*
X63892000Y32788277D01*
X63892000Y32788277D02*
X63844381Y32978753D01*
X63844381Y32978753D02*
X63844381Y33121610D01*
X63844381Y33121610D02*
X63892000Y33312086D01*
X63892000Y33312086D02*
X63939619Y33407324D01*
X63939619Y33407324D02*
X64034857Y33502562D01*
X64034857Y33502562D02*
X64177714Y33550181D01*
X64177714Y33550181D02*
X64272952Y33550181D01*
X64272952Y33550181D02*
X64415809Y33502562D01*
X64415809Y33502562D02*
X64463428Y33454943D01*
X64844381Y32597800D02*
X64987238Y32550181D01*
X64987238Y32550181D02*
X65225333Y32550181D01*
X65225333Y32550181D02*
X65320571Y32597800D01*
X65320571Y32597800D02*
X65368190Y32645420D01*
X65368190Y32645420D02*
X65415809Y32740658D01*
X65415809Y32740658D02*
X65415809Y32835896D01*
X65415809Y32835896D02*
X65368190Y32931134D01*
X65368190Y32931134D02*
X65320571Y32978753D01*
X65320571Y32978753D02*
X65225333Y33026372D01*
X65225333Y33026372D02*
X65034857Y33073991D01*
X65034857Y33073991D02*
X64939619Y33121610D01*
X64939619Y33121610D02*
X64892000Y33169229D01*
X64892000Y33169229D02*
X64844381Y33264467D01*
X64844381Y33264467D02*
X64844381Y33359705D01*
X64844381Y33359705D02*
X64892000Y33454943D01*
X64892000Y33454943D02*
X64939619Y33502562D01*
X64939619Y33502562D02*
X65034857Y33550181D01*
X65034857Y33550181D02*
X65272952Y33550181D01*
X65272952Y33550181D02*
X65415809Y33502562D01*
X65844381Y32550181D02*
X65844381Y33550181D01*
X65844381Y33550181D02*
X66225333Y33550181D01*
X66225333Y33550181D02*
X66320571Y33502562D01*
X66320571Y33502562D02*
X66368190Y33454943D01*
X66368190Y33454943D02*
X66415809Y33359705D01*
X66415809Y33359705D02*
X66415809Y33216848D01*
X66415809Y33216848D02*
X66368190Y33121610D01*
X66368190Y33121610D02*
X66320571Y33073991D01*
X66320571Y33073991D02*
X66225333Y33026372D01*
X66225333Y33026372D02*
X65844381Y33026372D01*
X4264819Y38829650D02*
X3264819Y38829650D01*
X3264819Y38829650D02*
X3264819Y39067745D01*
X3264819Y39067745D02*
X3312438Y39210602D01*
X3312438Y39210602D02*
X3407676Y39305840D01*
X3407676Y39305840D02*
X3502914Y39353459D01*
X3502914Y39353459D02*
X3693390Y39401078D01*
X3693390Y39401078D02*
X3836247Y39401078D01*
X3836247Y39401078D02*
X4026723Y39353459D01*
X4026723Y39353459D02*
X4121961Y39305840D01*
X4121961Y39305840D02*
X4217200Y39210602D01*
X4217200Y39210602D02*
X4264819Y39067745D01*
X4264819Y39067745D02*
X4264819Y38829650D01*
X4264819Y40353459D02*
X4264819Y39782031D01*
X4264819Y40067745D02*
X3264819Y40067745D01*
X3264819Y40067745D02*
X3407676Y39972507D01*
X3407676Y39972507D02*
X3502914Y39877269D01*
X3502914Y39877269D02*
X3550533Y39782031D01*
X3360057Y40734412D02*
X3312438Y40782031D01*
X3312438Y40782031D02*
X3264819Y40877269D01*
X3264819Y40877269D02*
X3264819Y41115364D01*
X3264819Y41115364D02*
X3312438Y41210602D01*
X3312438Y41210602D02*
X3360057Y41258221D01*
X3360057Y41258221D02*
X3455295Y41305840D01*
X3455295Y41305840D02*
X3550533Y41305840D01*
X3550533Y41305840D02*
X3693390Y41258221D01*
X3693390Y41258221D02*
X4264819Y40686793D01*
X4264819Y40686793D02*
X4264819Y41305840D01*
G36*
X31940547Y41187457D02*
G01*
X32017534Y41148963D01*
X32091648Y41074850D01*
X32129819Y40960337D01*
X32129819Y40809412D01*
X31279819Y40809412D01*
X31279819Y40960337D01*
X31317990Y41074851D01*
X31392103Y41148963D01*
X31469090Y41187457D01*
X31642624Y41230840D01*
X31767013Y41230840D01*
X31940547Y41187457D01*
G37*
G36*
X32422676Y38421317D02*
G01*
X30986962Y38421317D01*
X30986962Y38972507D01*
X31129819Y38972507D01*
X31130379Y38970969D01*
X31133668Y38948790D01*
X31181287Y38805933D01*
X31184074Y38802421D01*
X31184465Y38797954D01*
X31199405Y38776617D01*
X31294643Y38681379D01*
X31296124Y38680689D01*
X31314135Y38667330D01*
X31409373Y38619711D01*
X31412901Y38619305D01*
X31424724Y38614032D01*
X31615200Y38566413D01*
X31618648Y38566774D01*
X31633390Y38564174D01*
X31776247Y38564174D01*
X31779504Y38565360D01*
X31794437Y38566413D01*
X31984913Y38614032D01*
X31987857Y38616021D01*
X32000264Y38619711D01*
X32095502Y38667330D01*
X32096625Y38668517D01*
X32114994Y38681379D01*
X32210233Y38776617D01*
X32212128Y38780682D01*
X32215948Y38783028D01*
X32228351Y38805933D01*
X32275970Y38948789D01*
X32275925Y38950425D01*
X32279819Y38972507D01*
X32279819Y39067745D01*
X32279259Y39069283D01*
X32275970Y39091463D01*
X32228351Y39234319D01*
X32225563Y39237831D01*
X32225173Y39242299D01*
X32210232Y39263636D01*
X32162612Y39311255D01*
X32147774Y39318174D01*
X32135232Y39328698D01*
X32119104Y39331542D01*
X32116116Y39332935D01*
X32114165Y39332413D01*
X32109580Y39333221D01*
X31776247Y39333221D01*
X31757938Y39326558D01*
X31738747Y39323173D01*
X31734396Y39317989D01*
X31728038Y39315674D01*
X31718295Y39298801D01*
X31705770Y39283873D01*
X31704052Y39274131D01*
X31702386Y39271245D01*
X31702964Y39267963D01*
X31701247Y39258221D01*
X31701247Y39067745D01*
X31718794Y39019536D01*
X31763223Y38993884D01*
X31813747Y39002793D01*
X31846724Y39042093D01*
X31851247Y39067745D01*
X31851247Y39183221D01*
X32078514Y39183221D01*
X32091648Y39170088D01*
X32129819Y39055575D01*
X32129819Y38984677D01*
X32091648Y38870165D01*
X32017534Y38796052D01*
X31940547Y38757558D01*
X31767013Y38714174D01*
X31642624Y38714174D01*
X31469090Y38757558D01*
X31392103Y38796051D01*
X31317990Y38870164D01*
X31279819Y38984678D01*
X31279819Y39097659D01*
X31319520Y39177061D01*
X31325385Y39228027D01*
X31297119Y39270840D01*
X31247944Y39285467D01*
X31200873Y39265064D01*
X31185356Y39244143D01*
X31137737Y39148905D01*
X31137224Y39144452D01*
X31134342Y39141016D01*
X31129819Y39115364D01*
X31129819Y38972507D01*
X30986962Y38972507D01*
X30986962Y39699817D01*
X31130958Y39699817D01*
X31134314Y39680784D01*
X31134228Y39661456D01*
X31138662Y39656123D01*
X31139867Y39649293D01*
X31154673Y39636869D01*
X31167030Y39622009D01*
X31173853Y39620775D01*
X31179167Y39616316D01*
X31204819Y39611793D01*
X32204819Y39611793D01*
X32253028Y39629340D01*
X32278680Y39673769D01*
X32269771Y39724293D01*
X32230471Y39757270D01*
X32204819Y39761793D01*
X31487236Y39761793D01*
X32242030Y40193103D01*
X32246511Y40198397D01*
X32253028Y40200768D01*
X32262691Y40217506D01*
X32275181Y40232256D01*
X32275211Y40239191D01*
X32278680Y40245197D01*
X32275323Y40264231D01*
X32275410Y40283558D01*
X32270975Y40288892D01*
X32269771Y40295721D01*
X32254964Y40308146D01*
X32242608Y40323005D01*
X32235784Y40324240D01*
X32230471Y40328698D01*
X32204819Y40333221D01*
X31204819Y40333221D01*
X31156610Y40315674D01*
X31130958Y40271245D01*
X31139867Y40220721D01*
X31179167Y40187744D01*
X31204819Y40183221D01*
X31922402Y40183221D01*
X31167609Y39751911D01*
X31163127Y39746619D01*
X31156610Y39744246D01*
X31146945Y39727507D01*
X31134457Y39712758D01*
X31134426Y39705824D01*
X31130958Y39699817D01*
X30986962Y39699817D01*
X30986962Y40734412D01*
X31129819Y40734412D01*
X31136482Y40716104D01*
X31139867Y40696912D01*
X31145051Y40692562D01*
X31147366Y40686203D01*
X31164239Y40676461D01*
X31179167Y40663935D01*
X31188909Y40662218D01*
X31191795Y40660551D01*
X31195077Y40661130D01*
X31204819Y40659412D01*
X32204819Y40659412D01*
X32223127Y40666076D01*
X32242319Y40669460D01*
X32246669Y40674645D01*
X32253028Y40676959D01*
X32262770Y40693833D01*
X32275296Y40708760D01*
X32277013Y40718503D01*
X32278680Y40721388D01*
X32278101Y40724671D01*
X32279819Y40734412D01*
X32279819Y40972507D01*
X32279259Y40974045D01*
X32275970Y40996225D01*
X32228351Y41139081D01*
X32225564Y41142592D01*
X32225174Y41147060D01*
X32210233Y41168397D01*
X32114994Y41263635D01*
X32113512Y41264326D01*
X32095502Y41277684D01*
X32000264Y41325303D01*
X31996735Y41325710D01*
X31984913Y41330982D01*
X31794437Y41378601D01*
X31790988Y41378241D01*
X31776247Y41380840D01*
X31633390Y41380840D01*
X31630132Y41379655D01*
X31615200Y41378601D01*
X31424724Y41330982D01*
X31421779Y41328994D01*
X31409373Y41325303D01*
X31314135Y41277684D01*
X31313011Y41276498D01*
X31294643Y41263635D01*
X31199405Y41168397D01*
X31197510Y41164334D01*
X31193689Y41161986D01*
X31181287Y41139081D01*
X31133668Y40996224D01*
X31133712Y40994590D01*
X31129819Y40972507D01*
X31129819Y40734412D01*
X30986962Y40734412D01*
X30986962Y41523697D01*
X32422676Y41523697D01*
X32422676Y38421317D01*
G37*
X34744819Y37782030D02*
X34268628Y37448697D01*
X34744819Y37210602D02*
X33744819Y37210602D01*
X33744819Y37210602D02*
X33744819Y37591554D01*
X33744819Y37591554D02*
X33792438Y37686792D01*
X33792438Y37686792D02*
X33840057Y37734411D01*
X33840057Y37734411D02*
X33935295Y37782030D01*
X33935295Y37782030D02*
X34078152Y37782030D01*
X34078152Y37782030D02*
X34173390Y37734411D01*
X34173390Y37734411D02*
X34221009Y37686792D01*
X34221009Y37686792D02*
X34268628Y37591554D01*
X34268628Y37591554D02*
X34268628Y37210602D01*
X34221009Y38210602D02*
X34221009Y38543935D01*
X34744819Y38686792D02*
X34744819Y38210602D01*
X34744819Y38210602D02*
X33744819Y38210602D01*
X33744819Y38210602D02*
X33744819Y38686792D01*
X34697200Y39067745D02*
X34744819Y39210602D01*
X34744819Y39210602D02*
X34744819Y39448697D01*
X34744819Y39448697D02*
X34697200Y39543935D01*
X34697200Y39543935D02*
X34649580Y39591554D01*
X34649580Y39591554D02*
X34554342Y39639173D01*
X34554342Y39639173D02*
X34459104Y39639173D01*
X34459104Y39639173D02*
X34363866Y39591554D01*
X34363866Y39591554D02*
X34316247Y39543935D01*
X34316247Y39543935D02*
X34268628Y39448697D01*
X34268628Y39448697D02*
X34221009Y39258221D01*
X34221009Y39258221D02*
X34173390Y39162983D01*
X34173390Y39162983D02*
X34125771Y39115364D01*
X34125771Y39115364D02*
X34030533Y39067745D01*
X34030533Y39067745D02*
X33935295Y39067745D01*
X33935295Y39067745D02*
X33840057Y39115364D01*
X33840057Y39115364D02*
X33792438Y39162983D01*
X33792438Y39162983D02*
X33744819Y39258221D01*
X33744819Y39258221D02*
X33744819Y39496316D01*
X33744819Y39496316D02*
X33792438Y39639173D01*
X34221009Y40067745D02*
X34221009Y40401078D01*
X34744819Y40543935D02*
X34744819Y40067745D01*
X34744819Y40067745D02*
X33744819Y40067745D01*
X33744819Y40067745D02*
X33744819Y40543935D01*
X33744819Y40829650D02*
X33744819Y41401078D01*
X34744819Y41115364D02*
X33744819Y41115364D01*
X24584819Y39782031D02*
X23584819Y39782031D01*
X23584819Y39782031D02*
X23584819Y40020126D01*
X23584819Y40020126D02*
X23632438Y40162983D01*
X23632438Y40162983D02*
X23727676Y40258221D01*
X23727676Y40258221D02*
X23822914Y40305840D01*
X23822914Y40305840D02*
X24013390Y40353459D01*
X24013390Y40353459D02*
X24156247Y40353459D01*
X24156247Y40353459D02*
X24346723Y40305840D01*
X24346723Y40305840D02*
X24441961Y40258221D01*
X24441961Y40258221D02*
X24537200Y40162983D01*
X24537200Y40162983D02*
X24584819Y40020126D01*
X24584819Y40020126D02*
X24584819Y39782031D01*
X23918152Y41210602D02*
X24584819Y41210602D01*
X23537200Y40972507D02*
X24251485Y40734412D01*
X24251485Y40734412D02*
X24251485Y41353459D01*
X16964819Y39782031D02*
X15964819Y39782031D01*
X15964819Y39782031D02*
X15964819Y40020126D01*
X15964819Y40020126D02*
X16012438Y40162983D01*
X16012438Y40162983D02*
X16107676Y40258221D01*
X16107676Y40258221D02*
X16202914Y40305840D01*
X16202914Y40305840D02*
X16393390Y40353459D01*
X16393390Y40353459D02*
X16536247Y40353459D01*
X16536247Y40353459D02*
X16726723Y40305840D01*
X16726723Y40305840D02*
X16821961Y40258221D01*
X16821961Y40258221D02*
X16917200Y40162983D01*
X16917200Y40162983D02*
X16964819Y40020126D01*
X16964819Y40020126D02*
X16964819Y39782031D01*
X15964819Y40686793D02*
X15964819Y41353459D01*
X15964819Y41353459D02*
X16964819Y40924888D01*
X9344819Y38829650D02*
X8344819Y38829650D01*
X8344819Y38829650D02*
X8344819Y39067745D01*
X8344819Y39067745D02*
X8392438Y39210602D01*
X8392438Y39210602D02*
X8487676Y39305840D01*
X8487676Y39305840D02*
X8582914Y39353459D01*
X8582914Y39353459D02*
X8773390Y39401078D01*
X8773390Y39401078D02*
X8916247Y39401078D01*
X8916247Y39401078D02*
X9106723Y39353459D01*
X9106723Y39353459D02*
X9201961Y39305840D01*
X9201961Y39305840D02*
X9297200Y39210602D01*
X9297200Y39210602D02*
X9344819Y39067745D01*
X9344819Y39067745D02*
X9344819Y38829650D01*
X9344819Y40353459D02*
X9344819Y39782031D01*
X9344819Y40067745D02*
X8344819Y40067745D01*
X8344819Y40067745D02*
X8487676Y39972507D01*
X8487676Y39972507D02*
X8582914Y39877269D01*
X8582914Y39877269D02*
X8630533Y39782031D01*
X8344819Y40972507D02*
X8344819Y41067745D01*
X8344819Y41067745D02*
X8392438Y41162983D01*
X8392438Y41162983D02*
X8440057Y41210602D01*
X8440057Y41210602D02*
X8535295Y41258221D01*
X8535295Y41258221D02*
X8725771Y41305840D01*
X8725771Y41305840D02*
X8963866Y41305840D01*
X8963866Y41305840D02*
X9154342Y41258221D01*
X9154342Y41258221D02*
X9249580Y41210602D01*
X9249580Y41210602D02*
X9297200Y41162983D01*
X9297200Y41162983D02*
X9344819Y41067745D01*
X9344819Y41067745D02*
X9344819Y40972507D01*
X9344819Y40972507D02*
X9297200Y40877269D01*
X9297200Y40877269D02*
X9249580Y40829650D01*
X9249580Y40829650D02*
X9154342Y40782031D01*
X9154342Y40782031D02*
X8963866Y40734412D01*
X8963866Y40734412D02*
X8725771Y40734412D01*
X8725771Y40734412D02*
X8535295Y40782031D01*
X8535295Y40782031D02*
X8440057Y40829650D01*
X8440057Y40829650D02*
X8392438Y40877269D01*
X8392438Y40877269D02*
X8344819Y40972507D01*
X19504819Y39782031D02*
X18504819Y39782031D01*
X18504819Y39782031D02*
X18504819Y40020126D01*
X18504819Y40020126D02*
X18552438Y40162983D01*
X18552438Y40162983D02*
X18647676Y40258221D01*
X18647676Y40258221D02*
X18742914Y40305840D01*
X18742914Y40305840D02*
X18933390Y40353459D01*
X18933390Y40353459D02*
X19076247Y40353459D01*
X19076247Y40353459D02*
X19266723Y40305840D01*
X19266723Y40305840D02*
X19361961Y40258221D01*
X19361961Y40258221D02*
X19457200Y40162983D01*
X19457200Y40162983D02*
X19504819Y40020126D01*
X19504819Y40020126D02*
X19504819Y39782031D01*
X18504819Y41210602D02*
X18504819Y41020126D01*
X18504819Y41020126D02*
X18552438Y40924888D01*
X18552438Y40924888D02*
X18600057Y40877269D01*
X18600057Y40877269D02*
X18742914Y40782031D01*
X18742914Y40782031D02*
X18933390Y40734412D01*
X18933390Y40734412D02*
X19314342Y40734412D01*
X19314342Y40734412D02*
X19409580Y40782031D01*
X19409580Y40782031D02*
X19457200Y40829650D01*
X19457200Y40829650D02*
X19504819Y40924888D01*
X19504819Y40924888D02*
X19504819Y41115364D01*
X19504819Y41115364D02*
X19457200Y41210602D01*
X19457200Y41210602D02*
X19409580Y41258221D01*
X19409580Y41258221D02*
X19314342Y41305840D01*
X19314342Y41305840D02*
X19076247Y41305840D01*
X19076247Y41305840D02*
X18981009Y41258221D01*
X18981009Y41258221D02*
X18933390Y41210602D01*
X18933390Y41210602D02*
X18885771Y41115364D01*
X18885771Y41115364D02*
X18885771Y40924888D01*
X18885771Y40924888D02*
X18933390Y40829650D01*
X18933390Y40829650D02*
X18981009Y40782031D01*
X18981009Y40782031D02*
X19076247Y40734412D01*
X6804819Y38829650D02*
X5804819Y38829650D01*
X5804819Y38829650D02*
X5804819Y39067745D01*
X5804819Y39067745D02*
X5852438Y39210602D01*
X5852438Y39210602D02*
X5947676Y39305840D01*
X5947676Y39305840D02*
X6042914Y39353459D01*
X6042914Y39353459D02*
X6233390Y39401078D01*
X6233390Y39401078D02*
X6376247Y39401078D01*
X6376247Y39401078D02*
X6566723Y39353459D01*
X6566723Y39353459D02*
X6661961Y39305840D01*
X6661961Y39305840D02*
X6757200Y39210602D01*
X6757200Y39210602D02*
X6804819Y39067745D01*
X6804819Y39067745D02*
X6804819Y38829650D01*
X6804819Y40353459D02*
X6804819Y39782031D01*
X6804819Y40067745D02*
X5804819Y40067745D01*
X5804819Y40067745D02*
X5947676Y39972507D01*
X5947676Y39972507D02*
X6042914Y39877269D01*
X6042914Y39877269D02*
X6090533Y39782031D01*
X6804819Y41305840D02*
X6804819Y40734412D01*
X6804819Y41020126D02*
X5804819Y41020126D01*
X5804819Y41020126D02*
X5947676Y40924888D01*
X5947676Y40924888D02*
X6042914Y40829650D01*
X6042914Y40829650D02*
X6090533Y40734412D01*
X22044819Y39782031D02*
X21044819Y39782031D01*
X21044819Y39782031D02*
X21044819Y40020126D01*
X21044819Y40020126D02*
X21092438Y40162983D01*
X21092438Y40162983D02*
X21187676Y40258221D01*
X21187676Y40258221D02*
X21282914Y40305840D01*
X21282914Y40305840D02*
X21473390Y40353459D01*
X21473390Y40353459D02*
X21616247Y40353459D01*
X21616247Y40353459D02*
X21806723Y40305840D01*
X21806723Y40305840D02*
X21901961Y40258221D01*
X21901961Y40258221D02*
X21997200Y40162983D01*
X21997200Y40162983D02*
X22044819Y40020126D01*
X22044819Y40020126D02*
X22044819Y39782031D01*
X21044819Y41258221D02*
X21044819Y40782031D01*
X21044819Y40782031D02*
X21521009Y40734412D01*
X21521009Y40734412D02*
X21473390Y40782031D01*
X21473390Y40782031D02*
X21425771Y40877269D01*
X21425771Y40877269D02*
X21425771Y41115364D01*
X21425771Y41115364D02*
X21473390Y41210602D01*
X21473390Y41210602D02*
X21521009Y41258221D01*
X21521009Y41258221D02*
X21616247Y41305840D01*
X21616247Y41305840D02*
X21854342Y41305840D01*
X21854342Y41305840D02*
X21949580Y41258221D01*
X21949580Y41258221D02*
X21997200Y41210602D01*
X21997200Y41210602D02*
X22044819Y41115364D01*
X22044819Y41115364D02*
X22044819Y40877269D01*
X22044819Y40877269D02*
X21997200Y40782031D01*
X21997200Y40782031D02*
X21949580Y40734412D01*
X27124819Y39782031D02*
X26124819Y39782031D01*
X26124819Y39782031D02*
X26124819Y40020126D01*
X26124819Y40020126D02*
X26172438Y40162983D01*
X26172438Y40162983D02*
X26267676Y40258221D01*
X26267676Y40258221D02*
X26362914Y40305840D01*
X26362914Y40305840D02*
X26553390Y40353459D01*
X26553390Y40353459D02*
X26696247Y40353459D01*
X26696247Y40353459D02*
X26886723Y40305840D01*
X26886723Y40305840D02*
X26981961Y40258221D01*
X26981961Y40258221D02*
X27077200Y40162983D01*
X27077200Y40162983D02*
X27124819Y40020126D01*
X27124819Y40020126D02*
X27124819Y39782031D01*
X26124819Y40686793D02*
X26124819Y41305840D01*
X26124819Y41305840D02*
X26505771Y40972507D01*
X26505771Y40972507D02*
X26505771Y41115364D01*
X26505771Y41115364D02*
X26553390Y41210602D01*
X26553390Y41210602D02*
X26601009Y41258221D01*
X26601009Y41258221D02*
X26696247Y41305840D01*
X26696247Y41305840D02*
X26934342Y41305840D01*
X26934342Y41305840D02*
X27029580Y41258221D01*
X27029580Y41258221D02*
X27077200Y41210602D01*
X27077200Y41210602D02*
X27124819Y41115364D01*
X27124819Y41115364D02*
X27124819Y40829650D01*
X27124819Y40829650D02*
X27077200Y40734412D01*
X27077200Y40734412D02*
X27029580Y40686793D01*
X11884819Y39782031D02*
X10884819Y39782031D01*
X10884819Y39782031D02*
X10884819Y40020126D01*
X10884819Y40020126D02*
X10932438Y40162983D01*
X10932438Y40162983D02*
X11027676Y40258221D01*
X11027676Y40258221D02*
X11122914Y40305840D01*
X11122914Y40305840D02*
X11313390Y40353459D01*
X11313390Y40353459D02*
X11456247Y40353459D01*
X11456247Y40353459D02*
X11646723Y40305840D01*
X11646723Y40305840D02*
X11741961Y40258221D01*
X11741961Y40258221D02*
X11837200Y40162983D01*
X11837200Y40162983D02*
X11884819Y40020126D01*
X11884819Y40020126D02*
X11884819Y39782031D01*
X11884819Y40829650D02*
X11884819Y41020126D01*
X11884819Y41020126D02*
X11837200Y41115364D01*
X11837200Y41115364D02*
X11789580Y41162983D01*
X11789580Y41162983D02*
X11646723Y41258221D01*
X11646723Y41258221D02*
X11456247Y41305840D01*
X11456247Y41305840D02*
X11075295Y41305840D01*
X11075295Y41305840D02*
X10980057Y41258221D01*
X10980057Y41258221D02*
X10932438Y41210602D01*
X10932438Y41210602D02*
X10884819Y41115364D01*
X10884819Y41115364D02*
X10884819Y40924888D01*
X10884819Y40924888D02*
X10932438Y40829650D01*
X10932438Y40829650D02*
X10980057Y40782031D01*
X10980057Y40782031D02*
X11075295Y40734412D01*
X11075295Y40734412D02*
X11313390Y40734412D01*
X11313390Y40734412D02*
X11408628Y40782031D01*
X11408628Y40782031D02*
X11456247Y40829650D01*
X11456247Y40829650D02*
X11503866Y40924888D01*
X11503866Y40924888D02*
X11503866Y41115364D01*
X11503866Y41115364D02*
X11456247Y41210602D01*
X11456247Y41210602D02*
X11408628Y41258221D01*
X11408628Y41258221D02*
X11313390Y41305840D01*
X14424819Y39782031D02*
X13424819Y39782031D01*
X13424819Y39782031D02*
X13424819Y40020126D01*
X13424819Y40020126D02*
X13472438Y40162983D01*
X13472438Y40162983D02*
X13567676Y40258221D01*
X13567676Y40258221D02*
X13662914Y40305840D01*
X13662914Y40305840D02*
X13853390Y40353459D01*
X13853390Y40353459D02*
X13996247Y40353459D01*
X13996247Y40353459D02*
X14186723Y40305840D01*
X14186723Y40305840D02*
X14281961Y40258221D01*
X14281961Y40258221D02*
X14377200Y40162983D01*
X14377200Y40162983D02*
X14424819Y40020126D01*
X14424819Y40020126D02*
X14424819Y39782031D01*
X13853390Y40924888D02*
X13805771Y40829650D01*
X13805771Y40829650D02*
X13758152Y40782031D01*
X13758152Y40782031D02*
X13662914Y40734412D01*
X13662914Y40734412D02*
X13615295Y40734412D01*
X13615295Y40734412D02*
X13520057Y40782031D01*
X13520057Y40782031D02*
X13472438Y40829650D01*
X13472438Y40829650D02*
X13424819Y40924888D01*
X13424819Y40924888D02*
X13424819Y41115364D01*
X13424819Y41115364D02*
X13472438Y41210602D01*
X13472438Y41210602D02*
X13520057Y41258221D01*
X13520057Y41258221D02*
X13615295Y41305840D01*
X13615295Y41305840D02*
X13662914Y41305840D01*
X13662914Y41305840D02*
X13758152Y41258221D01*
X13758152Y41258221D02*
X13805771Y41210602D01*
X13805771Y41210602D02*
X13853390Y41115364D01*
X13853390Y41115364D02*
X13853390Y40924888D01*
X13853390Y40924888D02*
X13901009Y40829650D01*
X13901009Y40829650D02*
X13948628Y40782031D01*
X13948628Y40782031D02*
X14043866Y40734412D01*
X14043866Y40734412D02*
X14234342Y40734412D01*
X14234342Y40734412D02*
X14329580Y40782031D01*
X14329580Y40782031D02*
X14377200Y40829650D01*
X14377200Y40829650D02*
X14424819Y40924888D01*
X14424819Y40924888D02*
X14424819Y41115364D01*
X14424819Y41115364D02*
X14377200Y41210602D01*
X14377200Y41210602D02*
X14329580Y41258221D01*
X14329580Y41258221D02*
X14234342Y41305840D01*
X14234342Y41305840D02*
X14043866Y41305840D01*
X14043866Y41305840D02*
X13948628Y41258221D01*
X13948628Y41258221D02*
X13901009Y41210602D01*
X13901009Y41210602D02*
X13853390Y41115364D01*
X29664819Y39782031D02*
X28664819Y39782031D01*
X28664819Y39782031D02*
X28664819Y40020126D01*
X28664819Y40020126D02*
X28712438Y40162983D01*
X28712438Y40162983D02*
X28807676Y40258221D01*
X28807676Y40258221D02*
X28902914Y40305840D01*
X28902914Y40305840D02*
X29093390Y40353459D01*
X29093390Y40353459D02*
X29236247Y40353459D01*
X29236247Y40353459D02*
X29426723Y40305840D01*
X29426723Y40305840D02*
X29521961Y40258221D01*
X29521961Y40258221D02*
X29617200Y40162983D01*
X29617200Y40162983D02*
X29664819Y40020126D01*
X29664819Y40020126D02*
X29664819Y39782031D01*
X28760057Y40734412D02*
X28712438Y40782031D01*
X28712438Y40782031D02*
X28664819Y40877269D01*
X28664819Y40877269D02*
X28664819Y41115364D01*
X28664819Y41115364D02*
X28712438Y41210602D01*
X28712438Y41210602D02*
X28760057Y41258221D01*
X28760057Y41258221D02*
X28855295Y41305840D01*
X28855295Y41305840D02*
X28950533Y41305840D01*
X28950533Y41305840D02*
X29093390Y41258221D01*
X29093390Y41258221D02*
X29664819Y40686793D01*
X29664819Y40686793D02*
X29664819Y41305840D01*
X37284819Y39401078D02*
X36808628Y39067745D01*
X37284819Y38829650D02*
X36284819Y38829650D01*
X36284819Y38829650D02*
X36284819Y39210602D01*
X36284819Y39210602D02*
X36332438Y39305840D01*
X36332438Y39305840D02*
X36380057Y39353459D01*
X36380057Y39353459D02*
X36475295Y39401078D01*
X36475295Y39401078D02*
X36618152Y39401078D01*
X36618152Y39401078D02*
X36713390Y39353459D01*
X36713390Y39353459D02*
X36761009Y39305840D01*
X36761009Y39305840D02*
X36808628Y39210602D01*
X36808628Y39210602D02*
X36808628Y38829650D01*
X36284819Y39734412D02*
X37284819Y40401078D01*
X36284819Y40401078D02*
X37284819Y39734412D01*
X36284819Y40972507D02*
X36284819Y41067745D01*
X36284819Y41067745D02*
X36332438Y41162983D01*
X36332438Y41162983D02*
X36380057Y41210602D01*
X36380057Y41210602D02*
X36475295Y41258221D01*
X36475295Y41258221D02*
X36665771Y41305840D01*
X36665771Y41305840D02*
X36903866Y41305840D01*
X36903866Y41305840D02*
X37094342Y41258221D01*
X37094342Y41258221D02*
X37189580Y41210602D01*
X37189580Y41210602D02*
X37237200Y41162983D01*
X37237200Y41162983D02*
X37284819Y41067745D01*
X37284819Y41067745D02*
X37284819Y40972507D01*
X37284819Y40972507D02*
X37237200Y40877269D01*
X37237200Y40877269D02*
X37189580Y40829650D01*
X37189580Y40829650D02*
X37094342Y40782031D01*
X37094342Y40782031D02*
X36903866Y40734412D01*
X36903866Y40734412D02*
X36665771Y40734412D01*
X36665771Y40734412D02*
X36475295Y40782031D01*
X36475295Y40782031D02*
X36380057Y40829650D01*
X36380057Y40829650D02*
X36332438Y40877269D01*
X36332438Y40877269D02*
X36284819Y40972507D01*
X38824819Y38924888D02*
X38824819Y39496316D01*
X39824819Y39210602D02*
X38824819Y39210602D01*
X38824819Y39734412D02*
X39824819Y40401078D01*
X38824819Y40401078D02*
X39824819Y39734412D01*
X39824819Y41305840D02*
X39824819Y40734412D01*
X39824819Y41020126D02*
X38824819Y41020126D01*
X38824819Y41020126D02*
X38967676Y40924888D01*
X38967676Y40924888D02*
X39062914Y40829650D01*
X39062914Y40829650D02*
X39110533Y40734412D01*
X4264819Y30501780D02*
X3264819Y30501780D01*
X3264819Y30501780D02*
X3264819Y30739875D01*
X3264819Y30739875D02*
X3312438Y30882732D01*
X3312438Y30882732D02*
X3407676Y30977970D01*
X3407676Y30977970D02*
X3502914Y31025589D01*
X3502914Y31025589D02*
X3693390Y31073208D01*
X3693390Y31073208D02*
X3836247Y31073208D01*
X3836247Y31073208D02*
X4026723Y31025589D01*
X4026723Y31025589D02*
X4121961Y30977970D01*
X4121961Y30977970D02*
X4217200Y30882732D01*
X4217200Y30882732D02*
X4264819Y30739875D01*
X4264819Y30739875D02*
X4264819Y30501780D01*
X4264819Y32025589D02*
X4264819Y31454161D01*
X4264819Y31739875D02*
X3264819Y31739875D01*
X3264819Y31739875D02*
X3407676Y31644637D01*
X3407676Y31644637D02*
X3502914Y31549399D01*
X3502914Y31549399D02*
X3550533Y31454161D01*
X3264819Y32358923D02*
X3264819Y32977970D01*
X3264819Y32977970D02*
X3645771Y32644637D01*
X3645771Y32644637D02*
X3645771Y32787494D01*
X3645771Y32787494D02*
X3693390Y32882732D01*
X3693390Y32882732D02*
X3741009Y32930351D01*
X3741009Y32930351D02*
X3836247Y32977970D01*
X3836247Y32977970D02*
X4074342Y32977970D01*
X4074342Y32977970D02*
X4169580Y32930351D01*
X4169580Y32930351D02*
X4217200Y32882732D01*
X4217200Y32882732D02*
X4264819Y32787494D01*
X4264819Y32787494D02*
X4264819Y32501780D01*
X4264819Y32501780D02*
X4217200Y32406542D01*
X4217200Y32406542D02*
X4169580Y32358923D01*
X19219104Y30454161D02*
X19219104Y30930351D01*
X19504819Y30358923D02*
X18504819Y30692256D01*
X18504819Y30692256D02*
X19504819Y31025589D01*
X18504819Y31263685D02*
X18504819Y31882732D01*
X18504819Y31882732D02*
X18885771Y31549399D01*
X18885771Y31549399D02*
X18885771Y31692256D01*
X18885771Y31692256D02*
X18933390Y31787494D01*
X18933390Y31787494D02*
X18981009Y31835113D01*
X18981009Y31835113D02*
X19076247Y31882732D01*
X19076247Y31882732D02*
X19314342Y31882732D01*
X19314342Y31882732D02*
X19409580Y31835113D01*
X19409580Y31835113D02*
X19457200Y31787494D01*
X19457200Y31787494D02*
X19504819Y31692256D01*
X19504819Y31692256D02*
X19504819Y31406542D01*
X19504819Y31406542D02*
X19457200Y31311304D01*
X19457200Y31311304D02*
X19409580Y31263685D01*
X14139104Y30454161D02*
X14139104Y30930351D01*
X14424819Y30358923D02*
X13424819Y30692256D01*
X13424819Y30692256D02*
X14424819Y31025589D01*
X14424819Y31882732D02*
X14424819Y31311304D01*
X14424819Y31597018D02*
X13424819Y31597018D01*
X13424819Y31597018D02*
X13567676Y31501780D01*
X13567676Y31501780D02*
X13662914Y31406542D01*
X13662914Y31406542D02*
X13710533Y31311304D01*
X29379104Y30454161D02*
X29379104Y30930351D01*
X29664819Y30358923D02*
X28664819Y30692256D01*
X28664819Y30692256D02*
X29664819Y31025589D01*
X28664819Y31263685D02*
X28664819Y31930351D01*
X28664819Y31930351D02*
X29664819Y31501780D01*
X5804819Y30406542D02*
X5804819Y31025589D01*
X5804819Y31025589D02*
X6185771Y30692256D01*
X6185771Y30692256D02*
X6185771Y30835113D01*
X6185771Y30835113D02*
X6233390Y30930351D01*
X6233390Y30930351D02*
X6281009Y30977970D01*
X6281009Y30977970D02*
X6376247Y31025589D01*
X6376247Y31025589D02*
X6614342Y31025589D01*
X6614342Y31025589D02*
X6709580Y30977970D01*
X6709580Y30977970D02*
X6757200Y30930351D01*
X6757200Y30930351D02*
X6804819Y30835113D01*
X6804819Y30835113D02*
X6804819Y30549399D01*
X6804819Y30549399D02*
X6757200Y30454161D01*
X6757200Y30454161D02*
X6709580Y30406542D01*
X6709580Y31454161D02*
X6757200Y31501780D01*
X6757200Y31501780D02*
X6804819Y31454161D01*
X6804819Y31454161D02*
X6757200Y31406542D01*
X6757200Y31406542D02*
X6709580Y31454161D01*
X6709580Y31454161D02*
X6804819Y31454161D01*
X5804819Y31835113D02*
X5804819Y32454160D01*
X5804819Y32454160D02*
X6185771Y32120827D01*
X6185771Y32120827D02*
X6185771Y32263684D01*
X6185771Y32263684D02*
X6233390Y32358922D01*
X6233390Y32358922D02*
X6281009Y32406541D01*
X6281009Y32406541D02*
X6376247Y32454160D01*
X6376247Y32454160D02*
X6614342Y32454160D01*
X6614342Y32454160D02*
X6709580Y32406541D01*
X6709580Y32406541D02*
X6757200Y32358922D01*
X6757200Y32358922D02*
X6804819Y32263684D01*
X6804819Y32263684D02*
X6804819Y31977970D01*
X6804819Y31977970D02*
X6757200Y31882732D01*
X6757200Y31882732D02*
X6709580Y31835113D01*
X5804819Y32739875D02*
X6804819Y33073208D01*
X6804819Y33073208D02*
X5804819Y33406541D01*
G36*
X37020547Y33002444D02*
G01*
X37097534Y32963950D01*
X37171648Y32889837D01*
X37209819Y32775324D01*
X37209819Y32624399D01*
X36359819Y32624399D01*
X36359819Y32775324D01*
X36397990Y32889838D01*
X36472103Y32963950D01*
X36549090Y33002444D01*
X36722624Y33045827D01*
X36847013Y33045827D01*
X37020547Y33002444D01*
G37*
G36*
X37502676Y30236304D02*
G01*
X36066962Y30236304D01*
X36066962Y30787494D01*
X36209819Y30787494D01*
X36210379Y30785956D01*
X36213668Y30763777D01*
X36261287Y30620920D01*
X36264074Y30617408D01*
X36264465Y30612941D01*
X36279405Y30591604D01*
X36374643Y30496366D01*
X36376124Y30495676D01*
X36394135Y30482317D01*
X36489373Y30434698D01*
X36492901Y30434292D01*
X36504724Y30429019D01*
X36695200Y30381400D01*
X36698648Y30381761D01*
X36713390Y30379161D01*
X36856247Y30379161D01*
X36859504Y30380347D01*
X36874437Y30381400D01*
X37064913Y30429019D01*
X37067857Y30431008D01*
X37080264Y30434698D01*
X37175502Y30482317D01*
X37176625Y30483504D01*
X37194994Y30496366D01*
X37290233Y30591604D01*
X37292128Y30595669D01*
X37295948Y30598015D01*
X37308351Y30620920D01*
X37355970Y30763776D01*
X37355925Y30765412D01*
X37359819Y30787494D01*
X37359819Y30882732D01*
X37359259Y30884270D01*
X37355970Y30906450D01*
X37308351Y31049306D01*
X37305563Y31052818D01*
X37305173Y31057286D01*
X37290232Y31078623D01*
X37242612Y31126242D01*
X37227774Y31133161D01*
X37215232Y31143685D01*
X37199104Y31146529D01*
X37196116Y31147922D01*
X37194165Y31147400D01*
X37189580Y31148208D01*
X36856247Y31148208D01*
X36837938Y31141545D01*
X36818747Y31138160D01*
X36814396Y31132976D01*
X36808038Y31130661D01*
X36798295Y31113788D01*
X36785770Y31098860D01*
X36784052Y31089118D01*
X36782386Y31086232D01*
X36782964Y31082950D01*
X36781247Y31073208D01*
X36781247Y30882732D01*
X36798794Y30834523D01*
X36843223Y30808871D01*
X36893747Y30817780D01*
X36926724Y30857080D01*
X36931247Y30882732D01*
X36931247Y30998208D01*
X37158514Y30998208D01*
X37171648Y30985075D01*
X37209819Y30870562D01*
X37209819Y30799664D01*
X37171648Y30685152D01*
X37097534Y30611039D01*
X37020547Y30572545D01*
X36847013Y30529161D01*
X36722624Y30529161D01*
X36549090Y30572545D01*
X36472103Y30611038D01*
X36397990Y30685151D01*
X36359819Y30799665D01*
X36359819Y30912646D01*
X36399520Y30992048D01*
X36405385Y31043014D01*
X36377119Y31085827D01*
X36327944Y31100454D01*
X36280873Y31080051D01*
X36265356Y31059130D01*
X36217737Y30963892D01*
X36217224Y30959439D01*
X36214342Y30956003D01*
X36209819Y30930351D01*
X36209819Y30787494D01*
X36066962Y30787494D01*
X36066962Y31514804D01*
X36210958Y31514804D01*
X36214314Y31495771D01*
X36214228Y31476443D01*
X36218662Y31471110D01*
X36219867Y31464280D01*
X36234673Y31451856D01*
X36247030Y31436996D01*
X36253853Y31435762D01*
X36259167Y31431303D01*
X36284819Y31426780D01*
X37284819Y31426780D01*
X37333028Y31444327D01*
X37358680Y31488756D01*
X37349771Y31539280D01*
X37310471Y31572257D01*
X37284819Y31576780D01*
X36567236Y31576780D01*
X37322030Y32008090D01*
X37326511Y32013384D01*
X37333028Y32015755D01*
X37342691Y32032493D01*
X37355181Y32047243D01*
X37355211Y32054178D01*
X37358680Y32060184D01*
X37355323Y32079218D01*
X37355410Y32098545D01*
X37350975Y32103879D01*
X37349771Y32110708D01*
X37334964Y32123133D01*
X37322608Y32137992D01*
X37315784Y32139227D01*
X37310471Y32143685D01*
X37284819Y32148208D01*
X36284819Y32148208D01*
X36236610Y32130661D01*
X36210958Y32086232D01*
X36219867Y32035708D01*
X36259167Y32002731D01*
X36284819Y31998208D01*
X37002402Y31998208D01*
X36247609Y31566898D01*
X36243127Y31561606D01*
X36236610Y31559233D01*
X36226945Y31542494D01*
X36214457Y31527745D01*
X36214426Y31520811D01*
X36210958Y31514804D01*
X36066962Y31514804D01*
X36066962Y32549399D01*
X36209819Y32549399D01*
X36216482Y32531091D01*
X36219867Y32511899D01*
X36225051Y32507549D01*
X36227366Y32501190D01*
X36244239Y32491448D01*
X36259167Y32478922D01*
X36268909Y32477205D01*
X36271795Y32475538D01*
X36275077Y32476117D01*
X36284819Y32474399D01*
X37284819Y32474399D01*
X37303127Y32481063D01*
X37322319Y32484447D01*
X37326669Y32489632D01*
X37333028Y32491946D01*
X37342770Y32508820D01*
X37355296Y32523747D01*
X37357013Y32533490D01*
X37358680Y32536375D01*
X37358101Y32539658D01*
X37359819Y32549399D01*
X37359819Y32787494D01*
X37359259Y32789032D01*
X37355970Y32811212D01*
X37308351Y32954068D01*
X37305564Y32957579D01*
X37305174Y32962047D01*
X37290233Y32983384D01*
X37194994Y33078622D01*
X37193512Y33079313D01*
X37175502Y33092671D01*
X37080264Y33140290D01*
X37076735Y33140697D01*
X37064913Y33145969D01*
X36874437Y33193588D01*
X36870988Y33193228D01*
X36856247Y33195827D01*
X36713390Y33195827D01*
X36710132Y33194642D01*
X36695200Y33193588D01*
X36504724Y33145969D01*
X36501779Y33143981D01*
X36489373Y33140290D01*
X36394135Y33092671D01*
X36393011Y33091485D01*
X36374643Y33078622D01*
X36279405Y32983384D01*
X36277510Y32979321D01*
X36273689Y32976973D01*
X36261287Y32954068D01*
X36213668Y32811211D01*
X36213712Y32809577D01*
X36209819Y32787494D01*
X36209819Y32549399D01*
X36066962Y32549399D01*
X36066962Y33338684D01*
X37502676Y33338684D01*
X37502676Y30236304D01*
G37*
X31204819Y30358923D02*
X32204819Y30692256D01*
X32204819Y30692256D02*
X31204819Y31025589D01*
X31681009Y31692256D02*
X31728628Y31835113D01*
X31728628Y31835113D02*
X31776247Y31882732D01*
X31776247Y31882732D02*
X31871485Y31930351D01*
X31871485Y31930351D02*
X32014342Y31930351D01*
X32014342Y31930351D02*
X32109580Y31882732D01*
X32109580Y31882732D02*
X32157200Y31835113D01*
X32157200Y31835113D02*
X32204819Y31739875D01*
X32204819Y31739875D02*
X32204819Y31358923D01*
X32204819Y31358923D02*
X31204819Y31358923D01*
X31204819Y31358923D02*
X31204819Y31692256D01*
X31204819Y31692256D02*
X31252438Y31787494D01*
X31252438Y31787494D02*
X31300057Y31835113D01*
X31300057Y31835113D02*
X31395295Y31882732D01*
X31395295Y31882732D02*
X31490533Y31882732D01*
X31490533Y31882732D02*
X31585771Y31835113D01*
X31585771Y31835113D02*
X31633390Y31787494D01*
X31633390Y31787494D02*
X31681009Y31692256D01*
X31681009Y31692256D02*
X31681009Y31358923D01*
X31204819Y32358923D02*
X32014342Y32358923D01*
X32014342Y32358923D02*
X32109580Y32406542D01*
X32109580Y32406542D02*
X32157200Y32454161D01*
X32157200Y32454161D02*
X32204819Y32549399D01*
X32204819Y32549399D02*
X32204819Y32739875D01*
X32204819Y32739875D02*
X32157200Y32835113D01*
X32157200Y32835113D02*
X32109580Y32882732D01*
X32109580Y32882732D02*
X32014342Y32930351D01*
X32014342Y32930351D02*
X31204819Y32930351D01*
X32157200Y33358923D02*
X32204819Y33501780D01*
X32204819Y33501780D02*
X32204819Y33739875D01*
X32204819Y33739875D02*
X32157200Y33835113D01*
X32157200Y33835113D02*
X32109580Y33882732D01*
X32109580Y33882732D02*
X32014342Y33930351D01*
X32014342Y33930351D02*
X31919104Y33930351D01*
X31919104Y33930351D02*
X31823866Y33882732D01*
X31823866Y33882732D02*
X31776247Y33835113D01*
X31776247Y33835113D02*
X31728628Y33739875D01*
X31728628Y33739875D02*
X31681009Y33549399D01*
X31681009Y33549399D02*
X31633390Y33454161D01*
X31633390Y33454161D02*
X31585771Y33406542D01*
X31585771Y33406542D02*
X31490533Y33358923D01*
X31490533Y33358923D02*
X31395295Y33358923D01*
X31395295Y33358923D02*
X31300057Y33406542D01*
X31300057Y33406542D02*
X31252438Y33454161D01*
X31252438Y33454161D02*
X31204819Y33549399D01*
X31204819Y33549399D02*
X31204819Y33787494D01*
X31204819Y33787494D02*
X31252438Y33930351D01*
X9059104Y30454161D02*
X9059104Y30930351D01*
X9344819Y30358923D02*
X8344819Y30692256D01*
X8344819Y30692256D02*
X9344819Y31025589D01*
X9344819Y31930351D02*
X8868628Y31597018D01*
X9344819Y31358923D02*
X8344819Y31358923D01*
X8344819Y31358923D02*
X8344819Y31739875D01*
X8344819Y31739875D02*
X8392438Y31835113D01*
X8392438Y31835113D02*
X8440057Y31882732D01*
X8440057Y31882732D02*
X8535295Y31930351D01*
X8535295Y31930351D02*
X8678152Y31930351D01*
X8678152Y31930351D02*
X8773390Y31882732D01*
X8773390Y31882732D02*
X8821009Y31835113D01*
X8821009Y31835113D02*
X8868628Y31739875D01*
X8868628Y31739875D02*
X8868628Y31358923D01*
X8821009Y32358923D02*
X8821009Y32692256D01*
X9344819Y32835113D02*
X9344819Y32358923D01*
X9344819Y32358923D02*
X8344819Y32358923D01*
X8344819Y32358923D02*
X8344819Y32835113D01*
X8821009Y33597018D02*
X8821009Y33263685D01*
X9344819Y33263685D02*
X8344819Y33263685D01*
X8344819Y33263685D02*
X8344819Y33739875D01*
X38824819Y30358923D02*
X39824819Y30692256D01*
X39824819Y30692256D02*
X38824819Y31025589D01*
X39824819Y31358923D02*
X38824819Y31358923D01*
X39824819Y31835113D02*
X38824819Y31835113D01*
X38824819Y31835113D02*
X39824819Y32406541D01*
X39824819Y32406541D02*
X38824819Y32406541D01*
X34221009Y30835113D02*
X34268628Y30977970D01*
X34268628Y30977970D02*
X34316247Y31025589D01*
X34316247Y31025589D02*
X34411485Y31073208D01*
X34411485Y31073208D02*
X34554342Y31073208D01*
X34554342Y31073208D02*
X34649580Y31025589D01*
X34649580Y31025589D02*
X34697200Y30977970D01*
X34697200Y30977970D02*
X34744819Y30882732D01*
X34744819Y30882732D02*
X34744819Y30501780D01*
X34744819Y30501780D02*
X33744819Y30501780D01*
X33744819Y30501780D02*
X33744819Y30835113D01*
X33744819Y30835113D02*
X33792438Y30930351D01*
X33792438Y30930351D02*
X33840057Y30977970D01*
X33840057Y30977970D02*
X33935295Y31025589D01*
X33935295Y31025589D02*
X34030533Y31025589D01*
X34030533Y31025589D02*
X34125771Y30977970D01*
X34125771Y30977970D02*
X34173390Y30930351D01*
X34173390Y30930351D02*
X34221009Y30835113D01*
X34221009Y30835113D02*
X34221009Y30501780D01*
X33744819Y31692256D02*
X33744819Y31882732D01*
X33744819Y31882732D02*
X33792438Y31977970D01*
X33792438Y31977970D02*
X33887676Y32073208D01*
X33887676Y32073208D02*
X34078152Y32120827D01*
X34078152Y32120827D02*
X34411485Y32120827D01*
X34411485Y32120827D02*
X34601961Y32073208D01*
X34601961Y32073208D02*
X34697200Y31977970D01*
X34697200Y31977970D02*
X34744819Y31882732D01*
X34744819Y31882732D02*
X34744819Y31692256D01*
X34744819Y31692256D02*
X34697200Y31597018D01*
X34697200Y31597018D02*
X34601961Y31501780D01*
X34601961Y31501780D02*
X34411485Y31454161D01*
X34411485Y31454161D02*
X34078152Y31454161D01*
X34078152Y31454161D02*
X33887676Y31501780D01*
X33887676Y31501780D02*
X33792438Y31597018D01*
X33792438Y31597018D02*
X33744819Y31692256D01*
X33744819Y32739875D02*
X33744819Y32930351D01*
X33744819Y32930351D02*
X33792438Y33025589D01*
X33792438Y33025589D02*
X33887676Y33120827D01*
X33887676Y33120827D02*
X34078152Y33168446D01*
X34078152Y33168446D02*
X34411485Y33168446D01*
X34411485Y33168446D02*
X34601961Y33120827D01*
X34601961Y33120827D02*
X34697200Y33025589D01*
X34697200Y33025589D02*
X34744819Y32930351D01*
X34744819Y32930351D02*
X34744819Y32739875D01*
X34744819Y32739875D02*
X34697200Y32644637D01*
X34697200Y32644637D02*
X34601961Y32549399D01*
X34601961Y32549399D02*
X34411485Y32501780D01*
X34411485Y32501780D02*
X34078152Y32501780D01*
X34078152Y32501780D02*
X33887676Y32549399D01*
X33887676Y32549399D02*
X33792438Y32644637D01*
X33792438Y32644637D02*
X33744819Y32739875D01*
X33744819Y33454161D02*
X33744819Y34025589D01*
X34744819Y33739875D02*
X33744819Y33739875D01*
X16679104Y30454161D02*
X16679104Y30930351D01*
X16964819Y30358923D02*
X15964819Y30692256D01*
X15964819Y30692256D02*
X16964819Y31025589D01*
X16060057Y31311304D02*
X16012438Y31358923D01*
X16012438Y31358923D02*
X15964819Y31454161D01*
X15964819Y31454161D02*
X15964819Y31692256D01*
X15964819Y31692256D02*
X16012438Y31787494D01*
X16012438Y31787494D02*
X16060057Y31835113D01*
X16060057Y31835113D02*
X16155295Y31882732D01*
X16155295Y31882732D02*
X16250533Y31882732D01*
X16250533Y31882732D02*
X16393390Y31835113D01*
X16393390Y31835113D02*
X16964819Y31263685D01*
X16964819Y31263685D02*
X16964819Y31882732D01*
X24299104Y30454161D02*
X24299104Y30930351D01*
X24584819Y30358923D02*
X23584819Y30692256D01*
X23584819Y30692256D02*
X24584819Y31025589D01*
X23584819Y31835113D02*
X23584819Y31358923D01*
X23584819Y31358923D02*
X24061009Y31311304D01*
X24061009Y31311304D02*
X24013390Y31358923D01*
X24013390Y31358923D02*
X23965771Y31454161D01*
X23965771Y31454161D02*
X23965771Y31692256D01*
X23965771Y31692256D02*
X24013390Y31787494D01*
X24013390Y31787494D02*
X24061009Y31835113D01*
X24061009Y31835113D02*
X24156247Y31882732D01*
X24156247Y31882732D02*
X24394342Y31882732D01*
X24394342Y31882732D02*
X24489580Y31835113D01*
X24489580Y31835113D02*
X24537200Y31787494D01*
X24537200Y31787494D02*
X24584819Y31692256D01*
X24584819Y31692256D02*
X24584819Y31454161D01*
X24584819Y31454161D02*
X24537200Y31358923D01*
X24537200Y31358923D02*
X24489580Y31311304D01*
X11599104Y30454161D02*
X11599104Y30930351D01*
X11884819Y30358923D02*
X10884819Y30692256D01*
X10884819Y30692256D02*
X11884819Y31025589D01*
X10884819Y31549399D02*
X10884819Y31644637D01*
X10884819Y31644637D02*
X10932438Y31739875D01*
X10932438Y31739875D02*
X10980057Y31787494D01*
X10980057Y31787494D02*
X11075295Y31835113D01*
X11075295Y31835113D02*
X11265771Y31882732D01*
X11265771Y31882732D02*
X11503866Y31882732D01*
X11503866Y31882732D02*
X11694342Y31835113D01*
X11694342Y31835113D02*
X11789580Y31787494D01*
X11789580Y31787494D02*
X11837200Y31739875D01*
X11837200Y31739875D02*
X11884819Y31644637D01*
X11884819Y31644637D02*
X11884819Y31549399D01*
X11884819Y31549399D02*
X11837200Y31454161D01*
X11837200Y31454161D02*
X11789580Y31406542D01*
X11789580Y31406542D02*
X11694342Y31358923D01*
X11694342Y31358923D02*
X11503866Y31311304D01*
X11503866Y31311304D02*
X11265771Y31311304D01*
X11265771Y31311304D02*
X11075295Y31358923D01*
X11075295Y31358923D02*
X10980057Y31406542D01*
X10980057Y31406542D02*
X10932438Y31454161D01*
X10932438Y31454161D02*
X10884819Y31549399D01*
X21759104Y30454161D02*
X21759104Y30930351D01*
X22044819Y30358923D02*
X21044819Y30692256D01*
X21044819Y30692256D02*
X22044819Y31025589D01*
X21378152Y31787494D02*
X22044819Y31787494D01*
X20997200Y31549399D02*
X21711485Y31311304D01*
X21711485Y31311304D02*
X21711485Y31930351D01*
X26839104Y30454161D02*
X26839104Y30930351D01*
X27124819Y30358923D02*
X26124819Y30692256D01*
X26124819Y30692256D02*
X27124819Y31025589D01*
X26124819Y31787494D02*
X26124819Y31597018D01*
X26124819Y31597018D02*
X26172438Y31501780D01*
X26172438Y31501780D02*
X26220057Y31454161D01*
X26220057Y31454161D02*
X26362914Y31358923D01*
X26362914Y31358923D02*
X26553390Y31311304D01*
X26553390Y31311304D02*
X26934342Y31311304D01*
X26934342Y31311304D02*
X27029580Y31358923D01*
X27029580Y31358923D02*
X27077200Y31406542D01*
X27077200Y31406542D02*
X27124819Y31501780D01*
X27124819Y31501780D02*
X27124819Y31692256D01*
X27124819Y31692256D02*
X27077200Y31787494D01*
X27077200Y31787494D02*
X27029580Y31835113D01*
X27029580Y31835113D02*
X26934342Y31882732D01*
X26934342Y31882732D02*
X26696247Y31882732D01*
X26696247Y31882732D02*
X26601009Y31835113D01*
X26601009Y31835113D02*
X26553390Y31787494D01*
X26553390Y31787494D02*
X26505771Y31692256D01*
X26505771Y31692256D02*
X26505771Y31501780D01*
X26505771Y31501780D02*
X26553390Y31406542D01*
X26553390Y31406542D02*
X26601009Y31358923D01*
X26601009Y31358923D02*
X26696247Y31311304D01*
X12469819Y47847619D02*
X11993628Y47514286D01*
X12469819Y47276191D02*
X11469819Y47276191D01*
X11469819Y47276191D02*
X11469819Y47657143D01*
X11469819Y47657143D02*
X11517438Y47752381D01*
X11517438Y47752381D02*
X11565057Y47800000D01*
X11565057Y47800000D02*
X11660295Y47847619D01*
X11660295Y47847619D02*
X11803152Y47847619D01*
X11803152Y47847619D02*
X11898390Y47800000D01*
X11898390Y47800000D02*
X11946009Y47752381D01*
X11946009Y47752381D02*
X11993628Y47657143D01*
X11993628Y47657143D02*
X11993628Y47276191D01*
X11946009Y48276191D02*
X11946009Y48609524D01*
X12469819Y48752381D02*
X12469819Y48276191D01*
X12469819Y48276191D02*
X11469819Y48276191D01*
X11469819Y48276191D02*
X11469819Y48752381D01*
X12422200Y49133334D02*
X12469819Y49276191D01*
X12469819Y49276191D02*
X12469819Y49514286D01*
X12469819Y49514286D02*
X12422200Y49609524D01*
X12422200Y49609524D02*
X12374580Y49657143D01*
X12374580Y49657143D02*
X12279342Y49704762D01*
X12279342Y49704762D02*
X12184104Y49704762D01*
X12184104Y49704762D02*
X12088866Y49657143D01*
X12088866Y49657143D02*
X12041247Y49609524D01*
X12041247Y49609524D02*
X11993628Y49514286D01*
X11993628Y49514286D02*
X11946009Y49323810D01*
X11946009Y49323810D02*
X11898390Y49228572D01*
X11898390Y49228572D02*
X11850771Y49180953D01*
X11850771Y49180953D02*
X11755533Y49133334D01*
X11755533Y49133334D02*
X11660295Y49133334D01*
X11660295Y49133334D02*
X11565057Y49180953D01*
X11565057Y49180953D02*
X11517438Y49228572D01*
X11517438Y49228572D02*
X11469819Y49323810D01*
X11469819Y49323810D02*
X11469819Y49561905D01*
X11469819Y49561905D02*
X11517438Y49704762D01*
X11946009Y50133334D02*
X11946009Y50466667D01*
X12469819Y50609524D02*
X12469819Y50133334D01*
X12469819Y50133334D02*
X11469819Y50133334D01*
X11469819Y50133334D02*
X11469819Y50609524D01*
X11469819Y50895239D02*
X11469819Y51466667D01*
X12469819Y51180953D02*
X11469819Y51180953D01*
D12*
%TO.C,J3*%
X26356000Y1210000D02*
X47304000Y1210000D01*
X26356000Y1210000D02*
X26356000Y3870000D01*
X47304000Y1210000D02*
X47304000Y3870000D01*
X26356000Y3870000D02*
X47304000Y3870000D01*
%TO.C,J4*%
X49216000Y1210000D02*
X65084000Y1210000D01*
X49216000Y1210000D02*
X49216000Y3870000D01*
X65084000Y1210000D02*
X65084000Y3870000D01*
X49216000Y3870000D02*
X65084000Y3870000D01*
%TO.C,J2*%
X43240000Y52130000D02*
X17212000Y52130000D01*
X43240000Y52130000D02*
X43240000Y49470000D01*
X17212000Y52130000D02*
X17212000Y49470000D01*
X43240000Y49470000D02*
X17212000Y49470000D01*
%TO.C,J1*%
X65084000Y52130000D02*
X44136000Y52130000D01*
X65084000Y52130000D02*
X65084000Y49470000D01*
X44136000Y52130000D02*
X44136000Y49470000D01*
X65084000Y49470000D02*
X44136000Y49470000D01*
%TO.C,D1*%
X23425000Y6985000D02*
X22405000Y6985000D01*
X22405000Y5515000D02*
X22405000Y8455000D01*
X22405000Y8455000D02*
X16965000Y8455000D01*
X21625000Y5515000D02*
X21625000Y8455000D01*
X21505000Y5515000D02*
X21505000Y8455000D01*
X21385000Y5515000D02*
X21385000Y8455000D01*
X16965000Y5515000D02*
X22405000Y5515000D01*
X16965000Y8455000D02*
X16965000Y5515000D01*
X15945000Y6985000D02*
X16965000Y6985000D01*
%TO.C,C2*%
X26995241Y10861000D02*
X26365241Y10861000D01*
X26680241Y10546000D02*
X26680241Y11176000D01*
X23495000Y9470000D02*
X23495000Y15930000D01*
X23455000Y9470000D02*
X23455000Y15930000D01*
X23415000Y9470000D02*
X23415000Y15930000D01*
X23375000Y9472000D02*
X23375000Y15928000D01*
X23335000Y9473000D02*
X23335000Y15927000D01*
X23295000Y9476000D02*
X23295000Y15924000D01*
X23255000Y9478000D02*
X23255000Y11660000D01*
X23255000Y13740000D02*
X23255000Y15922000D01*
X23215000Y9482000D02*
X23215000Y11660000D01*
X23215000Y13740000D02*
X23215000Y15918000D01*
X23175000Y9485000D02*
X23175000Y11660000D01*
X23175000Y13740000D02*
X23175000Y15915000D01*
X23135000Y9489000D02*
X23135000Y11660000D01*
X23135000Y13740000D02*
X23135000Y15911000D01*
X23095000Y9494000D02*
X23095000Y11660000D01*
X23095000Y13740000D02*
X23095000Y15906000D01*
X23055000Y9499000D02*
X23055000Y11660000D01*
X23055000Y13740000D02*
X23055000Y15901000D01*
X23015000Y9505000D02*
X23015000Y11660000D01*
X23015000Y13740000D02*
X23015000Y15895000D01*
X22975000Y9511000D02*
X22975000Y11660000D01*
X22975000Y13740000D02*
X22975000Y15889000D01*
X22935000Y9518000D02*
X22935000Y11660000D01*
X22935000Y13740000D02*
X22935000Y15882000D01*
X22895000Y9525000D02*
X22895000Y11660000D01*
X22895000Y13740000D02*
X22895000Y15875000D01*
X22855000Y9533000D02*
X22855000Y11660000D01*
X22855000Y13740000D02*
X22855000Y15867000D01*
X22815000Y9541000D02*
X22815000Y11660000D01*
X22815000Y13740000D02*
X22815000Y15859000D01*
X22774000Y9550000D02*
X22774000Y11660000D01*
X22774000Y13740000D02*
X22774000Y15850000D01*
X22734000Y9559000D02*
X22734000Y11660000D01*
X22734000Y13740000D02*
X22734000Y15841000D01*
X22694000Y9569000D02*
X22694000Y11660000D01*
X22694000Y13740000D02*
X22694000Y15831000D01*
X22654000Y9579000D02*
X22654000Y11660000D01*
X22654000Y13740000D02*
X22654000Y15821000D01*
X22614000Y9590000D02*
X22614000Y11660000D01*
X22614000Y13740000D02*
X22614000Y15810000D01*
X22574000Y9602000D02*
X22574000Y11660000D01*
X22574000Y13740000D02*
X22574000Y15798000D01*
X22534000Y9614000D02*
X22534000Y11660000D01*
X22534000Y13740000D02*
X22534000Y15786000D01*
X22494000Y9626000D02*
X22494000Y11660000D01*
X22494000Y13740000D02*
X22494000Y15774000D01*
X22454000Y9639000D02*
X22454000Y11660000D01*
X22454000Y13740000D02*
X22454000Y15761000D01*
X22414000Y9653000D02*
X22414000Y11660000D01*
X22414000Y13740000D02*
X22414000Y15747000D01*
X22374000Y9667000D02*
X22374000Y11660000D01*
X22374000Y13740000D02*
X22374000Y15733000D01*
X22334000Y9682000D02*
X22334000Y11660000D01*
X22334000Y13740000D02*
X22334000Y15718000D01*
X22294000Y9698000D02*
X22294000Y11660000D01*
X22294000Y13740000D02*
X22294000Y15702000D01*
X22254000Y9714000D02*
X22254000Y11660000D01*
X22254000Y13740000D02*
X22254000Y15686000D01*
X22214000Y9730000D02*
X22214000Y11660000D01*
X22214000Y13740000D02*
X22214000Y15670000D01*
X22174000Y9748000D02*
X22174000Y11660000D01*
X22174000Y13740000D02*
X22174000Y15652000D01*
X22134000Y9766000D02*
X22134000Y11660000D01*
X22134000Y13740000D02*
X22134000Y15634000D01*
X22094000Y9784000D02*
X22094000Y11660000D01*
X22094000Y13740000D02*
X22094000Y15616000D01*
X22054000Y9804000D02*
X22054000Y11660000D01*
X22054000Y13740000D02*
X22054000Y15596000D01*
X22014000Y9824000D02*
X22014000Y11660000D01*
X22014000Y13740000D02*
X22014000Y15576000D01*
X21974000Y9844000D02*
X21974000Y11660000D01*
X21974000Y13740000D02*
X21974000Y15556000D01*
X21934000Y9866000D02*
X21934000Y11660000D01*
X21934000Y13740000D02*
X21934000Y15534000D01*
X21894000Y9888000D02*
X21894000Y11660000D01*
X21894000Y13740000D02*
X21894000Y15512000D01*
X21854000Y9910000D02*
X21854000Y11660000D01*
X21854000Y13740000D02*
X21854000Y15490000D01*
X21814000Y9934000D02*
X21814000Y11660000D01*
X21814000Y13740000D02*
X21814000Y15466000D01*
X21774000Y9958000D02*
X21774000Y11660000D01*
X21774000Y13740000D02*
X21774000Y15442000D01*
X21734000Y9984000D02*
X21734000Y11660000D01*
X21734000Y13740000D02*
X21734000Y15416000D01*
X21694000Y10010000D02*
X21694000Y11660000D01*
X21694000Y13740000D02*
X21694000Y15390000D01*
X21654000Y10036000D02*
X21654000Y11660000D01*
X21654000Y13740000D02*
X21654000Y15364000D01*
X21614000Y10064000D02*
X21614000Y11660000D01*
X21614000Y13740000D02*
X21614000Y15336000D01*
X21574000Y10093000D02*
X21574000Y11660000D01*
X21574000Y13740000D02*
X21574000Y15307000D01*
X21534000Y10122000D02*
X21534000Y11660000D01*
X21534000Y13740000D02*
X21534000Y15278000D01*
X21494000Y10152000D02*
X21494000Y11660000D01*
X21494000Y13740000D02*
X21494000Y15248000D01*
X21454000Y10184000D02*
X21454000Y11660000D01*
X21454000Y13740000D02*
X21454000Y15216000D01*
X21414000Y10216000D02*
X21414000Y11660000D01*
X21414000Y13740000D02*
X21414000Y15184000D01*
X21374000Y10250000D02*
X21374000Y11660000D01*
X21374000Y13740000D02*
X21374000Y15150000D01*
X21334000Y10284000D02*
X21334000Y11660000D01*
X21334000Y13740000D02*
X21334000Y15116000D01*
X21294000Y10320000D02*
X21294000Y11660000D01*
X21294000Y13740000D02*
X21294000Y15080000D01*
X21254000Y10357000D02*
X21254000Y11660000D01*
X21254000Y13740000D02*
X21254000Y15043000D01*
X21214000Y10395000D02*
X21214000Y11660000D01*
X21214000Y13740000D02*
X21214000Y15005000D01*
X21174000Y10435000D02*
X21174000Y14965000D01*
X21134000Y10476000D02*
X21134000Y14924000D01*
X21094000Y10518000D02*
X21094000Y14882000D01*
X21054000Y10563000D02*
X21054000Y14837000D01*
X21014000Y10608000D02*
X21014000Y14792000D01*
X20974000Y10656000D02*
X20974000Y14744000D01*
X20934000Y10705000D02*
X20934000Y14695000D01*
X20894000Y10756000D02*
X20894000Y14644000D01*
X20854000Y10810000D02*
X20854000Y14590000D01*
X20814000Y10866000D02*
X20814000Y14534000D01*
X20774000Y10924000D02*
X20774000Y14476000D01*
X20734000Y10986000D02*
X20734000Y14414000D01*
X20694000Y11050000D02*
X20694000Y14350000D01*
X20654000Y11119000D02*
X20654000Y14281000D01*
X20614000Y11191000D02*
X20614000Y14209000D01*
X20574000Y11268000D02*
X20574000Y14132000D01*
X20534000Y11350000D02*
X20534000Y14050000D01*
X20494000Y11438000D02*
X20494000Y13962000D01*
X20454000Y11535000D02*
X20454000Y13865000D01*
X20414000Y11641000D02*
X20414000Y13759000D01*
X20374000Y11760000D02*
X20374000Y13640000D01*
X20334000Y11898000D02*
X20334000Y13502000D01*
X20294000Y12067000D02*
X20294000Y13333000D01*
X20254000Y12298000D02*
X20254000Y13102000D01*
X26765000Y12700000D02*
G75*
G03*
X26765000Y12700000I-3270000J0D01*
G01*
%TO.C,C1*%
X20010241Y10861000D02*
X19380241Y10861000D01*
X19695241Y10546000D02*
X19695241Y11176000D01*
X16510000Y9470000D02*
X16510000Y15930000D01*
X16470000Y9470000D02*
X16470000Y15930000D01*
X16430000Y9470000D02*
X16430000Y15930000D01*
X16390000Y9472000D02*
X16390000Y15928000D01*
X16350000Y9473000D02*
X16350000Y15927000D01*
X16310000Y9476000D02*
X16310000Y15924000D01*
X16270000Y9478000D02*
X16270000Y11660000D01*
X16270000Y13740000D02*
X16270000Y15922000D01*
X16230000Y9482000D02*
X16230000Y11660000D01*
X16230000Y13740000D02*
X16230000Y15918000D01*
X16190000Y9485000D02*
X16190000Y11660000D01*
X16190000Y13740000D02*
X16190000Y15915000D01*
X16150000Y9489000D02*
X16150000Y11660000D01*
X16150000Y13740000D02*
X16150000Y15911000D01*
X16110000Y9494000D02*
X16110000Y11660000D01*
X16110000Y13740000D02*
X16110000Y15906000D01*
X16070000Y9499000D02*
X16070000Y11660000D01*
X16070000Y13740000D02*
X16070000Y15901000D01*
X16030000Y9505000D02*
X16030000Y11660000D01*
X16030000Y13740000D02*
X16030000Y15895000D01*
X15990000Y9511000D02*
X15990000Y11660000D01*
X15990000Y13740000D02*
X15990000Y15889000D01*
X15950000Y9518000D02*
X15950000Y11660000D01*
X15950000Y13740000D02*
X15950000Y15882000D01*
X15910000Y9525000D02*
X15910000Y11660000D01*
X15910000Y13740000D02*
X15910000Y15875000D01*
X15870000Y9533000D02*
X15870000Y11660000D01*
X15870000Y13740000D02*
X15870000Y15867000D01*
X15830000Y9541000D02*
X15830000Y11660000D01*
X15830000Y13740000D02*
X15830000Y15859000D01*
X15789000Y9550000D02*
X15789000Y11660000D01*
X15789000Y13740000D02*
X15789000Y15850000D01*
X15749000Y9559000D02*
X15749000Y11660000D01*
X15749000Y13740000D02*
X15749000Y15841000D01*
X15709000Y9569000D02*
X15709000Y11660000D01*
X15709000Y13740000D02*
X15709000Y15831000D01*
X15669000Y9579000D02*
X15669000Y11660000D01*
X15669000Y13740000D02*
X15669000Y15821000D01*
X15629000Y9590000D02*
X15629000Y11660000D01*
X15629000Y13740000D02*
X15629000Y15810000D01*
X15589000Y9602000D02*
X15589000Y11660000D01*
X15589000Y13740000D02*
X15589000Y15798000D01*
X15549000Y9614000D02*
X15549000Y11660000D01*
X15549000Y13740000D02*
X15549000Y15786000D01*
X15509000Y9626000D02*
X15509000Y11660000D01*
X15509000Y13740000D02*
X15509000Y15774000D01*
X15469000Y9639000D02*
X15469000Y11660000D01*
X15469000Y13740000D02*
X15469000Y15761000D01*
X15429000Y9653000D02*
X15429000Y11660000D01*
X15429000Y13740000D02*
X15429000Y15747000D01*
X15389000Y9667000D02*
X15389000Y11660000D01*
X15389000Y13740000D02*
X15389000Y15733000D01*
X15349000Y9682000D02*
X15349000Y11660000D01*
X15349000Y13740000D02*
X15349000Y15718000D01*
X15309000Y9698000D02*
X15309000Y11660000D01*
X15309000Y13740000D02*
X15309000Y15702000D01*
X15269000Y9714000D02*
X15269000Y11660000D01*
X15269000Y13740000D02*
X15269000Y15686000D01*
X15229000Y9730000D02*
X15229000Y11660000D01*
X15229000Y13740000D02*
X15229000Y15670000D01*
X15189000Y9748000D02*
X15189000Y11660000D01*
X15189000Y13740000D02*
X15189000Y15652000D01*
X15149000Y9766000D02*
X15149000Y11660000D01*
X15149000Y13740000D02*
X15149000Y15634000D01*
X15109000Y9784000D02*
X15109000Y11660000D01*
X15109000Y13740000D02*
X15109000Y15616000D01*
X15069000Y9804000D02*
X15069000Y11660000D01*
X15069000Y13740000D02*
X15069000Y15596000D01*
X15029000Y9824000D02*
X15029000Y11660000D01*
X15029000Y13740000D02*
X15029000Y15576000D01*
X14989000Y9844000D02*
X14989000Y11660000D01*
X14989000Y13740000D02*
X14989000Y15556000D01*
X14949000Y9866000D02*
X14949000Y11660000D01*
X14949000Y13740000D02*
X14949000Y15534000D01*
X14909000Y9888000D02*
X14909000Y11660000D01*
X14909000Y13740000D02*
X14909000Y15512000D01*
X14869000Y9910000D02*
X14869000Y11660000D01*
X14869000Y13740000D02*
X14869000Y15490000D01*
X14829000Y9934000D02*
X14829000Y11660000D01*
X14829000Y13740000D02*
X14829000Y15466000D01*
X14789000Y9958000D02*
X14789000Y11660000D01*
X14789000Y13740000D02*
X14789000Y15442000D01*
X14749000Y9984000D02*
X14749000Y11660000D01*
X14749000Y13740000D02*
X14749000Y15416000D01*
X14709000Y10010000D02*
X14709000Y11660000D01*
X14709000Y13740000D02*
X14709000Y15390000D01*
X14669000Y10036000D02*
X14669000Y11660000D01*
X14669000Y13740000D02*
X14669000Y15364000D01*
X14629000Y10064000D02*
X14629000Y11660000D01*
X14629000Y13740000D02*
X14629000Y15336000D01*
X14589000Y10093000D02*
X14589000Y11660000D01*
X14589000Y13740000D02*
X14589000Y15307000D01*
X14549000Y10122000D02*
X14549000Y11660000D01*
X14549000Y13740000D02*
X14549000Y15278000D01*
X14509000Y10152000D02*
X14509000Y11660000D01*
X14509000Y13740000D02*
X14509000Y15248000D01*
X14469000Y10184000D02*
X14469000Y11660000D01*
X14469000Y13740000D02*
X14469000Y15216000D01*
X14429000Y10216000D02*
X14429000Y11660000D01*
X14429000Y13740000D02*
X14429000Y15184000D01*
X14389000Y10250000D02*
X14389000Y11660000D01*
X14389000Y13740000D02*
X14389000Y15150000D01*
X14349000Y10284000D02*
X14349000Y11660000D01*
X14349000Y13740000D02*
X14349000Y15116000D01*
X14309000Y10320000D02*
X14309000Y11660000D01*
X14309000Y13740000D02*
X14309000Y15080000D01*
X14269000Y10357000D02*
X14269000Y11660000D01*
X14269000Y13740000D02*
X14269000Y15043000D01*
X14229000Y10395000D02*
X14229000Y11660000D01*
X14229000Y13740000D02*
X14229000Y15005000D01*
X14189000Y10435000D02*
X14189000Y14965000D01*
X14149000Y10476000D02*
X14149000Y14924000D01*
X14109000Y10518000D02*
X14109000Y14882000D01*
X14069000Y10563000D02*
X14069000Y14837000D01*
X14029000Y10608000D02*
X14029000Y14792000D01*
X13989000Y10656000D02*
X13989000Y14744000D01*
X13949000Y10705000D02*
X13949000Y14695000D01*
X13909000Y10756000D02*
X13909000Y14644000D01*
X13869000Y10810000D02*
X13869000Y14590000D01*
X13829000Y10866000D02*
X13829000Y14534000D01*
X13789000Y10924000D02*
X13789000Y14476000D01*
X13749000Y10986000D02*
X13749000Y14414000D01*
X13709000Y11050000D02*
X13709000Y14350000D01*
X13669000Y11119000D02*
X13669000Y14281000D01*
X13629000Y11191000D02*
X13629000Y14209000D01*
X13589000Y11268000D02*
X13589000Y14132000D01*
X13549000Y11350000D02*
X13549000Y14050000D01*
X13509000Y11438000D02*
X13509000Y13962000D01*
X13469000Y11535000D02*
X13469000Y13865000D01*
X13429000Y11641000D02*
X13429000Y13759000D01*
X13389000Y11760000D02*
X13389000Y13640000D01*
X13349000Y11898000D02*
X13349000Y13502000D01*
X13309000Y12067000D02*
X13309000Y13333000D01*
X13269000Y12298000D02*
X13269000Y13102000D01*
X19780000Y12700000D02*
G75*
G03*
X19780000Y12700000I-3270000J0D01*
G01*
%TO.C,J7*%
X62292000Y31795000D02*
X62292000Y24055000D01*
X62292000Y31795000D02*
X67492000Y31795000D01*
X62292000Y24055000D02*
X67492000Y24055000D01*
X67492000Y31795000D02*
X67492000Y24055000D01*
%TO.C,J8*%
X11784000Y12402000D02*
X11784000Y9602000D01*
X0Y12402000D02*
X11784000Y12402000D01*
X11784000Y6002000D02*
X11784000Y3202000D01*
X11784000Y3202000D02*
X9784000Y3202000D01*
X6184000Y3202000D02*
X0Y3202000D01*
%TO.C,J5*%
X40954000Y44830000D02*
X2226000Y44830000D01*
X40954000Y44830000D02*
X40954000Y42170000D01*
X2226000Y44830000D02*
X2226000Y42170000D01*
X40954000Y42170000D02*
X2226000Y42170000D01*
%TO.C,J6*%
X2226000Y26930000D02*
X40954000Y26930000D01*
X2226000Y26930000D02*
X2226000Y29590000D01*
X40954000Y26930000D02*
X40954000Y29590000D01*
X2226000Y29590000D02*
X40954000Y29590000D01*
%TO.C,U1*%
X3280000Y13874000D02*
X10950000Y13874000D01*
X3280000Y13874000D02*
X3280000Y25496000D01*
X10950000Y13874000D02*
X10950000Y25496000D01*
X3280000Y25496000D02*
X10950000Y25496000D01*
%TO.C,SW1*%
X2800000Y50050000D02*
X2800000Y48550000D01*
X4050000Y46050000D02*
X8550000Y46050000D01*
X8550000Y52550000D02*
X4050000Y52550000D01*
X9800000Y48550000D02*
X9800000Y50050000D01*
%TD*%
G36*
X68581000Y26655414D02*
G01*
X68581000Y24114586D01*
X68580414Y24114000D01*
X64891586Y24114000D01*
X64891000Y24114586D01*
X64891000Y26655414D01*
X64891586Y26656000D01*
X68580414Y26656000D01*
X68581000Y26655414D01*
G37*
G36*
X38101000Y33975414D02*
G01*
X38101000Y26989586D01*
X38100414Y26989000D01*
X35559586Y26989000D01*
X35559000Y26989586D01*
X35559000Y33327684D01*
X36077962Y33327684D01*
X36077962Y30247304D01*
X37491676Y30247304D01*
X37491676Y33327684D01*
X36077962Y33327684D01*
X35559000Y33327684D01*
X35559000Y33975414D01*
X35559586Y33976000D01*
X38100414Y33976000D01*
X38101000Y33975414D01*
G37*
G36*
X33021000Y44770414D02*
G01*
X33021000Y37784586D01*
X33020414Y37784000D01*
X30479586Y37784000D01*
X30479000Y37784586D01*
X30479000Y41512697D01*
X30997962Y41512697D01*
X30997962Y38432317D01*
X32411676Y38432317D01*
X32411676Y41512697D01*
X30997962Y41512697D01*
X30479000Y41512697D01*
X30479000Y44770414D01*
X30479586Y44771000D01*
X33020414Y44771000D01*
X33021000Y44770414D01*
G37*
G36*
X44451000Y6350414D02*
G01*
X44451000Y-414D01*
X44450414Y-1000D01*
X39369586Y-1000D01*
X39369000Y-414D01*
X39369000Y5782038D01*
X40369810Y5782038D01*
X40369810Y4368324D01*
X43450190Y4368324D01*
X43450190Y5782038D01*
X40369810Y5782038D01*
X39369000Y5782038D01*
X39369000Y6350414D01*
X39369586Y6351000D01*
X44450414Y6351000D01*
X44451000Y6350414D01*
G37*
G36*
X57151000Y21590414D02*
G01*
X57151000Y17779586D01*
X57150414Y17779000D01*
X39369586Y17779000D01*
X39369000Y17779586D01*
X39369000Y20824344D01*
X42224841Y20824344D01*
X42224841Y18681200D01*
X54362464Y18681200D01*
X54362464Y20824344D01*
X42224841Y20824344D01*
X39369000Y20824344D01*
X39369000Y21590414D01*
X39369586Y21591000D01*
X57150414Y21591000D01*
X57151000Y21590414D01*
G37*
G36*
X27687000Y53340414D02*
G01*
X27687000Y45084586D01*
X27686414Y45084000D01*
X25145586Y45084000D01*
X25145000Y45084586D01*
X25145000Y48812697D01*
X25663962Y48812697D01*
X25663962Y45732317D01*
X27077676Y45732317D01*
X27077676Y48812697D01*
X25663962Y48812697D01*
X25145000Y48812697D01*
X25145000Y53340414D01*
X25145586Y53341000D01*
X27686414Y53341000D01*
X27687000Y53340414D01*
G37*
%LPC*%
D13*
%TO.C,J3*%
X27940000Y2540000D03*
X30480000Y2540000D03*
X33020000Y2540000D03*
X35560000Y2540000D03*
X38100000Y2540000D03*
X40640000Y2540000D03*
X43180000Y2540000D03*
X45720000Y2540000D03*
%TD*%
%TO.C,J4*%
X50800000Y2540000D03*
X53340000Y2540000D03*
X55880000Y2540000D03*
X58420000Y2540000D03*
X60960000Y2540000D03*
X63500000Y2540000D03*
%TD*%
%TO.C,J2*%
X41656000Y50800000D03*
X39116000Y50800000D03*
X36576000Y50800000D03*
X34036000Y50800000D03*
X31496000Y50800000D03*
X28956000Y50800000D03*
X26416000Y50800000D03*
X23876000Y50800000D03*
X21336000Y50800000D03*
X18796000Y50800000D03*
%TD*%
%TO.C,J1*%
X63500000Y50800000D03*
X60960000Y50800000D03*
X58420000Y50800000D03*
X55880000Y50800000D03*
X53340000Y50800000D03*
X50800000Y50800000D03*
X48260000Y50800000D03*
X45720000Y50800000D03*
%TD*%
D14*
%TO.C,D1*%
X24765000Y6985000D03*
D15*
X14605000Y6985000D03*
%TD*%
D16*
%TO.C,C2*%
X24745000Y12700000D03*
D17*
X22245000Y12700000D03*
%TD*%
D16*
%TO.C,C1*%
X17760000Y12700000D03*
D17*
X15260000Y12700000D03*
%TD*%
D18*
%TO.C,MH1*%
X15240000Y50800000D03*
%TD*%
D13*
%TO.C,J7*%
X63622000Y30465000D03*
X66162000Y30465000D03*
X63622000Y27925000D03*
X66162000Y27925000D03*
X63622000Y25385000D03*
X66162000Y25385000D03*
%TD*%
D19*
%TO.C,J8*%
X10984000Y7802000D03*
X4984000Y7802000D03*
X7984000Y3102000D03*
%TD*%
D13*
%TO.C,J5*%
X39370000Y43500000D03*
X36830000Y43500000D03*
X34290000Y43500000D03*
X31750000Y43500000D03*
X29210000Y43500000D03*
X26670000Y43500000D03*
X24130000Y43500000D03*
X21590000Y43500000D03*
X19050000Y43500000D03*
X16510000Y43500000D03*
X13970000Y43500000D03*
X11430000Y43500000D03*
X8890000Y43500000D03*
X6350000Y43500000D03*
X3810000Y43500000D03*
%TD*%
%TO.C,J6*%
X3810000Y28260000D03*
X6350000Y28260000D03*
X8890000Y28260000D03*
X11430000Y28260000D03*
X13970000Y28260000D03*
X16510000Y28260000D03*
X19050000Y28260000D03*
X21590000Y28260000D03*
X24130000Y28260000D03*
X26670000Y28260000D03*
X29210000Y28260000D03*
X31750000Y28260000D03*
X34290000Y28260000D03*
X36830000Y28260000D03*
X39370000Y28260000D03*
%TD*%
D20*
%TO.C,U1*%
X8890000Y17145000D03*
X8890000Y19685000D03*
X8890000Y22225000D03*
%TD*%
D21*
%TO.C,SW1*%
X3050000Y51550000D03*
X9550000Y51550000D03*
X3050000Y47050000D03*
X9550000Y47050000D03*
%TD*%
D18*
%TO.C,MH2*%
X13970000Y2540000D03*
%TD*%
%TO.C,MH3*%
X66040000Y35560000D03*
%TD*%
%TO.C,MH4*%
X66040000Y7620000D03*
%TD*%
%LPD*%
M02*
