%TF.GenerationSoftware,KiCad,Pcbnew,7.0.9*%
%TF.CreationDate,2023-12-16T18:31:18-05:00*%
%TF.ProjectId,Nano2UNO-Adapter-3V3,4e616e6f-3255-44e4-9f2d-416461707465,1.0.0*%
%TF.SameCoordinates,PX6486dd0PY8062360*%
%TF.FileFunction,Copper,L2,Bot*%
%TF.FilePolarity,Positive*%
%FSLAX46Y46*%
G04 Gerber Fmt 4.6, Leading zero omitted, Abs format (unit mm)*
G04 Created by KiCad (PCBNEW 7.0.9) date 2023-12-16 18:31:18*
%MOMM*%
%LPD*%
G01*
G04 APERTURE LIST*
G04 Aperture macros list*
%AMRoundRect*
0 Rectangle with rounded corners*
0 $1 Rounding radius*
0 $2 $3 $4 $5 $6 $7 $8 $9 X,Y pos of 4 corners*
0 Add a 4 corners polygon primitive as box body*
4,1,4,$2,$3,$4,$5,$6,$7,$8,$9,$2,$3,0*
0 Add four circle primitives for the rounded corners*
1,1,$1+$1,$2,$3*
1,1,$1+$1,$4,$5*
1,1,$1+$1,$6,$7*
1,1,$1+$1,$8,$9*
0 Add four rect primitives between the rounded corners*
20,1,$1+$1,$2,$3,$4,$5,0*
20,1,$1+$1,$4,$5,$6,$7,0*
20,1,$1+$1,$6,$7,$8,$9,0*
20,1,$1+$1,$8,$9,$2,$3,0*%
G04 Aperture macros list end*
%TA.AperFunction,ComponentPad*%
%ADD10C,1.700000*%
%TD*%
%TA.AperFunction,ComponentPad*%
%ADD11RoundRect,0.550000X0.550000X0.550000X-0.550000X0.550000X-0.550000X-0.550000X0.550000X-0.550000X0*%
%TD*%
%TA.AperFunction,ComponentPad*%
%ADD12O,2.200000X2.200000*%
%TD*%
%TA.AperFunction,ComponentPad*%
%ADD13RoundRect,0.400000X0.400000X0.400000X-0.400000X0.400000X-0.400000X-0.400000X0.400000X-0.400000X0*%
%TD*%
%TA.AperFunction,ComponentPad*%
%ADD14C,1.600000*%
%TD*%
%TA.AperFunction,ComponentPad*%
%ADD15C,2.600000*%
%TD*%
%TA.AperFunction,ComponentPad*%
%ADD16O,2.300000X1.500000*%
%TD*%
%TA.AperFunction,ComponentPad*%
%ADD17C,2.000000*%
%TD*%
%TA.AperFunction,Conductor*%
%ADD18C,0.200000*%
%TD*%
%TA.AperFunction,Conductor*%
%ADD19C,0.400000*%
%TD*%
%TA.AperFunction,Conductor*%
%ADD20C,0.600000*%
%TD*%
G04 APERTURE END LIST*
D10*
%TO.P,J3,1,BOOT*%
%TO.N,/~{BOOT}*%
X27940000Y2540000D03*
%TO.P,J3,2,IOREF*%
%TO.N,+3V3*%
X30480000Y2540000D03*
%TO.P,J3,3,RESET*%
%TO.N,/~{RESET}*%
X33020000Y2540000D03*
%TO.P,J3,4,3.3V*%
%TO.N,+3V3*%
X35560000Y2540000D03*
%TO.P,J3,5,5V*%
%TO.N,+5V*%
X38100000Y2540000D03*
%TO.P,J3,6,GND*%
%TO.N,GND*%
X40640000Y2540000D03*
%TO.P,J3,7,GND*%
X43180000Y2540000D03*
%TO.P,J3,8,VIN*%
%TO.N,/VIN*%
X45720000Y2540000D03*
%TD*%
%TO.P,J4,1,A0*%
%TO.N,/A0*%
X50800000Y2540000D03*
%TO.P,J4,2,A1*%
%TO.N,/A1*%
X53340000Y2540000D03*
%TO.P,J4,3,A2*%
%TO.N,/A2*%
X55880000Y2540000D03*
%TO.P,J4,4,A3*%
%TO.N,/A3*%
X58420000Y2540000D03*
%TO.P,J4,5,A4*%
%TO.N,/A4{slash}SDA*%
X60960000Y2540000D03*
%TO.P,J4,6,A5*%
%TO.N,/A5{slash}SCL*%
X63500000Y2540000D03*
%TD*%
%TO.P,J2,1,8*%
%TO.N,/D8*%
X41656000Y50800000D03*
%TO.P,J2,2,9*%
%TO.N,/D9*%
X39116000Y50800000D03*
%TO.P,J2,3,10*%
%TO.N,/D10*%
X36576000Y50800000D03*
%TO.P,J2,4,11*%
%TO.N,/D11{slash}COPI*%
X34036000Y50800000D03*
%TO.P,J2,5,12*%
%TO.N,/D12{slash}CIPO*%
X31496000Y50800000D03*
%TO.P,J2,6,13*%
%TO.N,/D13{slash}SCK*%
X28956000Y50800000D03*
%TO.P,J2,7,GND*%
%TO.N,GND*%
X26416000Y50800000D03*
%TO.P,J2,8,AREF*%
%TO.N,/AREF*%
X23876000Y50800000D03*
%TO.P,J2,9,SDA*%
%TO.N,/A4{slash}SDA*%
X21336000Y50800000D03*
%TO.P,J2,10,SCL*%
%TO.N,/A5{slash}SCL*%
X18796000Y50800000D03*
%TD*%
%TO.P,J1,1,RX\u21900*%
%TO.N,/D0{slash}RX*%
X63500000Y50800000D03*
%TO.P,J1,2,TX\u21921*%
%TO.N,/D1{slash}TX*%
X60960000Y50800000D03*
%TO.P,J1,3,2*%
%TO.N,/D2*%
X58420000Y50800000D03*
%TO.P,J1,4,3*%
%TO.N,/D3*%
X55880000Y50800000D03*
%TO.P,J1,5,4*%
%TO.N,/D4*%
X53340000Y50800000D03*
%TO.P,J1,6,5*%
%TO.N,/D5*%
X50800000Y50800000D03*
%TO.P,J1,7,6*%
%TO.N,/D6*%
X48260000Y50800000D03*
%TO.P,J1,8,7*%
%TO.N,/D7*%
X45720000Y50800000D03*
%TD*%
D11*
%TO.P,D1,1,K*%
%TO.N,Net-(D1-K)*%
X24765000Y6985000D03*
D12*
%TO.P,D1,2,A*%
%TO.N,/VIN*%
X14605000Y6985000D03*
%TD*%
D13*
%TO.P,C2,1*%
%TO.N,+5V*%
X24745000Y12700000D03*
D14*
%TO.P,C2,2*%
%TO.N,GND*%
X22245000Y12700000D03*
%TD*%
D13*
%TO.P,C1,1*%
%TO.N,Net-(D1-K)*%
X17760000Y12700000D03*
D14*
%TO.P,C1,2*%
%TO.N,GND*%
X15260000Y12700000D03*
%TD*%
D10*
%TO.P,J7,1,MISO*%
%TO.N,/D12{slash}CIPO*%
X63622000Y30465000D03*
%TO.P,J7,2,VCC*%
%TO.N,+5V*%
X66162000Y30465000D03*
%TO.P,J7,3,SCK*%
%TO.N,/D13{slash}SCK*%
X63622000Y27925000D03*
%TO.P,J7,4,MOSI*%
%TO.N,/D11{slash}COPI*%
X66162000Y27925000D03*
%TO.P,J7,5,~{RST}*%
%TO.N,/~{RESET}*%
X63622000Y25385000D03*
%TO.P,J7,6,GND*%
%TO.N,GND*%
X66162000Y25385000D03*
%TD*%
D15*
%TO.P,J8,1*%
%TO.N,/VIN*%
X10984000Y7802000D03*
%TO.P,J8,2*%
%TO.N,GND*%
X4984000Y7802000D03*
%TO.P,J8,3*%
X7984000Y3102000D03*
%TD*%
D10*
%TO.P,J5,1,TX1*%
%TO.N,/D1{slash}TX*%
X39370000Y43500000D03*
%TO.P,J5,2,RX0*%
%TO.N,/D0{slash}RX*%
X36830000Y43500000D03*
%TO.P,J5,3,RST*%
%TO.N,/~{RESET}*%
X34290000Y43500000D03*
%TO.P,J5,4,GND*%
%TO.N,GND*%
X31750000Y43500000D03*
%TO.P,J5,5,D2*%
%TO.N,/D2*%
X29210000Y43500000D03*
%TO.P,J5,6,D3*%
%TO.N,/D3*%
X26670000Y43500000D03*
%TO.P,J5,7,D4*%
%TO.N,/D4*%
X24130000Y43500000D03*
%TO.P,J5,8,D5*%
%TO.N,/D5*%
X21590000Y43500000D03*
%TO.P,J5,9,D6*%
%TO.N,/D6*%
X19050000Y43500000D03*
%TO.P,J5,10,D7*%
%TO.N,/D7*%
X16510000Y43500000D03*
%TO.P,J5,11,D8*%
%TO.N,/D8*%
X13970000Y43500000D03*
%TO.P,J5,12,D9*%
%TO.N,/D9*%
X11430000Y43500000D03*
%TO.P,J5,13,D10*%
%TO.N,/D10*%
X8890000Y43500000D03*
%TO.P,J5,14,D11*%
%TO.N,/D11{slash}COPI*%
X6350000Y43500000D03*
%TO.P,J5,15,D12*%
%TO.N,/D12{slash}CIPO*%
X3810000Y43500000D03*
%TD*%
%TO.P,J6,1,D13*%
%TO.N,/D13{slash}SCK*%
X3810000Y28260000D03*
%TO.P,J6,2,3.3V*%
%TO.N,+3V3*%
X6350000Y28260000D03*
%TO.P,J6,3,AREF*%
%TO.N,/AREF*%
X8890000Y28260000D03*
%TO.P,J6,4,A0*%
%TO.N,/A0*%
X11430000Y28260000D03*
%TO.P,J6,5,A1*%
%TO.N,/A1*%
X13970000Y28260000D03*
%TO.P,J6,6,A2*%
%TO.N,/A2*%
X16510000Y28260000D03*
%TO.P,J6,7,A3*%
%TO.N,/A3*%
X19050000Y28260000D03*
%TO.P,J6,8,A4*%
%TO.N,/A4{slash}SDA*%
X21590000Y28260000D03*
%TO.P,J6,9,A5*%
%TO.N,/A5{slash}SCL*%
X24130000Y28260000D03*
%TO.P,J6,10,A6*%
%TO.N,unconnected-(J6-A6-Pad10)*%
X26670000Y28260000D03*
%TO.P,J6,11,A7*%
%TO.N,unconnected-(J6-A7-Pad11)*%
X29210000Y28260000D03*
%TO.P,J6,12,VBUS*%
%TO.N,unconnected-(J6-VBUS-Pad12)*%
X31750000Y28260000D03*
%TO.P,J6,13,RESET*%
%TO.N,/~{BOOT}*%
X34290000Y28260000D03*
%TO.P,J6,14,GND*%
%TO.N,GND*%
X36830000Y28260000D03*
%TO.P,J6,15,VIN*%
%TO.N,+5V*%
X39370000Y28260000D03*
%TD*%
D16*
%TO.P,U1,1,IN*%
%TO.N,Net-(D1-K)*%
X8890000Y17145000D03*
%TO.P,U1,2,GND*%
%TO.N,GND*%
X8890000Y19685000D03*
%TO.P,U1,3,OUT*%
%TO.N,+5V*%
X8890000Y22225000D03*
%TD*%
D17*
%TO.P,SW1,1,1*%
%TO.N,GND*%
X3050000Y51550000D03*
X9550000Y51550000D03*
%TO.P,SW1,2,2*%
%TO.N,/~{RESET}*%
X3050000Y47050000D03*
X9550000Y47050000D03*
%TD*%
D18*
%TO.N,/D1{slash}TX*%
X39370000Y43500000D02*
X53660000Y43500000D01*
X53660000Y43500000D02*
X60960000Y50800000D01*
D19*
%TO.N,+5V*%
X42225000Y28260000D02*
X39370000Y28260000D01*
D20*
X8890000Y22225000D02*
X14585000Y22225000D01*
X14585000Y22225000D02*
X24110000Y12700000D01*
D19*
X66162000Y30465000D02*
X64912000Y29215000D01*
X64912000Y29215000D02*
X64912000Y27447233D01*
D20*
X24110000Y12700000D02*
X24745000Y12700000D01*
D19*
X43815000Y26670000D02*
X42225000Y28260000D01*
X64912000Y27447233D02*
X64134767Y26670000D01*
D20*
X27940000Y12700000D02*
X24745000Y12700000D01*
D19*
X64134767Y26670000D02*
X43815000Y26670000D01*
D20*
X38100000Y2540000D02*
X27940000Y12700000D01*
D18*
%TO.N,/D0{slash}RX*%
X36830000Y43500000D02*
X37980000Y42350000D01*
X55050000Y42350000D02*
X63500000Y50800000D01*
X37980000Y42350000D02*
X55050000Y42350000D01*
%TO.N,/A0*%
X37465000Y15875000D02*
X23815000Y15875000D01*
X50800000Y2540000D02*
X37465000Y15875000D01*
X23815000Y15875000D02*
X11430000Y28260000D01*
%TO.N,/A1*%
X38100000Y17780000D02*
X24450000Y17780000D01*
X24450000Y17780000D02*
X13970000Y28260000D01*
X53340000Y2540000D02*
X38100000Y17780000D01*
%TO.N,/A2*%
X25085000Y19685000D02*
X16510000Y28260000D01*
X38735000Y19685000D02*
X25085000Y19685000D01*
X55880000Y2540000D02*
X38735000Y19685000D01*
%TO.N,/A3*%
X39370000Y21590000D02*
X25720000Y21590000D01*
X58420000Y2540000D02*
X39370000Y21590000D01*
X25720000Y21590000D02*
X19050000Y28260000D01*
%TO.N,/D2*%
X52496000Y44876000D02*
X30586000Y44876000D01*
X30586000Y44876000D02*
X29210000Y43500000D01*
X58420000Y50800000D02*
X52496000Y44876000D01*
%TO.N,/D3*%
X50356000Y45276000D02*
X28446000Y45276000D01*
X28446000Y45276000D02*
X26670000Y43500000D01*
X55880000Y50800000D02*
X50356000Y45276000D01*
%TO.N,/D4*%
X26306000Y45676000D02*
X24130000Y43500000D01*
X48216000Y45676000D02*
X26306000Y45676000D01*
X53340000Y50800000D02*
X48216000Y45676000D01*
%TO.N,/D5*%
X24166000Y46076000D02*
X21590000Y43500000D01*
X46076000Y46076000D02*
X24166000Y46076000D01*
X50800000Y50800000D02*
X46076000Y46076000D01*
%TO.N,/D6*%
X48260000Y50800000D02*
X43936000Y46476000D01*
X22026000Y46476000D02*
X19050000Y43500000D01*
X43936000Y46476000D02*
X22026000Y46476000D01*
%TO.N,/D7*%
X45720000Y50800000D02*
X41796000Y46876000D01*
X19886000Y46876000D02*
X16510000Y43500000D01*
X41796000Y46876000D02*
X19886000Y46876000D01*
%TO.N,/D8*%
X41656000Y50800000D02*
X38132000Y47276000D01*
X16437800Y45967800D02*
X13970000Y43500000D01*
X19720311Y47276000D02*
X18412111Y45967800D01*
X18412111Y45967800D02*
X16437800Y45967800D01*
X38132000Y47276000D02*
X19720311Y47276000D01*
%TO.N,/D9*%
X19554626Y47676000D02*
X18246426Y46367800D01*
X35992000Y47676000D02*
X19554626Y47676000D01*
X39116000Y50800000D02*
X35992000Y47676000D01*
X14297800Y46367800D02*
X11430000Y43500000D01*
X18246426Y46367800D02*
X14297800Y46367800D01*
%TO.N,/D10*%
X19388941Y48076000D02*
X18080741Y46767800D01*
X12157800Y46767800D02*
X8890000Y43500000D01*
X36576000Y50800000D02*
X33852000Y48076000D01*
X18080741Y46767800D02*
X12157800Y46767800D01*
X33852000Y48076000D02*
X19388941Y48076000D01*
%TO.N,/D11{slash}COPI*%
X19223256Y48476000D02*
X17915056Y47167800D01*
X11270678Y47167800D02*
X10076878Y48361600D01*
X66638346Y31615000D02*
X18235000Y31615000D01*
X67312000Y29075000D02*
X67312000Y30941346D01*
X18235000Y31615000D02*
X6350000Y43500000D01*
X17915056Y47167800D02*
X11270678Y47167800D01*
X6350000Y45770800D02*
X6350000Y43500000D01*
X34036000Y50800000D02*
X31712000Y48476000D01*
X31712000Y48476000D02*
X19223256Y48476000D01*
X10076878Y48361600D02*
X8940800Y48361600D01*
X66162000Y27925000D02*
X67312000Y29075000D01*
X8940800Y48361600D02*
X6350000Y45770800D01*
X67312000Y30941346D02*
X66638346Y31615000D01*
%TO.N,/D12{slash}CIPO*%
X29572000Y48876000D02*
X19057570Y48876000D01*
X19057570Y48876000D02*
X17749370Y47567800D01*
X3810000Y43796486D02*
X3810000Y43500000D01*
X16845000Y30465000D02*
X3810000Y43500000D01*
X10242563Y48761600D02*
X8775114Y48761600D01*
X17749370Y47567800D02*
X11436363Y47567800D01*
X11436363Y47567800D02*
X10242563Y48761600D01*
X8775114Y48761600D02*
X3810000Y43796486D01*
X63622000Y30465000D02*
X16845000Y30465000D01*
X31496000Y50800000D02*
X29572000Y48876000D01*
%TO.N,/D13{slash}SCK*%
X18891884Y49276000D02*
X17583684Y47967800D01*
X2540000Y43856346D02*
X2540000Y29530000D01*
X11602048Y47967800D02*
X10408248Y49161600D01*
X27432000Y49276000D02*
X18891884Y49276000D01*
X17583684Y47967800D02*
X11602048Y47967800D01*
X62137000Y29410000D02*
X63622000Y27925000D01*
X4960000Y29410000D02*
X62137000Y29410000D01*
X10408248Y49161600D02*
X7845254Y49161600D01*
X28956000Y50800000D02*
X27432000Y49276000D01*
X7845254Y49161600D02*
X2540000Y43856346D01*
X2540000Y29530000D02*
X3810000Y28260000D01*
X3810000Y28260000D02*
X4960000Y29410000D01*
%TO.N,/A4{slash}SDA*%
X26355000Y23495000D02*
X21590000Y28260000D01*
X60960000Y2540000D02*
X40005000Y23495000D01*
X40005000Y23495000D02*
X26355000Y23495000D01*
%TO.N,/A5{slash}SCL*%
X63500000Y2540000D02*
X40640000Y25400000D01*
X26990000Y25400000D02*
X24130000Y28260000D01*
X40640000Y25400000D02*
X26990000Y25400000D01*
D19*
%TO.N,+3V3*%
X30480000Y4445000D02*
X30480000Y2540000D01*
X6350000Y22738654D02*
X8133654Y20955000D01*
X24765000Y10160000D02*
X30480000Y4445000D01*
X30480000Y4445000D02*
X33655000Y4445000D01*
X12065000Y20955000D02*
X22860000Y10160000D01*
X33655000Y4445000D02*
X35560000Y2540000D01*
X6350000Y28260000D02*
X6350000Y22738654D01*
X22860000Y10160000D02*
X24765000Y10160000D01*
X8133654Y20955000D02*
X12065000Y20955000D01*
D18*
%TO.N,/~{RESET}*%
X34290000Y40005000D02*
X42280000Y32015000D01*
X66804032Y32015000D02*
X67712000Y31107032D01*
X33030200Y42240200D02*
X34290000Y43500000D01*
X67712000Y31107032D02*
X67712000Y27834000D01*
X7620000Y43143654D02*
X8523454Y42240200D01*
X66653000Y26775000D02*
X65012000Y26775000D01*
X7620000Y45120000D02*
X7620000Y43143654D01*
X8523454Y42240200D02*
X33030200Y42240200D01*
X67712000Y27834000D02*
X66653000Y26775000D01*
X42280000Y32015000D02*
X66804032Y32015000D01*
X34290000Y43500000D02*
X34290000Y40005000D01*
X65012000Y26775000D02*
X63622000Y25385000D01*
X9550000Y47050000D02*
X7620000Y45120000D01*
D20*
%TO.N,Net-(D1-K)*%
X13315000Y17145000D02*
X17760000Y12700000D01*
X23475000Y6985000D02*
X24765000Y6985000D01*
X17760000Y12700000D02*
X23475000Y6985000D01*
X8890000Y17145000D02*
X13315000Y17145000D01*
%TO.N,/VIN*%
X20400000Y1190000D02*
X14605000Y6985000D01*
X10984000Y7802000D02*
X13788000Y7802000D01*
X45720000Y2540000D02*
X44370000Y1190000D01*
X44370000Y1190000D02*
X20400000Y1190000D01*
X13788000Y7802000D02*
X14605000Y6985000D01*
%TD*%
%TA.AperFunction,Conductor*%
%TO.N,GND*%
G36*
X2781714Y53244815D02*
G01*
X2827469Y53192011D01*
X2837413Y53122853D01*
X2808388Y53059297D01*
X2749610Y53021523D01*
X2735085Y53018191D01*
X2680506Y53009084D01*
X2445396Y52928370D01*
X2445390Y52928368D01*
X2226761Y52810051D01*
X2179942Y52773612D01*
X2179942Y52773610D01*
X2878431Y52075122D01*
X2761542Y52024349D01*
X2644261Y51928934D01*
X2557072Y51805415D01*
X2526645Y51719803D01*
X1826564Y52419884D01*
X1726267Y52266368D01*
X1626412Y52038718D01*
X1565387Y51797739D01*
X1565385Y51797730D01*
X1544859Y51550006D01*
X1544859Y51549995D01*
X1565385Y51302271D01*
X1565387Y51302262D01*
X1626412Y51061283D01*
X1726266Y50833636D01*
X1826564Y50680118D01*
X2524070Y51377624D01*
X2526884Y51364085D01*
X2596442Y51229844D01*
X2699638Y51119348D01*
X2828819Y51040791D01*
X2880002Y51026451D01*
X2179942Y50326391D01*
X2226768Y50289945D01*
X2226770Y50289944D01*
X2445385Y50171636D01*
X2445396Y50171631D01*
X2680506Y50090917D01*
X2925707Y50050000D01*
X3174293Y50050000D01*
X3419493Y50090917D01*
X3654603Y50171631D01*
X3654614Y50171636D01*
X3873228Y50289943D01*
X3873231Y50289945D01*
X3920056Y50326391D01*
X3221568Y51024879D01*
X3338458Y51075651D01*
X3455739Y51171066D01*
X3542928Y51294585D01*
X3573354Y51380198D01*
X4273434Y50680118D01*
X4373731Y50833631D01*
X4473587Y51061283D01*
X4534612Y51302262D01*
X4534614Y51302271D01*
X4555141Y51549995D01*
X4555141Y51550006D01*
X4534614Y51797730D01*
X4534612Y51797739D01*
X4473587Y52038718D01*
X4373731Y52266370D01*
X4273434Y52419884D01*
X3575929Y51722378D01*
X3573116Y51735915D01*
X3503558Y51870156D01*
X3400362Y51980652D01*
X3271181Y52059209D01*
X3219997Y52073550D01*
X3920057Y52773610D01*
X3920056Y52773611D01*
X3873229Y52810057D01*
X3654614Y52928365D01*
X3654603Y52928370D01*
X3419493Y53009084D01*
X3364915Y53018191D01*
X3302030Y53048642D01*
X3265590Y53108256D01*
X3267166Y53178108D01*
X3306256Y53236020D01*
X3370450Y53263605D01*
X3385325Y53264500D01*
X9214675Y53264500D01*
X9281714Y53244815D01*
X9327469Y53192011D01*
X9337413Y53122853D01*
X9308388Y53059297D01*
X9249610Y53021523D01*
X9235085Y53018191D01*
X9180506Y53009084D01*
X8945396Y52928370D01*
X8945390Y52928368D01*
X8726761Y52810051D01*
X8679942Y52773612D01*
X8679942Y52773610D01*
X9378431Y52075122D01*
X9261542Y52024349D01*
X9144261Y51928934D01*
X9057072Y51805415D01*
X9026645Y51719803D01*
X8326564Y52419884D01*
X8226267Y52266368D01*
X8126412Y52038718D01*
X8065387Y51797739D01*
X8065385Y51797730D01*
X8044859Y51550006D01*
X8044859Y51549995D01*
X8065385Y51302271D01*
X8065387Y51302262D01*
X8126412Y51061283D01*
X8226266Y50833636D01*
X8326564Y50680118D01*
X9024070Y51377624D01*
X9026884Y51364085D01*
X9096442Y51229844D01*
X9199638Y51119348D01*
X9328819Y51040791D01*
X9380002Y51026451D01*
X8679942Y50326391D01*
X8726768Y50289945D01*
X8726770Y50289944D01*
X8945385Y50171636D01*
X8945396Y50171631D01*
X9180506Y50090917D01*
X9425707Y50050000D01*
X9674293Y50050000D01*
X9919493Y50090917D01*
X10154603Y50171631D01*
X10154614Y50171636D01*
X10373228Y50289943D01*
X10373231Y50289945D01*
X10420056Y50326391D01*
X9721568Y51024879D01*
X9838458Y51075651D01*
X9955739Y51171066D01*
X10042928Y51294585D01*
X10073354Y51380198D01*
X10773434Y50680118D01*
X10873731Y50833631D01*
X10973587Y51061283D01*
X11034612Y51302262D01*
X11034614Y51302271D01*
X11055141Y51549995D01*
X11055141Y51550006D01*
X11034614Y51797730D01*
X11034612Y51797739D01*
X10973587Y52038718D01*
X10873731Y52266370D01*
X10773434Y52419884D01*
X10075929Y51722378D01*
X10073116Y51735915D01*
X10003558Y51870156D01*
X9900362Y51980652D01*
X9771181Y52059209D01*
X9719997Y52073550D01*
X10420057Y52773610D01*
X10420056Y52773611D01*
X10373229Y52810057D01*
X10154614Y52928365D01*
X10154603Y52928370D01*
X9919493Y53009084D01*
X9864915Y53018191D01*
X9802030Y53048642D01*
X9765590Y53108256D01*
X9767166Y53178108D01*
X9806256Y53236020D01*
X9870450Y53263605D01*
X9885325Y53264500D01*
X64433365Y53264500D01*
X64500404Y53244815D01*
X64521046Y53228181D01*
X65928181Y51821046D01*
X65961666Y51759723D01*
X65964500Y51733365D01*
X65964500Y40430981D01*
X65961963Y40411708D01*
X65964264Y40385409D01*
X65964500Y40380003D01*
X65964500Y40372685D01*
X65965769Y40365484D01*
X65966474Y40360127D01*
X65967181Y40352045D01*
X65971651Y40342459D01*
X65978451Y40334356D01*
X65978452Y40334355D01*
X65979500Y40333750D01*
X66005185Y40314042D01*
X68468181Y37851046D01*
X68501666Y37789723D01*
X68504500Y37763365D01*
X68504500Y31407247D01*
X68484815Y31340208D01*
X68432011Y31294453D01*
X68362853Y31284509D01*
X68299297Y31313534D01*
X68265939Y31359794D01*
X68243525Y31413906D01*
X68243523Y31413909D01*
X68169235Y31510724D01*
X68169215Y31510748D01*
X68164311Y31517138D01*
X68145987Y31541019D01*
X68145985Y31541021D01*
X68145984Y31541022D01*
X68129939Y31553333D01*
X68117293Y31563037D01*
X68111203Y31568378D01*
X67265386Y32414195D01*
X67260033Y32420298D01*
X67257248Y32423927D01*
X67238019Y32448987D01*
X67238017Y32448989D01*
X67238016Y32448990D01*
X67206107Y32473474D01*
X67206106Y32473475D01*
X67206104Y32473477D01*
X67160760Y32508271D01*
X67110909Y32546524D01*
X67110905Y32546526D01*
X66962882Y32607839D01*
X66943489Y32610392D01*
X66841736Y32623788D01*
X66841710Y32623790D01*
X66804033Y32628750D01*
X66804031Y32628750D01*
X66793559Y32627372D01*
X66768183Y32624031D01*
X66760086Y32623500D01*
X42583411Y32623500D01*
X42516372Y32643185D01*
X42495730Y32659819D01*
X34934819Y40220730D01*
X34901334Y40282053D01*
X34898500Y40308411D01*
X34898500Y42210742D01*
X34918185Y42277781D01*
X34963484Y42319797D01*
X35035566Y42358805D01*
X35035572Y42358809D01*
X35035576Y42358811D01*
X35213240Y42497094D01*
X35365722Y42662732D01*
X35456193Y42801210D01*
X35509338Y42846563D01*
X35578569Y42855987D01*
X35641905Y42826485D01*
X35663804Y42801213D01*
X35754278Y42662732D01*
X35754283Y42662727D01*
X35754284Y42662724D01*
X35906756Y42497098D01*
X35906760Y42497094D01*
X36084424Y42358811D01*
X36084425Y42358811D01*
X36084427Y42358809D01*
X36168499Y42313312D01*
X36282426Y42251658D01*
X36495365Y42178556D01*
X36717431Y42141500D01*
X36942569Y42141500D01*
X37164635Y42178556D01*
X37185412Y42185690D01*
X37255209Y42188843D01*
X37313360Y42156091D01*
X37518655Y41950796D01*
X37523996Y41944706D01*
X37533927Y41931764D01*
X37546010Y41916016D01*
X37546011Y41916015D01*
X37546013Y41916013D01*
X37569828Y41897739D01*
X37576284Y41892785D01*
X37576308Y41892765D01*
X37644620Y41840348D01*
X37673124Y41818476D01*
X37673126Y41818476D01*
X37673128Y41818474D01*
X37721401Y41798479D01*
X37821149Y41757162D01*
X37900574Y41746706D01*
X37979999Y41736249D01*
X37980000Y41736249D01*
X37980001Y41736249D01*
X38015853Y41740969D01*
X38023954Y41741500D01*
X55006054Y41741500D01*
X55014151Y41740970D01*
X55039527Y41737629D01*
X55049999Y41736250D01*
X55050000Y41736250D01*
X55050001Y41736250D01*
X55085846Y41740969D01*
X55087961Y41741248D01*
X55087974Y41741249D01*
X55089881Y41741500D01*
X55089885Y41741500D01*
X55171002Y41752180D01*
X55189457Y41754609D01*
X55208851Y41757162D01*
X55268146Y41781723D01*
X55356876Y41818476D01*
X55452072Y41891523D01*
X55452073Y41891525D01*
X55460164Y41897733D01*
X55460171Y41897739D01*
X55483983Y41916010D01*
X55483982Y41916010D01*
X55483987Y41916013D01*
X55506010Y41944715D01*
X55511338Y41950791D01*
X63016640Y49456093D01*
X63077961Y49489576D01*
X63144584Y49485691D01*
X63165365Y49478556D01*
X63387431Y49441500D01*
X63612569Y49441500D01*
X63834635Y49478556D01*
X64047574Y49551658D01*
X64245576Y49658811D01*
X64423240Y49797094D01*
X64575722Y49962732D01*
X64698860Y50151209D01*
X64789296Y50357384D01*
X64844564Y50575632D01*
X64863156Y50800000D01*
X64860369Y50833631D01*
X64844565Y51024360D01*
X64844563Y51024372D01*
X64807415Y51171066D01*
X64789296Y51242616D01*
X64698860Y51448791D01*
X64686262Y51468073D01*
X64575723Y51637266D01*
X64575715Y51637277D01*
X64423243Y51802903D01*
X64423238Y51802908D01*
X64245577Y51941188D01*
X64245572Y51941192D01*
X64047580Y52048339D01*
X64047577Y52048341D01*
X64047574Y52048342D01*
X64047571Y52048343D01*
X64047569Y52048344D01*
X63834637Y52121444D01*
X63612569Y52158500D01*
X63387431Y52158500D01*
X63165362Y52121444D01*
X62952430Y52048344D01*
X62952419Y52048339D01*
X62754427Y51941192D01*
X62754422Y51941188D01*
X62576761Y51802908D01*
X62576756Y51802903D01*
X62424284Y51637277D01*
X62424276Y51637266D01*
X62333808Y51498794D01*
X62280662Y51453438D01*
X62211431Y51444014D01*
X62148095Y51473516D01*
X62126192Y51498794D01*
X62035723Y51637266D01*
X62035715Y51637277D01*
X61883243Y51802903D01*
X61883238Y51802908D01*
X61705577Y51941188D01*
X61705572Y51941192D01*
X61507580Y52048339D01*
X61507577Y52048341D01*
X61507574Y52048342D01*
X61507571Y52048343D01*
X61507569Y52048344D01*
X61294637Y52121444D01*
X61072569Y52158500D01*
X60847431Y52158500D01*
X60625362Y52121444D01*
X60412430Y52048344D01*
X60412419Y52048339D01*
X60214427Y51941192D01*
X60214422Y51941188D01*
X60036761Y51802908D01*
X60036756Y51802903D01*
X59884284Y51637277D01*
X59884276Y51637266D01*
X59793808Y51498794D01*
X59740662Y51453438D01*
X59671431Y51444014D01*
X59608095Y51473516D01*
X59586192Y51498794D01*
X59495723Y51637266D01*
X59495715Y51637277D01*
X59343243Y51802903D01*
X59343238Y51802908D01*
X59165577Y51941188D01*
X59165572Y51941192D01*
X58967580Y52048339D01*
X58967577Y52048341D01*
X58967574Y52048342D01*
X58967571Y52048343D01*
X58967569Y52048344D01*
X58754637Y52121444D01*
X58532569Y52158500D01*
X58307431Y52158500D01*
X58085362Y52121444D01*
X57872430Y52048344D01*
X57872419Y52048339D01*
X57674427Y51941192D01*
X57674422Y51941188D01*
X57496761Y51802908D01*
X57496756Y51802903D01*
X57344284Y51637277D01*
X57344276Y51637266D01*
X57253808Y51498794D01*
X57200662Y51453438D01*
X57131431Y51444014D01*
X57068095Y51473516D01*
X57046192Y51498794D01*
X56955723Y51637266D01*
X56955715Y51637277D01*
X56803243Y51802903D01*
X56803238Y51802908D01*
X56625577Y51941188D01*
X56625572Y51941192D01*
X56427580Y52048339D01*
X56427577Y52048341D01*
X56427574Y52048342D01*
X56427571Y52048343D01*
X56427569Y52048344D01*
X56214637Y52121444D01*
X55992569Y52158500D01*
X55767431Y52158500D01*
X55545362Y52121444D01*
X55332430Y52048344D01*
X55332419Y52048339D01*
X55134427Y51941192D01*
X55134422Y51941188D01*
X54956761Y51802908D01*
X54956756Y51802903D01*
X54804284Y51637277D01*
X54804276Y51637266D01*
X54713808Y51498794D01*
X54660662Y51453438D01*
X54591431Y51444014D01*
X54528095Y51473516D01*
X54506192Y51498794D01*
X54415723Y51637266D01*
X54415715Y51637277D01*
X54263243Y51802903D01*
X54263238Y51802908D01*
X54085577Y51941188D01*
X54085572Y51941192D01*
X53887580Y52048339D01*
X53887577Y52048341D01*
X53887574Y52048342D01*
X53887571Y52048343D01*
X53887569Y52048344D01*
X53674637Y52121444D01*
X53452569Y52158500D01*
X53227431Y52158500D01*
X53005362Y52121444D01*
X52792430Y52048344D01*
X52792419Y52048339D01*
X52594427Y51941192D01*
X52594422Y51941188D01*
X52416761Y51802908D01*
X52416756Y51802903D01*
X52264284Y51637277D01*
X52264276Y51637266D01*
X52173808Y51498794D01*
X52120662Y51453438D01*
X52051431Y51444014D01*
X51988095Y51473516D01*
X51966192Y51498794D01*
X51875723Y51637266D01*
X51875715Y51637277D01*
X51723243Y51802903D01*
X51723238Y51802908D01*
X51545577Y51941188D01*
X51545572Y51941192D01*
X51347580Y52048339D01*
X51347577Y52048341D01*
X51347574Y52048342D01*
X51347571Y52048343D01*
X51347569Y52048344D01*
X51134637Y52121444D01*
X50912569Y52158500D01*
X50687431Y52158500D01*
X50465362Y52121444D01*
X50252430Y52048344D01*
X50252419Y52048339D01*
X50054427Y51941192D01*
X50054422Y51941188D01*
X49876761Y51802908D01*
X49876756Y51802903D01*
X49724284Y51637277D01*
X49724276Y51637266D01*
X49633808Y51498794D01*
X49580662Y51453438D01*
X49511431Y51444014D01*
X49448095Y51473516D01*
X49426192Y51498794D01*
X49335723Y51637266D01*
X49335715Y51637277D01*
X49183243Y51802903D01*
X49183238Y51802908D01*
X49005577Y51941188D01*
X49005572Y51941192D01*
X48807580Y52048339D01*
X48807577Y52048341D01*
X48807574Y52048342D01*
X48807571Y52048343D01*
X48807569Y52048344D01*
X48594637Y52121444D01*
X48372569Y52158500D01*
X48147431Y52158500D01*
X47925362Y52121444D01*
X47712430Y52048344D01*
X47712419Y52048339D01*
X47514427Y51941192D01*
X47514422Y51941188D01*
X47336761Y51802908D01*
X47336756Y51802903D01*
X47184284Y51637277D01*
X47184276Y51637266D01*
X47093808Y51498794D01*
X47040662Y51453438D01*
X46971431Y51444014D01*
X46908095Y51473516D01*
X46886192Y51498794D01*
X46795723Y51637266D01*
X46795715Y51637277D01*
X46643243Y51802903D01*
X46643238Y51802908D01*
X46465577Y51941188D01*
X46465572Y51941192D01*
X46267580Y52048339D01*
X46267577Y52048341D01*
X46267574Y52048342D01*
X46267571Y52048343D01*
X46267569Y52048344D01*
X46054637Y52121444D01*
X45832569Y52158500D01*
X45607431Y52158500D01*
X45385362Y52121444D01*
X45172430Y52048344D01*
X45172419Y52048339D01*
X44974427Y51941192D01*
X44974422Y51941188D01*
X44796761Y51802908D01*
X44796756Y51802903D01*
X44644284Y51637277D01*
X44644276Y51637266D01*
X44521140Y51448793D01*
X44430703Y51242615D01*
X44375436Y51024372D01*
X44375434Y51024360D01*
X44356844Y50800006D01*
X44356844Y50799995D01*
X44375435Y50575636D01*
X44410605Y50436752D01*
X44407980Y50366932D01*
X44378080Y50318631D01*
X41580270Y47520819D01*
X41518947Y47487334D01*
X41492589Y47484500D01*
X39500411Y47484500D01*
X39433372Y47504185D01*
X39387617Y47556989D01*
X39377673Y47626147D01*
X39406698Y47689703D01*
X39412730Y47696181D01*
X39836518Y48119969D01*
X41172640Y49456093D01*
X41233961Y49489576D01*
X41300584Y49485691D01*
X41321365Y49478556D01*
X41543431Y49441500D01*
X41768569Y49441500D01*
X41990635Y49478556D01*
X42203574Y49551658D01*
X42401576Y49658811D01*
X42579240Y49797094D01*
X42731722Y49962732D01*
X42854860Y50151209D01*
X42945296Y50357384D01*
X43000564Y50575632D01*
X43019156Y50800000D01*
X43016369Y50833631D01*
X43000565Y51024360D01*
X43000563Y51024372D01*
X42963415Y51171066D01*
X42945296Y51242616D01*
X42854860Y51448791D01*
X42842262Y51468073D01*
X42731723Y51637266D01*
X42731715Y51637277D01*
X42579243Y51802903D01*
X42579238Y51802908D01*
X42401577Y51941188D01*
X42401572Y51941192D01*
X42203580Y52048339D01*
X42203577Y52048341D01*
X42203574Y52048342D01*
X42203571Y52048343D01*
X42203569Y52048344D01*
X41990637Y52121444D01*
X41768569Y52158500D01*
X41543431Y52158500D01*
X41321362Y52121444D01*
X41108430Y52048344D01*
X41108419Y52048339D01*
X40910427Y51941192D01*
X40910422Y51941188D01*
X40732761Y51802908D01*
X40732756Y51802903D01*
X40580284Y51637277D01*
X40580276Y51637266D01*
X40489808Y51498794D01*
X40436662Y51453438D01*
X40367431Y51444014D01*
X40304095Y51473516D01*
X40282192Y51498794D01*
X40191723Y51637266D01*
X40191715Y51637277D01*
X40039243Y51802903D01*
X40039238Y51802908D01*
X39861577Y51941188D01*
X39861572Y51941192D01*
X39663580Y52048339D01*
X39663577Y52048341D01*
X39663574Y52048342D01*
X39663571Y52048343D01*
X39663569Y52048344D01*
X39450637Y52121444D01*
X39228569Y52158500D01*
X39003431Y52158500D01*
X38781362Y52121444D01*
X38568430Y52048344D01*
X38568419Y52048339D01*
X38370427Y51941192D01*
X38370422Y51941188D01*
X38192761Y51802908D01*
X38192756Y51802903D01*
X38040284Y51637277D01*
X38040276Y51637266D01*
X37949808Y51498794D01*
X37896662Y51453438D01*
X37827431Y51444014D01*
X37764095Y51473516D01*
X37742192Y51498794D01*
X37651723Y51637266D01*
X37651715Y51637277D01*
X37499243Y51802903D01*
X37499238Y51802908D01*
X37321577Y51941188D01*
X37321572Y51941192D01*
X37123580Y52048339D01*
X37123577Y52048341D01*
X37123574Y52048342D01*
X37123571Y52048343D01*
X37123569Y52048344D01*
X36910637Y52121444D01*
X36688569Y52158500D01*
X36463431Y52158500D01*
X36241362Y52121444D01*
X36028430Y52048344D01*
X36028419Y52048339D01*
X35830427Y51941192D01*
X35830422Y51941188D01*
X35652761Y51802908D01*
X35652756Y51802903D01*
X35500284Y51637277D01*
X35500276Y51637266D01*
X35409808Y51498794D01*
X35356662Y51453438D01*
X35287431Y51444014D01*
X35224095Y51473516D01*
X35202192Y51498794D01*
X35111723Y51637266D01*
X35111715Y51637277D01*
X34959243Y51802903D01*
X34959238Y51802908D01*
X34781577Y51941188D01*
X34781572Y51941192D01*
X34583580Y52048339D01*
X34583577Y52048341D01*
X34583574Y52048342D01*
X34583571Y52048343D01*
X34583569Y52048344D01*
X34370637Y52121444D01*
X34148569Y52158500D01*
X33923431Y52158500D01*
X33701362Y52121444D01*
X33488430Y52048344D01*
X33488419Y52048339D01*
X33290427Y51941192D01*
X33290422Y51941188D01*
X33112761Y51802908D01*
X33112756Y51802903D01*
X32960284Y51637277D01*
X32960276Y51637266D01*
X32869808Y51498794D01*
X32816662Y51453438D01*
X32747431Y51444014D01*
X32684095Y51473516D01*
X32662192Y51498794D01*
X32571723Y51637266D01*
X32571715Y51637277D01*
X32419243Y51802903D01*
X32419238Y51802908D01*
X32241577Y51941188D01*
X32241572Y51941192D01*
X32043580Y52048339D01*
X32043577Y52048341D01*
X32043574Y52048342D01*
X32043571Y52048343D01*
X32043569Y52048344D01*
X31830637Y52121444D01*
X31608569Y52158500D01*
X31383431Y52158500D01*
X31161362Y52121444D01*
X30948430Y52048344D01*
X30948419Y52048339D01*
X30750427Y51941192D01*
X30750422Y51941188D01*
X30572761Y51802908D01*
X30572756Y51802903D01*
X30420284Y51637277D01*
X30420276Y51637266D01*
X30329808Y51498794D01*
X30276662Y51453438D01*
X30207431Y51444014D01*
X30144095Y51473516D01*
X30122192Y51498794D01*
X30031723Y51637266D01*
X30031715Y51637277D01*
X29879243Y51802903D01*
X29879238Y51802908D01*
X29701577Y51941188D01*
X29701572Y51941192D01*
X29503580Y52048339D01*
X29503577Y52048341D01*
X29503574Y52048342D01*
X29503571Y52048343D01*
X29503569Y52048344D01*
X29290637Y52121444D01*
X29068569Y52158500D01*
X28843431Y52158500D01*
X28621362Y52121444D01*
X28408430Y52048344D01*
X28408419Y52048339D01*
X28210427Y51941192D01*
X28210422Y51941188D01*
X28032761Y51802908D01*
X28032756Y51802903D01*
X27880284Y51637277D01*
X27880280Y51637271D01*
X27786250Y51493349D01*
X27733103Y51447993D01*
X27663872Y51438570D01*
X27600536Y51468073D01*
X27580866Y51490049D01*
X27530924Y51561374D01*
X26899076Y50929526D01*
X26875493Y51009844D01*
X26797761Y51130798D01*
X26689100Y51224952D01*
X26558315Y51284680D01*
X26548533Y51286087D01*
X27177373Y51914927D01*
X27177373Y51914928D01*
X27093583Y51973598D01*
X27093579Y51973600D01*
X26879492Y52073430D01*
X26879483Y52073434D01*
X26651326Y52134568D01*
X26651315Y52134570D01*
X26416002Y52155157D01*
X26415998Y52155157D01*
X26180684Y52134570D01*
X26180673Y52134568D01*
X25952516Y52073434D01*
X25952507Y52073430D01*
X25738419Y51973599D01*
X25654625Y51914928D01*
X26283466Y51286087D01*
X26273685Y51284680D01*
X26142900Y51224952D01*
X26034239Y51130798D01*
X25956507Y51009844D01*
X25932923Y50929524D01*
X25301072Y51561375D01*
X25301072Y51561374D01*
X25251131Y51490050D01*
X25196555Y51446425D01*
X25127056Y51439231D01*
X25064701Y51470754D01*
X25045748Y51493351D01*
X24951723Y51637266D01*
X24951715Y51637277D01*
X24799243Y51802903D01*
X24799238Y51802908D01*
X24621577Y51941188D01*
X24621572Y51941192D01*
X24423580Y52048339D01*
X24423577Y52048341D01*
X24423574Y52048342D01*
X24423571Y52048343D01*
X24423569Y52048344D01*
X24210637Y52121444D01*
X23988569Y52158500D01*
X23763431Y52158500D01*
X23541362Y52121444D01*
X23328430Y52048344D01*
X23328419Y52048339D01*
X23130427Y51941192D01*
X23130422Y51941188D01*
X22952761Y51802908D01*
X22952756Y51802903D01*
X22800284Y51637277D01*
X22800276Y51637266D01*
X22709808Y51498794D01*
X22656662Y51453438D01*
X22587431Y51444014D01*
X22524095Y51473516D01*
X22502192Y51498794D01*
X22411723Y51637266D01*
X22411715Y51637277D01*
X22259243Y51802903D01*
X22259238Y51802908D01*
X22081577Y51941188D01*
X22081572Y51941192D01*
X21883580Y52048339D01*
X21883577Y52048341D01*
X21883574Y52048342D01*
X21883571Y52048343D01*
X21883569Y52048344D01*
X21670637Y52121444D01*
X21448569Y52158500D01*
X21223431Y52158500D01*
X21001362Y52121444D01*
X20788430Y52048344D01*
X20788419Y52048339D01*
X20590427Y51941192D01*
X20590422Y51941188D01*
X20412761Y51802908D01*
X20412756Y51802903D01*
X20260284Y51637277D01*
X20260276Y51637266D01*
X20169808Y51498794D01*
X20116662Y51453438D01*
X20047431Y51444014D01*
X19984095Y51473516D01*
X19962192Y51498794D01*
X19871723Y51637266D01*
X19871715Y51637277D01*
X19719243Y51802903D01*
X19719238Y51802908D01*
X19541577Y51941188D01*
X19541572Y51941192D01*
X19343580Y52048339D01*
X19343577Y52048341D01*
X19343574Y52048342D01*
X19343571Y52048343D01*
X19343569Y52048344D01*
X19130637Y52121444D01*
X18908569Y52158500D01*
X18683431Y52158500D01*
X18461362Y52121444D01*
X18248430Y52048344D01*
X18248419Y52048339D01*
X18050427Y51941192D01*
X18050422Y51941188D01*
X17872761Y51802908D01*
X17872756Y51802903D01*
X17720284Y51637277D01*
X17720276Y51637266D01*
X17597140Y51448793D01*
X17506703Y51242615D01*
X17451436Y51024372D01*
X17451434Y51024360D01*
X17432844Y50800006D01*
X17432844Y50799995D01*
X17451434Y50575641D01*
X17451436Y50575629D01*
X17506703Y50357386D01*
X17597140Y50151208D01*
X17720276Y49962735D01*
X17720284Y49962724D01*
X17872756Y49797098D01*
X17872761Y49797093D01*
X17924282Y49756992D01*
X18050424Y49658811D01*
X18122002Y49620075D01*
X18140174Y49610241D01*
X18189765Y49561022D01*
X18204873Y49492805D01*
X18180703Y49427250D01*
X18168838Y49413505D01*
X17367954Y48612619D01*
X17306631Y48579134D01*
X17280273Y48576300D01*
X11905459Y48576300D01*
X11838420Y48595985D01*
X11817778Y48612619D01*
X10869602Y49560795D01*
X10864249Y49566898D01*
X10861464Y49570527D01*
X10842235Y49595587D01*
X10842233Y49595589D01*
X10842232Y49595590D01*
X10810323Y49620074D01*
X10810322Y49620075D01*
X10810320Y49620077D01*
X10759839Y49658813D01*
X10715125Y49693124D01*
X10715121Y49693126D01*
X10567098Y49754439D01*
X10547705Y49756992D01*
X10445952Y49770388D01*
X10445926Y49770390D01*
X10408249Y49775350D01*
X10408247Y49775350D01*
X10397775Y49773972D01*
X10372399Y49770631D01*
X10364302Y49770100D01*
X7889200Y49770100D01*
X7881102Y49770631D01*
X7855726Y49773972D01*
X7845255Y49775350D01*
X7845253Y49775350D01*
X7807743Y49770412D01*
X7807714Y49770410D01*
X7705796Y49756992D01*
X7686402Y49754439D01*
X7538380Y49693126D01*
X7538377Y49693124D01*
X7444815Y49621330D01*
X7411264Y49595585D01*
X7389250Y49566897D01*
X7383899Y49560795D01*
X4774358Y46951255D01*
X4713035Y46917770D01*
X4643343Y46922754D01*
X4587410Y46964626D01*
X4562993Y47030090D01*
X4563059Y47048666D01*
X4563165Y47050000D01*
X4544535Y47286711D01*
X4489105Y47517594D01*
X4489104Y47517597D01*
X4489104Y47517598D01*
X4398242Y47736960D01*
X4398240Y47736963D01*
X4274179Y47939411D01*
X4274178Y47939414D01*
X4239340Y47980203D01*
X4119969Y48119969D01*
X4000596Y48221924D01*
X3939413Y48274179D01*
X3939410Y48274180D01*
X3736962Y48398241D01*
X3736959Y48398243D01*
X3517596Y48489105D01*
X3286714Y48544535D01*
X3050000Y48563165D01*
X2813285Y48544535D01*
X2582404Y48489105D01*
X2582402Y48489105D01*
X2363040Y48398243D01*
X2363037Y48398241D01*
X2160589Y48274180D01*
X2160586Y48274179D01*
X1980031Y48119969D01*
X1825821Y47939414D01*
X1825820Y47939411D01*
X1701759Y47736963D01*
X1701757Y47736960D01*
X1610895Y47517598D01*
X1610895Y47517596D01*
X1555465Y47286715D01*
X1536835Y47050000D01*
X1555465Y46813286D01*
X1610895Y46582405D01*
X1610895Y46582403D01*
X1701757Y46363041D01*
X1701759Y46363038D01*
X1825820Y46160590D01*
X1825821Y46160587D01*
X1829341Y46156466D01*
X1980031Y45980031D01*
X2111788Y45867500D01*
X2160586Y45825822D01*
X2160589Y45825821D01*
X2363037Y45701760D01*
X2363040Y45701758D01*
X2582403Y45610896D01*
X2582404Y45610896D01*
X2582406Y45610895D01*
X2813289Y45555465D01*
X3050000Y45536835D01*
X3051325Y45536940D01*
X3051822Y45536835D01*
X3054872Y45536835D01*
X3054872Y45536195D01*
X3119700Y45522583D01*
X3169463Y45473537D01*
X3184809Y45405374D01*
X3160867Y45339734D01*
X3148745Y45325642D01*
X2140801Y44317697D01*
X2134698Y44312346D01*
X2106013Y44290334D01*
X2081522Y44258417D01*
X2008476Y44163223D01*
X2008474Y44163221D01*
X1966965Y44063005D01*
X1947162Y44015197D01*
X1947162Y44015196D01*
X1930957Y43892105D01*
X1930955Y43892092D01*
X1926250Y43856346D01*
X1929613Y43830798D01*
X1930969Y43820503D01*
X1931500Y43812401D01*
X1931500Y29573946D01*
X1930969Y29565844D01*
X1926250Y29530002D01*
X1931021Y29493752D01*
X1931023Y29493737D01*
X1939766Y29427329D01*
X1947161Y29371151D01*
X1947163Y29371146D01*
X2008473Y29223129D01*
X2008476Y29223123D01*
X2030056Y29195000D01*
X2081523Y29127928D01*
X2081525Y29127926D01*
X2081526Y29127925D01*
X2106012Y29096014D01*
X2134698Y29074002D01*
X2140794Y29068657D01*
X2407951Y28801500D01*
X2468080Y28741371D01*
X2501565Y28680048D01*
X2500605Y28623250D01*
X2465435Y28484365D01*
X2446844Y28260006D01*
X2446844Y28259995D01*
X2465434Y28035641D01*
X2465436Y28035629D01*
X2520703Y27817386D01*
X2611140Y27611208D01*
X2734276Y27422735D01*
X2734284Y27422724D01*
X2886756Y27257098D01*
X2886760Y27257094D01*
X3064424Y27118811D01*
X3064425Y27118811D01*
X3064427Y27118809D01*
X3124314Y27086400D01*
X3262426Y27011658D01*
X3475365Y26938556D01*
X3697431Y26901500D01*
X3922569Y26901500D01*
X4144635Y26938556D01*
X4357574Y27011658D01*
X4555576Y27118811D01*
X4733240Y27257094D01*
X4863125Y27398185D01*
X4885715Y27422724D01*
X4885715Y27422725D01*
X4885722Y27422732D01*
X4976193Y27561210D01*
X5029338Y27606563D01*
X5098569Y27615987D01*
X5161905Y27586485D01*
X5183804Y27561213D01*
X5274278Y27422732D01*
X5274283Y27422727D01*
X5274284Y27422724D01*
X5426756Y27257098D01*
X5426760Y27257094D01*
X5593662Y27127187D01*
X5634475Y27070478D01*
X5641500Y27029335D01*
X5641500Y22761945D01*
X5641387Y22758200D01*
X5637598Y22695565D01*
X5637598Y22695562D01*
X5648907Y22633844D01*
X5649470Y22630143D01*
X5657034Y22567858D01*
X5657035Y22567853D01*
X5660716Y22558144D01*
X5666738Y22536544D01*
X5668611Y22526323D01*
X5694365Y22469099D01*
X5695798Y22465639D01*
X5718044Y22406982D01*
X5718046Y22406979D01*
X5723941Y22398438D01*
X5734966Y22378891D01*
X5739225Y22369427D01*
X5777916Y22320043D01*
X5780136Y22317026D01*
X5815783Y22265383D01*
X5815784Y22265382D01*
X5815785Y22265381D01*
X5862772Y22223754D01*
X5865464Y22221220D01*
X6689869Y21396815D01*
X7481115Y20605569D01*
X7514600Y20544246D01*
X7509616Y20474554D01*
X7496921Y20449577D01*
X7384808Y20279734D01*
X7296375Y20072831D01*
X7296372Y20072822D01*
X7264915Y19935001D01*
X7264916Y19935000D01*
X8456314Y19935000D01*
X8430507Y19894844D01*
X8390000Y19756889D01*
X8390000Y19613111D01*
X8430507Y19475156D01*
X8456314Y19435000D01*
X7262449Y19435000D01*
X7266415Y19405722D01*
X7335945Y19191732D01*
X7442565Y18993599D01*
X7442567Y18993596D01*
X7582854Y18817680D01*
X7752292Y18669648D01*
X7752300Y18669641D01*
X7945446Y18554241D01*
X7945448Y18554240D01*
X7994358Y18535884D01*
X8050207Y18493899D01*
X8074491Y18428385D01*
X8059500Y18360142D01*
X8009995Y18310837D01*
X8004591Y18308070D01*
X7841909Y18229727D01*
X7841906Y18229725D01*
X7658642Y18096576D01*
X7658634Y18096569D01*
X7502089Y17932836D01*
X7377289Y17743773D01*
X7288259Y17535478D01*
X7288255Y17535465D01*
X7237850Y17314621D01*
X7237848Y17314610D01*
X7230537Y17151815D01*
X7227685Y17088309D01*
X7258094Y16863825D01*
X7258095Y16863820D01*
X7328097Y16648378D01*
X7385863Y16541031D01*
X7425249Y16467839D01*
X7435445Y16448893D01*
X7576685Y16271782D01*
X7747275Y16122743D01*
X7747282Y16122737D01*
X7941750Y16006547D01*
X8153839Y15926949D01*
X8376729Y15886500D01*
X8376733Y15886500D01*
X9346515Y15886500D01*
X9346522Y15886500D01*
X9515622Y15901719D01*
X9515626Y15901720D01*
X9733983Y15961983D01*
X9733985Y15961984D01*
X9733993Y15961986D01*
X9938093Y16060275D01*
X10121363Y16193429D01*
X10162817Y16236788D01*
X10221528Y16298192D01*
X10282084Y16333044D01*
X10311154Y16336500D01*
X12928746Y16336500D01*
X12995785Y16316815D01*
X13016427Y16300181D01*
X15119454Y14197154D01*
X15152939Y14135831D01*
X15147955Y14066139D01*
X15106083Y14010206D01*
X15042585Y13985945D01*
X15033397Y13985141D01*
X15033389Y13985140D01*
X14813682Y13926270D01*
X14813673Y13926266D01*
X14607513Y13830132D01*
X14534526Y13779027D01*
X15215599Y13097954D01*
X15134852Y13085165D01*
X15021955Y13027641D01*
X14932359Y12938045D01*
X14874835Y12825148D01*
X14862046Y12744401D01*
X14180973Y13425474D01*
X14180972Y13425473D01*
X14129868Y13352487D01*
X14033734Y13146327D01*
X14033730Y13146318D01*
X13974860Y12926611D01*
X13974858Y12926600D01*
X13955034Y12700003D01*
X13955034Y12699998D01*
X13974858Y12473401D01*
X13974860Y12473390D01*
X14033730Y12253683D01*
X14033734Y12253674D01*
X14129865Y12047519D01*
X14129866Y12047517D01*
X14180973Y11974529D01*
X14180974Y11974528D01*
X14862046Y12655601D01*
X14874835Y12574852D01*
X14932359Y12461955D01*
X15021955Y12372359D01*
X15134852Y12314835D01*
X15215599Y12302047D01*
X14534526Y11620975D01*
X14534526Y11620974D01*
X14607512Y11569869D01*
X14607516Y11569867D01*
X14813673Y11473735D01*
X14813682Y11473731D01*
X15033389Y11414861D01*
X15033400Y11414859D01*
X15259998Y11395034D01*
X15260002Y11395034D01*
X15486599Y11414859D01*
X15486610Y11414861D01*
X15706317Y11473731D01*
X15706331Y11473736D01*
X15912478Y11569864D01*
X15985472Y11620975D01*
X15304401Y12302047D01*
X15385148Y12314835D01*
X15498045Y12372359D01*
X15587641Y12461955D01*
X15645165Y12574852D01*
X15657953Y12655600D01*
X16339025Y11974528D01*
X16358107Y11976197D01*
X16371992Y11987296D01*
X16441490Y11994493D01*
X16503846Y11962973D01*
X16529479Y11928846D01*
X16593871Y11802470D01*
X16714055Y11654055D01*
X16754907Y11620974D01*
X16862472Y11533869D01*
X16948658Y11489956D01*
X17032629Y11447171D01*
X17217096Y11397743D01*
X17248825Y11395246D01*
X17296416Y11391500D01*
X17296418Y11391501D01*
X17296419Y11391500D01*
X17873745Y11391501D01*
X17940784Y11371817D01*
X17961426Y11355182D01*
X22967718Y6348890D01*
X22967721Y6348888D01*
X23003453Y6326436D01*
X23009128Y6322410D01*
X23042131Y6296091D01*
X23080161Y6277778D01*
X23086227Y6274426D01*
X23121985Y6251957D01*
X23121992Y6251955D01*
X23122600Y6251661D01*
X23122927Y6251366D01*
X23127882Y6248252D01*
X23127336Y6247385D01*
X23174458Y6204836D01*
X23187454Y6175939D01*
X23232340Y6027970D01*
X23250765Y5993500D01*
X23330620Y5844103D01*
X23330633Y5844080D01*
X23462905Y5682906D01*
X23624079Y5550634D01*
X23624083Y5550631D01*
X23807969Y5452341D01*
X24007498Y5391815D01*
X24162995Y5376500D01*
X25367004Y5376501D01*
X25522502Y5391815D01*
X25722031Y5452341D01*
X25905917Y5550631D01*
X26067094Y5682906D01*
X26199369Y5844083D01*
X26297659Y6027969D01*
X26358185Y6227498D01*
X26373500Y6382995D01*
X26373499Y7250170D01*
X26393183Y7317208D01*
X26445987Y7362963D01*
X26515146Y7372907D01*
X26578702Y7343882D01*
X26585180Y7337850D01*
X29735181Y4187849D01*
X29768666Y4126526D01*
X29771500Y4100168D01*
X29771500Y3770667D01*
X29751815Y3703628D01*
X29723663Y3672814D01*
X29556761Y3542908D01*
X29556756Y3542903D01*
X29404284Y3377277D01*
X29404276Y3377266D01*
X29313808Y3238794D01*
X29260662Y3193438D01*
X29191431Y3184014D01*
X29128095Y3213516D01*
X29106192Y3238794D01*
X29015723Y3377266D01*
X29015715Y3377277D01*
X28863243Y3542903D01*
X28863238Y3542908D01*
X28685577Y3681188D01*
X28685572Y3681192D01*
X28487580Y3788339D01*
X28487577Y3788341D01*
X28487574Y3788342D01*
X28487571Y3788343D01*
X28487569Y3788344D01*
X28274637Y3861444D01*
X28052569Y3898500D01*
X27827431Y3898500D01*
X27605362Y3861444D01*
X27392430Y3788344D01*
X27392419Y3788339D01*
X27194427Y3681192D01*
X27194422Y3681188D01*
X27016761Y3542908D01*
X27016756Y3542903D01*
X26864284Y3377277D01*
X26864276Y3377266D01*
X26741140Y3188793D01*
X26650703Y2982615D01*
X26595436Y2764372D01*
X26595434Y2764360D01*
X26576844Y2540006D01*
X26576844Y2539995D01*
X26595434Y2315641D01*
X26595436Y2315629D01*
X26636635Y2152940D01*
X26634010Y2083120D01*
X26594054Y2025802D01*
X26529452Y1999186D01*
X26516429Y1998500D01*
X20786254Y1998500D01*
X20719215Y2018185D01*
X20698573Y2034819D01*
X16209416Y6523976D01*
X16175931Y6585299D01*
X16176523Y6640604D01*
X16195068Y6717849D01*
X16198609Y6732597D01*
X16218474Y6985000D01*
X16198609Y7237403D01*
X16139505Y7483591D01*
X16112192Y7549531D01*
X16042616Y7717503D01*
X15910331Y7933371D01*
X15910330Y7933373D01*
X15910329Y7933374D01*
X15910328Y7933376D01*
X15745898Y8125898D01*
X15553376Y8290328D01*
X15553374Y8290330D01*
X15553372Y8290331D01*
X15553370Y8290332D01*
X15337502Y8422617D01*
X15103593Y8519505D01*
X14857406Y8578609D01*
X14605000Y8598474D01*
X14352597Y8578609D01*
X14352593Y8578609D01*
X14352592Y8578608D01*
X14188738Y8539271D01*
X14118956Y8542762D01*
X14118836Y8542804D01*
X14101173Y8548985D01*
X14094746Y8551647D01*
X14056724Y8569957D01*
X14056720Y8569959D01*
X14056717Y8569960D01*
X14056711Y8569962D01*
X14015566Y8579354D01*
X14008884Y8581279D01*
X13969047Y8595217D01*
X13969041Y8595219D01*
X13927104Y8599943D01*
X13920244Y8601109D01*
X13879102Y8610500D01*
X13879097Y8610500D01*
X13833406Y8610500D01*
X12677079Y8610500D01*
X12610040Y8630185D01*
X12569692Y8672500D01*
X12482443Y8823621D01*
X12313442Y9035542D01*
X12114743Y9219907D01*
X11890786Y9372599D01*
X11890780Y9372602D01*
X11890779Y9372603D01*
X11890778Y9372604D01*
X11646574Y9490205D01*
X11646576Y9490205D01*
X11387559Y9570101D01*
X11387553Y9570103D01*
X11119535Y9610500D01*
X11119528Y9610500D01*
X10848472Y9610500D01*
X10848464Y9610500D01*
X10580446Y9570103D01*
X10580440Y9570101D01*
X10321427Y9490206D01*
X10077219Y9372602D01*
X9853256Y9219907D01*
X9654560Y9035544D01*
X9654558Y9035542D01*
X9485557Y8823621D01*
X9350029Y8588880D01*
X9251003Y8336565D01*
X9250997Y8336546D01*
X9190684Y8072295D01*
X9190683Y8072290D01*
X9170429Y7802005D01*
X9170429Y7801996D01*
X9190683Y7531711D01*
X9190684Y7531706D01*
X9250997Y7267455D01*
X9250999Y7267446D01*
X9251001Y7267441D01*
X9350029Y7015121D01*
X9485557Y6780379D01*
X9654558Y6568458D01*
X9853257Y6384093D01*
X10077215Y6231401D01*
X10321428Y6113794D01*
X10580442Y6033899D01*
X10580443Y6033899D01*
X10580446Y6033898D01*
X10848464Y5993501D01*
X10848469Y5993501D01*
X10848472Y5993500D01*
X10848473Y5993500D01*
X11119527Y5993500D01*
X11119528Y5993500D01*
X11175922Y6002000D01*
X11387553Y6033898D01*
X11387554Y6033899D01*
X11387558Y6033899D01*
X11646572Y6113794D01*
X11839548Y6206727D01*
X11890778Y6231397D01*
X11890778Y6231398D01*
X11890786Y6231401D01*
X12114743Y6384093D01*
X12313442Y6568458D01*
X12482443Y6780379D01*
X12569692Y6931501D01*
X12620259Y6979715D01*
X12677079Y6993500D01*
X12876233Y6993500D01*
X12943272Y6973815D01*
X12989027Y6921011D01*
X12999851Y6879229D01*
X13011391Y6732594D01*
X13070495Y6486407D01*
X13167383Y6252498D01*
X13299668Y6036630D01*
X13299669Y6036628D01*
X13299670Y6036626D01*
X13299672Y6036624D01*
X13464102Y5844102D01*
X13656624Y5679672D01*
X13656626Y5679671D01*
X13656627Y5679670D01*
X13656629Y5679669D01*
X13872497Y5547384D01*
X14106406Y5450496D01*
X14106407Y5450496D01*
X14106409Y5450495D01*
X14352597Y5391391D01*
X14605000Y5371526D01*
X14857403Y5391391D01*
X14949396Y5413477D01*
X15019178Y5409986D01*
X15066024Y5380584D01*
X19763889Y682719D01*
X19892719Y553889D01*
X19918404Y537750D01*
X19928453Y531436D01*
X19934128Y527410D01*
X19967131Y501091D01*
X20005161Y482778D01*
X20011227Y479426D01*
X20046985Y456957D01*
X20086815Y443020D01*
X20086824Y443017D01*
X20093244Y440358D01*
X20131280Y422041D01*
X20172450Y412645D01*
X20179105Y410727D01*
X20218953Y396783D01*
X20260903Y392057D01*
X20267728Y390898D01*
X20308904Y381499D01*
X20494837Y381499D01*
X20494853Y381500D01*
X44461093Y381500D01*
X44461097Y381500D01*
X44494081Y389030D01*
X44502244Y390892D01*
X44509106Y392058D01*
X44516928Y392940D01*
X44551047Y396783D01*
X44590906Y410731D01*
X44597542Y412643D01*
X44638720Y422041D01*
X44676758Y440361D01*
X44683173Y443017D01*
X44723015Y456957D01*
X44758752Y479414D01*
X44764830Y482774D01*
X44802870Y501091D01*
X44835885Y527421D01*
X44841535Y531430D01*
X44877281Y553889D01*
X45006111Y682719D01*
X45474423Y1151033D01*
X45535744Y1184516D01*
X45582514Y1185658D01*
X45607429Y1181500D01*
X45607431Y1181500D01*
X45832569Y1181500D01*
X46054635Y1218556D01*
X46267574Y1291658D01*
X46465576Y1398811D01*
X46643240Y1537094D01*
X46795722Y1702732D01*
X46918860Y1891209D01*
X47009296Y2097384D01*
X47064564Y2315632D01*
X47066339Y2337053D01*
X47083156Y2539995D01*
X47083156Y2540006D01*
X47064565Y2764360D01*
X47064563Y2764372D01*
X47047191Y2832972D01*
X47009296Y2982616D01*
X46918860Y3188791D01*
X46906262Y3208073D01*
X46795723Y3377266D01*
X46795715Y3377277D01*
X46643243Y3542903D01*
X46643238Y3542908D01*
X46465577Y3681188D01*
X46465572Y3681192D01*
X46267580Y3788339D01*
X46267577Y3788341D01*
X46267574Y3788342D01*
X46267571Y3788343D01*
X46267569Y3788344D01*
X46054637Y3861444D01*
X45832569Y3898500D01*
X45607431Y3898500D01*
X45385362Y3861444D01*
X45172430Y3788344D01*
X45172419Y3788339D01*
X44974427Y3681192D01*
X44974422Y3681188D01*
X44796761Y3542908D01*
X44796756Y3542903D01*
X44644284Y3377277D01*
X44644280Y3377271D01*
X44550250Y3233349D01*
X44497103Y3187993D01*
X44427872Y3178570D01*
X44364536Y3208073D01*
X44344866Y3230049D01*
X44294924Y3301374D01*
X43663076Y2669526D01*
X43639493Y2749844D01*
X43561761Y2870798D01*
X43453100Y2964952D01*
X43322315Y3024680D01*
X43312533Y3026087D01*
X43941373Y3654927D01*
X43941373Y3654928D01*
X43857583Y3713598D01*
X43857579Y3713600D01*
X43643492Y3813430D01*
X43643483Y3813434D01*
X43415326Y3874568D01*
X43415315Y3874570D01*
X43180002Y3895157D01*
X43179998Y3895157D01*
X42944684Y3874570D01*
X42944673Y3874568D01*
X42716516Y3813434D01*
X42716507Y3813430D01*
X42502419Y3713599D01*
X42418625Y3654928D01*
X43047466Y3026087D01*
X43037685Y3024680D01*
X42906900Y2964952D01*
X42798239Y2870798D01*
X42720507Y2749844D01*
X42696923Y2669524D01*
X42065072Y3301375D01*
X42065072Y3301374D01*
X42011574Y3224970D01*
X41956998Y3181345D01*
X41887499Y3174151D01*
X41825144Y3205674D01*
X41808424Y3224970D01*
X41754925Y3301374D01*
X41754925Y3301375D01*
X41123076Y2669526D01*
X41099493Y2749844D01*
X41021761Y2870798D01*
X40913100Y2964952D01*
X40782315Y3024680D01*
X40772533Y3026087D01*
X41401373Y3654927D01*
X41401373Y3654928D01*
X41317583Y3713598D01*
X41317579Y3713600D01*
X41103492Y3813430D01*
X41103483Y3813434D01*
X40875326Y3874568D01*
X40875315Y3874570D01*
X40640002Y3895157D01*
X40639998Y3895157D01*
X40404684Y3874570D01*
X40404673Y3874568D01*
X40176516Y3813434D01*
X40176507Y3813430D01*
X39962419Y3713599D01*
X39878625Y3654928D01*
X40507466Y3026087D01*
X40497685Y3024680D01*
X40366900Y2964952D01*
X40258239Y2870798D01*
X40180507Y2749844D01*
X40156923Y2669524D01*
X39525072Y3301375D01*
X39525072Y3301374D01*
X39475131Y3230050D01*
X39420555Y3186425D01*
X39351056Y3179231D01*
X39288701Y3210754D01*
X39269748Y3233351D01*
X39175723Y3377266D01*
X39175715Y3377277D01*
X39023243Y3542903D01*
X39023238Y3542908D01*
X38845577Y3681188D01*
X38845572Y3681192D01*
X38647580Y3788339D01*
X38647577Y3788341D01*
X38647574Y3788342D01*
X38647571Y3788343D01*
X38647569Y3788344D01*
X38434637Y3861444D01*
X38212569Y3898500D01*
X37987431Y3898500D01*
X37962511Y3894342D01*
X37893146Y3902725D01*
X37854422Y3928970D01*
X28447281Y13336111D01*
X28411540Y13358569D01*
X28405869Y13362593D01*
X28372871Y13388909D01*
X28372869Y13388910D01*
X28334841Y13407223D01*
X28328751Y13410589D01*
X28293015Y13433043D01*
X28293011Y13433045D01*
X28253174Y13446985D01*
X28246746Y13449647D01*
X28208724Y13467957D01*
X28208720Y13467959D01*
X28208717Y13467960D01*
X28208711Y13467962D01*
X28167566Y13477354D01*
X28160884Y13479279D01*
X28121047Y13493217D01*
X28121041Y13493219D01*
X28079104Y13497943D01*
X28072244Y13499109D01*
X28031102Y13508500D01*
X28031097Y13508500D01*
X27985406Y13508500D01*
X26032480Y13508500D01*
X25965441Y13528185D01*
X25921996Y13576204D01*
X25911131Y13597527D01*
X25911129Y13597530D01*
X25790945Y13745945D01*
X25686983Y13830132D01*
X25642527Y13866132D01*
X25472369Y13952830D01*
X25287901Y14002258D01*
X25208584Y14008500D01*
X25208581Y14008500D01*
X24652284Y14008500D01*
X24281418Y14008499D01*
X24281419Y14008499D01*
X24202097Y14002258D01*
X24073320Y13967752D01*
X24003470Y13969415D01*
X23953546Y13999846D01*
X15092281Y22861111D01*
X15056540Y22883569D01*
X15050869Y22887593D01*
X15017871Y22913909D01*
X15017869Y22913910D01*
X14979841Y22932223D01*
X14973751Y22935589D01*
X14938015Y22958043D01*
X14938011Y22958045D01*
X14898174Y22971985D01*
X14891746Y22974647D01*
X14853724Y22992957D01*
X14853720Y22992959D01*
X14853717Y22992960D01*
X14853711Y22992962D01*
X14812566Y23002354D01*
X14805884Y23004279D01*
X14766047Y23018217D01*
X14766041Y23018219D01*
X14724104Y23022943D01*
X14717244Y23024109D01*
X14676102Y23033500D01*
X14676097Y23033500D01*
X14630406Y23033500D01*
X10314640Y23033500D01*
X10247601Y23053185D01*
X10217692Y23080188D01*
X10203313Y23098219D01*
X10032724Y23247258D01*
X10032722Y23247260D01*
X10032718Y23247263D01*
X9928175Y23309725D01*
X9838256Y23363450D01*
X9838253Y23363452D01*
X9838250Y23363453D01*
X9719517Y23408014D01*
X9626160Y23443052D01*
X9403271Y23483500D01*
X9403267Y23483500D01*
X8433478Y23483500D01*
X8394788Y23480018D01*
X8264379Y23468282D01*
X8264373Y23468281D01*
X8046016Y23408018D01*
X8046003Y23408013D01*
X7841913Y23309729D01*
X7841906Y23309725D01*
X7658642Y23176576D01*
X7658634Y23176569D01*
X7502091Y23012839D01*
X7417091Y22884070D01*
X7363730Y22838965D01*
X7294455Y22829869D01*
X7231260Y22859670D01*
X7225923Y22864701D01*
X7094819Y22995805D01*
X7061334Y23057128D01*
X7058500Y23083486D01*
X7058500Y27029335D01*
X7078185Y27096374D01*
X7106336Y27127187D01*
X7273240Y27257094D01*
X7403125Y27398185D01*
X7425715Y27422724D01*
X7425715Y27422725D01*
X7425722Y27422732D01*
X7516193Y27561210D01*
X7569338Y27606563D01*
X7638569Y27615987D01*
X7701905Y27586485D01*
X7723804Y27561213D01*
X7814278Y27422732D01*
X7814283Y27422727D01*
X7814284Y27422724D01*
X7966756Y27257098D01*
X7966760Y27257094D01*
X8144424Y27118811D01*
X8144425Y27118811D01*
X8144427Y27118809D01*
X8204314Y27086400D01*
X8342426Y27011658D01*
X8555365Y26938556D01*
X8777431Y26901500D01*
X9002569Y26901500D01*
X9224635Y26938556D01*
X9437574Y27011658D01*
X9635576Y27118811D01*
X9813240Y27257094D01*
X9943125Y27398185D01*
X9965715Y27422724D01*
X9965715Y27422725D01*
X9965722Y27422732D01*
X10056193Y27561210D01*
X10109338Y27606563D01*
X10178569Y27615987D01*
X10241905Y27586485D01*
X10263804Y27561213D01*
X10354278Y27422732D01*
X10354283Y27422727D01*
X10354284Y27422724D01*
X10506756Y27257098D01*
X10506760Y27257094D01*
X10684424Y27118811D01*
X10684425Y27118811D01*
X10684427Y27118809D01*
X10744314Y27086400D01*
X10882426Y27011658D01*
X11095365Y26938556D01*
X11317431Y26901500D01*
X11542569Y26901500D01*
X11764635Y26938556D01*
X11785412Y26945690D01*
X11855209Y26948843D01*
X11913360Y26916091D01*
X23353655Y15475796D01*
X23358996Y15469706D01*
X23367022Y15459246D01*
X23381012Y15441013D01*
X23412921Y15416528D01*
X23412925Y15416526D01*
X23412928Y15416523D01*
X23466830Y15375162D01*
X23508122Y15343477D01*
X23508128Y15343474D01*
X23582136Y15312819D01*
X23656149Y15282162D01*
X23671664Y15280120D01*
X23675542Y15279609D01*
X23723009Y15273360D01*
X23775115Y15266500D01*
X23775116Y15266500D01*
X23777129Y15266235D01*
X23777148Y15266234D01*
X23815000Y15261250D01*
X23815001Y15261250D01*
X23825472Y15262629D01*
X23850848Y15265970D01*
X23858946Y15266500D01*
X37161589Y15266500D01*
X37228628Y15246815D01*
X37249270Y15230181D01*
X49458080Y3021371D01*
X49491565Y2960048D01*
X49490605Y2903250D01*
X49455435Y2764365D01*
X49436844Y2540006D01*
X49436844Y2539995D01*
X49455434Y2315641D01*
X49455436Y2315629D01*
X49510703Y2097386D01*
X49601140Y1891208D01*
X49724276Y1702735D01*
X49724284Y1702724D01*
X49875206Y1538782D01*
X49876760Y1537094D01*
X50054424Y1398811D01*
X50054425Y1398811D01*
X50054427Y1398809D01*
X50159014Y1342210D01*
X50252426Y1291658D01*
X50465365Y1218556D01*
X50687431Y1181500D01*
X50912569Y1181500D01*
X51134635Y1218556D01*
X51347574Y1291658D01*
X51545576Y1398811D01*
X51723240Y1537094D01*
X51875722Y1702732D01*
X51966193Y1841210D01*
X52019338Y1886563D01*
X52088569Y1895987D01*
X52151905Y1866485D01*
X52173804Y1841213D01*
X52264278Y1702732D01*
X52264283Y1702727D01*
X52264284Y1702724D01*
X52415206Y1538782D01*
X52416760Y1537094D01*
X52594424Y1398811D01*
X52594425Y1398811D01*
X52594427Y1398809D01*
X52699014Y1342210D01*
X52792426Y1291658D01*
X53005365Y1218556D01*
X53227431Y1181500D01*
X53452569Y1181500D01*
X53674635Y1218556D01*
X53887574Y1291658D01*
X54085576Y1398811D01*
X54263240Y1537094D01*
X54415722Y1702732D01*
X54506193Y1841210D01*
X54559338Y1886563D01*
X54628569Y1895987D01*
X54691905Y1866485D01*
X54713804Y1841213D01*
X54804278Y1702732D01*
X54804283Y1702727D01*
X54804284Y1702724D01*
X54955206Y1538782D01*
X54956760Y1537094D01*
X55134424Y1398811D01*
X55134425Y1398811D01*
X55134427Y1398809D01*
X55239014Y1342210D01*
X55332426Y1291658D01*
X55545365Y1218556D01*
X55767431Y1181500D01*
X55992569Y1181500D01*
X56214635Y1218556D01*
X56427574Y1291658D01*
X56625576Y1398811D01*
X56803240Y1537094D01*
X56955722Y1702732D01*
X57046193Y1841210D01*
X57099338Y1886563D01*
X57168569Y1895987D01*
X57231905Y1866485D01*
X57253804Y1841213D01*
X57344278Y1702732D01*
X57344283Y1702727D01*
X57344284Y1702724D01*
X57495206Y1538782D01*
X57496760Y1537094D01*
X57674424Y1398811D01*
X57674425Y1398811D01*
X57674427Y1398809D01*
X57779014Y1342210D01*
X57872426Y1291658D01*
X58085365Y1218556D01*
X58307431Y1181500D01*
X58532569Y1181500D01*
X58754635Y1218556D01*
X58967574Y1291658D01*
X59165576Y1398811D01*
X59343240Y1537094D01*
X59495722Y1702732D01*
X59586193Y1841210D01*
X59639338Y1886563D01*
X59708569Y1895987D01*
X59771905Y1866485D01*
X59793804Y1841213D01*
X59884278Y1702732D01*
X59884283Y1702727D01*
X59884284Y1702724D01*
X60035206Y1538782D01*
X60036760Y1537094D01*
X60214424Y1398811D01*
X60214425Y1398811D01*
X60214427Y1398809D01*
X60319014Y1342210D01*
X60412426Y1291658D01*
X60625365Y1218556D01*
X60847431Y1181500D01*
X61072569Y1181500D01*
X61294635Y1218556D01*
X61507574Y1291658D01*
X61705576Y1398811D01*
X61883240Y1537094D01*
X62035722Y1702732D01*
X62126193Y1841210D01*
X62179338Y1886563D01*
X62248569Y1895987D01*
X62311905Y1866485D01*
X62333804Y1841213D01*
X62424278Y1702732D01*
X62424283Y1702727D01*
X62424284Y1702724D01*
X62575206Y1538782D01*
X62576760Y1537094D01*
X62754424Y1398811D01*
X62754425Y1398811D01*
X62754427Y1398809D01*
X62859014Y1342210D01*
X62952426Y1291658D01*
X63165365Y1218556D01*
X63387431Y1181500D01*
X63612569Y1181500D01*
X63834635Y1218556D01*
X64047574Y1291658D01*
X64245576Y1398811D01*
X64423240Y1537094D01*
X64575722Y1702732D01*
X64698860Y1891209D01*
X64789296Y2097384D01*
X64844564Y2315632D01*
X64846339Y2337053D01*
X64863156Y2539995D01*
X64863156Y2540006D01*
X64844565Y2764360D01*
X64844563Y2764372D01*
X64827191Y2832972D01*
X64789296Y2982616D01*
X64698860Y3188791D01*
X64686262Y3208073D01*
X64575723Y3377266D01*
X64575715Y3377277D01*
X64423243Y3542903D01*
X64423238Y3542908D01*
X64245577Y3681188D01*
X64245572Y3681192D01*
X64047580Y3788339D01*
X64047577Y3788341D01*
X64047574Y3788342D01*
X64047571Y3788343D01*
X64047569Y3788344D01*
X63834637Y3861444D01*
X63612569Y3898500D01*
X63387431Y3898500D01*
X63165362Y3861444D01*
X63144576Y3854309D01*
X63074777Y3851163D01*
X63016638Y3883911D01*
X41101354Y25799195D01*
X41096001Y25805298D01*
X41084832Y25819853D01*
X41073987Y25833987D01*
X41073985Y25833989D01*
X41073984Y25833990D01*
X41042075Y25858474D01*
X41042074Y25858475D01*
X41042072Y25858477D01*
X40996728Y25893271D01*
X40946877Y25931524D01*
X40946873Y25931526D01*
X40798850Y25992839D01*
X40779457Y25995392D01*
X40677704Y26008788D01*
X40677678Y26008790D01*
X40640001Y26013750D01*
X40639999Y26013750D01*
X40629527Y26012372D01*
X40604151Y26009031D01*
X40596054Y26008500D01*
X27293411Y26008500D01*
X27226372Y26028185D01*
X27205730Y26044819D01*
X26560730Y26689819D01*
X26527245Y26751142D01*
X26532229Y26820834D01*
X26574101Y26876767D01*
X26639565Y26901184D01*
X26648411Y26901500D01*
X26782569Y26901500D01*
X27004635Y26938556D01*
X27217574Y27011658D01*
X27415576Y27118811D01*
X27593240Y27257094D01*
X27723125Y27398185D01*
X27745715Y27422724D01*
X27745715Y27422725D01*
X27745722Y27422732D01*
X27836193Y27561210D01*
X27889338Y27606563D01*
X27958569Y27615987D01*
X28021905Y27586485D01*
X28043804Y27561213D01*
X28134278Y27422732D01*
X28134283Y27422727D01*
X28134284Y27422724D01*
X28286756Y27257098D01*
X28286760Y27257094D01*
X28464424Y27118811D01*
X28464425Y27118811D01*
X28464427Y27118809D01*
X28524314Y27086400D01*
X28662426Y27011658D01*
X28875365Y26938556D01*
X29097431Y26901500D01*
X29322569Y26901500D01*
X29544635Y26938556D01*
X29757574Y27011658D01*
X29955576Y27118811D01*
X30133240Y27257094D01*
X30263125Y27398185D01*
X30285715Y27422724D01*
X30285715Y27422725D01*
X30285722Y27422732D01*
X30376193Y27561210D01*
X30429338Y27606563D01*
X30498569Y27615987D01*
X30561905Y27586485D01*
X30583804Y27561213D01*
X30674278Y27422732D01*
X30674283Y27422727D01*
X30674284Y27422724D01*
X30826756Y27257098D01*
X30826760Y27257094D01*
X31004424Y27118811D01*
X31004425Y27118811D01*
X31004427Y27118809D01*
X31064314Y27086400D01*
X31202426Y27011658D01*
X31415365Y26938556D01*
X31637431Y26901500D01*
X31862569Y26901500D01*
X32084635Y26938556D01*
X32297574Y27011658D01*
X32495576Y27118811D01*
X32673240Y27257094D01*
X32803125Y27398185D01*
X32825715Y27422724D01*
X32825715Y27422725D01*
X32825722Y27422732D01*
X32916193Y27561210D01*
X32969338Y27606563D01*
X33038569Y27615987D01*
X33101905Y27586485D01*
X33123804Y27561213D01*
X33214278Y27422732D01*
X33214283Y27422727D01*
X33214284Y27422724D01*
X33366756Y27257098D01*
X33366760Y27257094D01*
X33544424Y27118811D01*
X33544425Y27118811D01*
X33544427Y27118809D01*
X33604314Y27086400D01*
X33742426Y27011658D01*
X33955365Y26938556D01*
X34177431Y26901500D01*
X34402569Y26901500D01*
X34624635Y26938556D01*
X34837574Y27011658D01*
X35035576Y27118811D01*
X35213240Y27257094D01*
X35343125Y27398185D01*
X35365715Y27422724D01*
X35365715Y27422725D01*
X35365722Y27422732D01*
X35459749Y27566653D01*
X35512894Y27612006D01*
X35582125Y27621430D01*
X35645461Y27591928D01*
X35665131Y27569951D01*
X35715072Y27498627D01*
X35715073Y27498627D01*
X36346922Y28130477D01*
X36370507Y28050156D01*
X36448239Y27929202D01*
X36556900Y27835048D01*
X36687685Y27775320D01*
X36697466Y27773914D01*
X36068625Y27145075D01*
X36152421Y27086401D01*
X36366507Y26986571D01*
X36366516Y26986567D01*
X36594673Y26925433D01*
X36594684Y26925431D01*
X36829998Y26904843D01*
X36830002Y26904843D01*
X37065315Y26925431D01*
X37065326Y26925433D01*
X37293483Y26986567D01*
X37293492Y26986571D01*
X37507578Y27086400D01*
X37507582Y27086402D01*
X37591373Y27145074D01*
X37591373Y27145075D01*
X36962533Y27773914D01*
X36972315Y27775320D01*
X37103100Y27835048D01*
X37211761Y27929202D01*
X37289493Y28050156D01*
X37313076Y28130476D01*
X37944925Y27498627D01*
X37994868Y27569952D01*
X38049445Y27613576D01*
X38118944Y27620769D01*
X38181298Y27589247D01*
X38200251Y27566650D01*
X38294276Y27422735D01*
X38294284Y27422724D01*
X38446756Y27257098D01*
X38446760Y27257094D01*
X38624424Y27118811D01*
X38624425Y27118811D01*
X38624427Y27118809D01*
X38684314Y27086400D01*
X38822426Y27011658D01*
X39035365Y26938556D01*
X39257431Y26901500D01*
X39482569Y26901500D01*
X39704635Y26938556D01*
X39917574Y27011658D01*
X40115576Y27118811D01*
X40293240Y27257094D01*
X40445722Y27422732D01*
X40478951Y27473594D01*
X40493147Y27495321D01*
X40546294Y27540678D01*
X40596956Y27551500D01*
X41880168Y27551500D01*
X41947207Y27531815D01*
X41967849Y27515181D01*
X43297563Y26185467D01*
X43300115Y26182755D01*
X43341722Y26135790D01*
X43341724Y26135788D01*
X43341727Y26135785D01*
X43341729Y26135784D01*
X43341731Y26135782D01*
X43393373Y26100135D01*
X43396391Y26097915D01*
X43445771Y26059228D01*
X43445770Y26059228D01*
X43445772Y26059227D01*
X43445775Y26059225D01*
X43455241Y26054965D01*
X43474787Y26043940D01*
X43483325Y26038046D01*
X43542017Y26015788D01*
X43545414Y26014381D01*
X43580628Y25998532D01*
X43602667Y25988612D01*
X43602671Y25988611D01*
X43612881Y25986740D01*
X43634500Y25980714D01*
X43644199Y25977035D01*
X43706480Y25969473D01*
X43710184Y25968909D01*
X43725096Y25966177D01*
X43771908Y25957598D01*
X43771909Y25957599D01*
X43771910Y25957598D01*
X43834552Y25961387D01*
X43838296Y25961500D01*
X62207292Y25961500D01*
X62274331Y25941815D01*
X62320086Y25889011D01*
X62330030Y25819853D01*
X62327498Y25807060D01*
X62277436Y25609372D01*
X62277434Y25609360D01*
X62258844Y25385006D01*
X62258844Y25384995D01*
X62277434Y25160641D01*
X62277436Y25160629D01*
X62332703Y24942386D01*
X62423140Y24736208D01*
X62546276Y24547735D01*
X62546284Y24547724D01*
X62698756Y24382098D01*
X62698760Y24382094D01*
X62876424Y24243811D01*
X62876425Y24243811D01*
X62876427Y24243809D01*
X62936314Y24211400D01*
X63074426Y24136658D01*
X63287365Y24063556D01*
X63509431Y24026500D01*
X63734569Y24026500D01*
X63956635Y24063556D01*
X64169574Y24136658D01*
X64367576Y24243811D01*
X64545240Y24382094D01*
X64697722Y24547732D01*
X64791749Y24691653D01*
X64844894Y24737006D01*
X64914125Y24746430D01*
X64977461Y24716928D01*
X64997131Y24694951D01*
X65047072Y24623627D01*
X65047073Y24623627D01*
X65678922Y25255477D01*
X65702507Y25175156D01*
X65780239Y25054202D01*
X65888900Y24960048D01*
X66019685Y24900320D01*
X66029466Y24898914D01*
X65400625Y24270075D01*
X65484421Y24211401D01*
X65698507Y24111571D01*
X65698516Y24111567D01*
X65926673Y24050433D01*
X65926684Y24050431D01*
X66161998Y24029843D01*
X66162002Y24029843D01*
X66397315Y24050431D01*
X66397326Y24050433D01*
X66625483Y24111567D01*
X66625492Y24111571D01*
X66839578Y24211400D01*
X66839582Y24211402D01*
X66923373Y24270074D01*
X66923373Y24270075D01*
X66294533Y24898914D01*
X66304315Y24900320D01*
X66435100Y24960048D01*
X66543761Y25054202D01*
X66621493Y25175156D01*
X66645076Y25255476D01*
X67276925Y24623627D01*
X67276926Y24623627D01*
X67335598Y24707418D01*
X67335600Y24707422D01*
X67435429Y24921508D01*
X67435433Y24921517D01*
X67496567Y25149674D01*
X67496569Y25149685D01*
X67517157Y25384999D01*
X67517157Y25385002D01*
X67496569Y25620316D01*
X67496567Y25620327D01*
X67435433Y25848484D01*
X67435429Y25848493D01*
X67335600Y26062578D01*
X67335599Y26062580D01*
X67200113Y26256074D01*
X67200108Y26256080D01*
X67185049Y26271139D01*
X67151564Y26332462D01*
X67156548Y26402154D01*
X67185049Y26446501D01*
X67643391Y26904843D01*
X68111202Y27372655D01*
X68117293Y27377997D01*
X68145987Y27400013D01*
X68164267Y27423836D01*
X68170475Y27431927D01*
X68170477Y27431928D01*
X68243524Y27527124D01*
X68265939Y27581238D01*
X68309779Y27635642D01*
X68376073Y27657707D01*
X68443773Y27640428D01*
X68491384Y27589291D01*
X68504500Y27533786D01*
X68504500Y5162637D01*
X68484815Y5095598D01*
X68468181Y5074956D01*
X66018418Y2625194D01*
X66003002Y2613364D01*
X65986024Y2593132D01*
X65982374Y2589149D01*
X65977197Y2583973D01*
X65972997Y2577974D01*
X65969710Y2573691D01*
X65964501Y2567483D01*
X65960881Y2557537D01*
X65959960Y2547002D01*
X65960274Y2545831D01*
X65964500Y2513735D01*
X65964500Y1002706D01*
X65964264Y997300D01*
X65951400Y850272D01*
X65947647Y828987D01*
X65911553Y694281D01*
X65904160Y673969D01*
X65845224Y547582D01*
X65834417Y528864D01*
X65754430Y414630D01*
X65740536Y398072D01*
X65641928Y299464D01*
X65625370Y285570D01*
X65511136Y205583D01*
X65492418Y194776D01*
X65366031Y135840D01*
X65345719Y128447D01*
X65211013Y92353D01*
X65189728Y88600D01*
X65075977Y78648D01*
X65042695Y75736D01*
X65037294Y75500D01*
X1002706Y75500D01*
X997304Y75736D01*
X960648Y78943D01*
X850271Y88600D01*
X828986Y92353D01*
X694280Y128447D01*
X673968Y135840D01*
X547581Y194776D01*
X528863Y205583D01*
X414629Y285570D01*
X398071Y299464D01*
X299463Y398072D01*
X285569Y414630D01*
X280380Y422040D01*
X205581Y528865D01*
X194775Y547582D01*
X135838Y673972D01*
X128446Y694281D01*
X92352Y828987D01*
X88599Y850273D01*
X75736Y997300D01*
X75500Y1002706D01*
X75500Y3101996D01*
X6178953Y3101996D01*
X6199113Y2832974D01*
X6199113Y2832972D01*
X6259142Y2569967D01*
X6259148Y2569948D01*
X6357709Y2318819D01*
X6357708Y2318819D01*
X6492602Y2085178D01*
X6546294Y2017849D01*
X6546295Y2017849D01*
X7267338Y2738892D01*
X7354577Y2600052D01*
X7482052Y2472577D01*
X7620890Y2385339D01*
X6898848Y1663298D01*
X7081483Y1538780D01*
X7081485Y1538779D01*
X7324539Y1421731D01*
X7324537Y1421731D01*
X7582337Y1342210D01*
X7582343Y1342208D01*
X7849101Y1302001D01*
X7849110Y1302000D01*
X8118890Y1302000D01*
X8118898Y1302001D01*
X8385656Y1342208D01*
X8385662Y1342210D01*
X8643461Y1421731D01*
X8886521Y1538782D01*
X9069150Y1663298D01*
X8347108Y2385339D01*
X8485948Y2472577D01*
X8613423Y2600052D01*
X8700661Y2738892D01*
X9421703Y2017849D01*
X9421704Y2017850D01*
X9475393Y2085172D01*
X9475400Y2085183D01*
X9610290Y2318819D01*
X9708851Y2569948D01*
X9708857Y2569967D01*
X9768886Y2832972D01*
X9768886Y2832974D01*
X9789047Y3101996D01*
X9789047Y3102005D01*
X9768886Y3371027D01*
X9768886Y3371029D01*
X9708857Y3634034D01*
X9708851Y3634053D01*
X9610290Y3885182D01*
X9610291Y3885182D01*
X9475397Y4118823D01*
X9421704Y4186153D01*
X8700660Y3465110D01*
X8613423Y3603948D01*
X8485948Y3731423D01*
X8347108Y3818662D01*
X9069150Y4540704D01*
X8886517Y4665221D01*
X8886516Y4665222D01*
X8643460Y4782270D01*
X8643462Y4782270D01*
X8385662Y4861791D01*
X8385656Y4861793D01*
X8118898Y4902000D01*
X7849101Y4902000D01*
X7582343Y4861793D01*
X7582337Y4861791D01*
X7324538Y4782270D01*
X7081485Y4665222D01*
X7081476Y4665217D01*
X6898848Y4540704D01*
X7620891Y3818662D01*
X7482052Y3731423D01*
X7354577Y3603948D01*
X7267338Y3465109D01*
X6546295Y4186152D01*
X6492600Y4118820D01*
X6357709Y3885182D01*
X6259148Y3634053D01*
X6259142Y3634034D01*
X6199113Y3371029D01*
X6199113Y3371027D01*
X6178953Y3102005D01*
X6178953Y3101996D01*
X75500Y3101996D01*
X75500Y7801996D01*
X3178953Y7801996D01*
X3199113Y7532974D01*
X3199113Y7532972D01*
X3259142Y7269967D01*
X3259148Y7269948D01*
X3357709Y7018819D01*
X3357708Y7018819D01*
X3492602Y6785178D01*
X3546294Y6717849D01*
X3546295Y6717849D01*
X4267338Y7438892D01*
X4354577Y7300052D01*
X4482052Y7172577D01*
X4620890Y7085339D01*
X3898848Y6363298D01*
X4081483Y6238780D01*
X4081485Y6238779D01*
X4324539Y6121731D01*
X4324537Y6121731D01*
X4582337Y6042210D01*
X4582343Y6042208D01*
X4849101Y6002001D01*
X4849110Y6002000D01*
X5118890Y6002000D01*
X5118898Y6002001D01*
X5385656Y6042208D01*
X5385662Y6042210D01*
X5643461Y6121731D01*
X5886521Y6238782D01*
X6069150Y6363298D01*
X5347108Y7085339D01*
X5485948Y7172577D01*
X5613423Y7300052D01*
X5700661Y7438892D01*
X6421703Y6717849D01*
X6421704Y6717850D01*
X6475393Y6785172D01*
X6475400Y6785183D01*
X6610290Y7018819D01*
X6708851Y7269948D01*
X6708857Y7269967D01*
X6768886Y7532972D01*
X6768886Y7532974D01*
X6789047Y7801996D01*
X6789047Y7802005D01*
X6768886Y8071027D01*
X6768886Y8071029D01*
X6708857Y8334034D01*
X6708851Y8334053D01*
X6610290Y8585182D01*
X6610291Y8585182D01*
X6475397Y8818823D01*
X6421704Y8886153D01*
X5700660Y8165110D01*
X5613423Y8303948D01*
X5485948Y8431423D01*
X5347108Y8518662D01*
X6069150Y9240704D01*
X5886517Y9365221D01*
X5886516Y9365222D01*
X5643460Y9482270D01*
X5643462Y9482270D01*
X5385662Y9561791D01*
X5385656Y9561793D01*
X5118898Y9602000D01*
X4849101Y9602000D01*
X4582343Y9561793D01*
X4582337Y9561791D01*
X4324538Y9482270D01*
X4081485Y9365222D01*
X4081476Y9365217D01*
X3898848Y9240704D01*
X4620891Y8518662D01*
X4482052Y8431423D01*
X4354577Y8303948D01*
X4267338Y8165109D01*
X3546295Y8886152D01*
X3492600Y8818820D01*
X3357709Y8585182D01*
X3259148Y8334053D01*
X3259142Y8334034D01*
X3199113Y8071029D01*
X3199113Y8071027D01*
X3178953Y7802005D01*
X3178953Y7801996D01*
X75500Y7801996D01*
X75500Y52337295D01*
X75736Y52342701D01*
X88599Y52489728D01*
X92352Y52511014D01*
X128446Y52645720D01*
X135836Y52666025D01*
X194778Y52792426D01*
X205578Y52811132D01*
X285574Y52925379D01*
X299457Y52941923D01*
X398077Y53040543D01*
X414621Y53054426D01*
X528868Y53134422D01*
X547574Y53145222D01*
X673975Y53204164D01*
X694275Y53211553D01*
X828986Y53247649D01*
X850269Y53251401D01*
X997304Y53264265D01*
X1002706Y53264500D01*
X1024531Y53264500D01*
X2714675Y53264500D01*
X2781714Y53244815D01*
G37*
%TD.AperFunction*%
%TA.AperFunction,Conductor*%
G36*
X23324025Y11974528D02*
G01*
X23343107Y11976197D01*
X23356992Y11987296D01*
X23426490Y11994493D01*
X23488846Y11962973D01*
X23514479Y11928846D01*
X23578871Y11802470D01*
X23699055Y11654055D01*
X23739907Y11620974D01*
X23847472Y11533869D01*
X23933658Y11489956D01*
X24017629Y11447171D01*
X24202096Y11397743D01*
X24233825Y11395246D01*
X24281416Y11391500D01*
X24281418Y11391501D01*
X24281419Y11391500D01*
X24837715Y11391501D01*
X25208581Y11391501D01*
X25235021Y11393582D01*
X25287904Y11397743D01*
X25472371Y11447171D01*
X25588706Y11506447D01*
X25642527Y11533869D01*
X25642528Y11533871D01*
X25642530Y11533871D01*
X25790945Y11654055D01*
X25911129Y11802470D01*
X25911585Y11803367D01*
X25921996Y11823796D01*
X25969970Y11874591D01*
X26032480Y11891500D01*
X27553746Y11891500D01*
X27620785Y11871815D01*
X27641427Y11855181D01*
X35406220Y4090388D01*
X35439705Y4029065D01*
X35434721Y3959373D01*
X35392849Y3903440D01*
X35338945Y3880398D01*
X35301310Y3874119D01*
X35231945Y3882502D01*
X35193223Y3908747D01*
X34914121Y4187849D01*
X34172434Y4929536D01*
X34169900Y4932228D01*
X34128273Y4979215D01*
X34128272Y4979216D01*
X34128271Y4979217D01*
X34076628Y5014864D01*
X34073611Y5017084D01*
X34024227Y5055775D01*
X34018235Y5058472D01*
X34014760Y5060036D01*
X33995216Y5071059D01*
X33989570Y5074956D01*
X33986677Y5076953D01*
X33986672Y5076956D01*
X33928015Y5099202D01*
X33924555Y5100635D01*
X33867331Y5126389D01*
X33867332Y5126389D01*
X33857110Y5128262D01*
X33835510Y5134284D01*
X33825801Y5137965D01*
X33825797Y5137966D01*
X33825796Y5137966D01*
X33763511Y5145530D01*
X33759810Y5146093D01*
X33698096Y5157402D01*
X33698090Y5157402D01*
X33635455Y5153613D01*
X33631710Y5153500D01*
X30824832Y5153500D01*
X30757793Y5173185D01*
X30737151Y5189819D01*
X28124965Y7802005D01*
X25282434Y10644536D01*
X25279900Y10647228D01*
X25238273Y10694215D01*
X25238272Y10694216D01*
X25238271Y10694217D01*
X25186628Y10729864D01*
X25183611Y10732084D01*
X25134227Y10770775D01*
X25128235Y10773472D01*
X25124760Y10775036D01*
X25105216Y10786059D01*
X25100210Y10789514D01*
X25096677Y10791953D01*
X25096672Y10791956D01*
X25038015Y10814202D01*
X25034555Y10815635D01*
X24977331Y10841389D01*
X24977332Y10841389D01*
X24967110Y10843262D01*
X24945510Y10849284D01*
X24935801Y10852965D01*
X24935797Y10852966D01*
X24935796Y10852966D01*
X24873511Y10860530D01*
X24869810Y10861093D01*
X24808096Y10872402D01*
X24808090Y10872402D01*
X24745455Y10868613D01*
X24741710Y10868500D01*
X23204833Y10868500D01*
X23137794Y10888185D01*
X23117152Y10904819D01*
X22718963Y11303008D01*
X22685478Y11364331D01*
X22690462Y11434023D01*
X22732334Y11489956D01*
X22754240Y11503071D01*
X22897478Y11569864D01*
X22970472Y11620975D01*
X22289400Y12302047D01*
X22370148Y12314835D01*
X22483045Y12372359D01*
X22572641Y12461955D01*
X22630165Y12574852D01*
X22642953Y12655600D01*
X23324025Y11974528D01*
G37*
%TD.AperFunction*%
%TA.AperFunction,Conductor*%
G36*
X14265785Y21396815D02*
G01*
X14286427Y21380181D01*
X21633670Y14032938D01*
X21667155Y13971615D01*
X21662171Y13901923D01*
X21620299Y13845990D01*
X21598401Y13832878D01*
X21592513Y13830133D01*
X21519526Y13779027D01*
X22200599Y13097954D01*
X22119852Y13085165D01*
X22006955Y13027641D01*
X21917359Y12938045D01*
X21859835Y12825148D01*
X21847046Y12744401D01*
X21165973Y13425474D01*
X21114868Y13352487D01*
X21048070Y13209240D01*
X21001897Y13156801D01*
X20934704Y13137649D01*
X20867823Y13157865D01*
X20848007Y13173964D01*
X12817151Y21204819D01*
X12783666Y21266142D01*
X12788650Y21335834D01*
X12830522Y21391767D01*
X12895986Y21416184D01*
X12904832Y21416500D01*
X14198746Y21416500D01*
X14265785Y21396815D01*
G37*
%TD.AperFunction*%
%TA.AperFunction,Conductor*%
G36*
X11787207Y20226815D02*
G01*
X11807849Y20210181D01*
X17797848Y14220181D01*
X17831333Y14158858D01*
X17826349Y14089166D01*
X17784477Y14033233D01*
X17719013Y14008816D01*
X17710167Y14008500D01*
X17646254Y14008500D01*
X17579215Y14028185D01*
X17558573Y14044819D01*
X13822281Y17781111D01*
X13786540Y17803569D01*
X13780869Y17807593D01*
X13747871Y17833909D01*
X13747869Y17833910D01*
X13709841Y17852223D01*
X13703751Y17855589D01*
X13668015Y17878043D01*
X13668011Y17878045D01*
X13628174Y17891985D01*
X13621746Y17894647D01*
X13583724Y17912957D01*
X13583720Y17912959D01*
X13583717Y17912960D01*
X13583711Y17912962D01*
X13542566Y17922354D01*
X13535884Y17924279D01*
X13496047Y17938217D01*
X13496041Y17938219D01*
X13454104Y17942943D01*
X13447244Y17944109D01*
X13406102Y17953500D01*
X13406097Y17953500D01*
X13360406Y17953500D01*
X10314640Y17953500D01*
X10247601Y17973185D01*
X10217692Y18000188D01*
X10203313Y18018219D01*
X10032724Y18167258D01*
X10032722Y18167260D01*
X10032718Y18167263D01*
X9913527Y18238477D01*
X9838256Y18283450D01*
X9838251Y18283453D01*
X9785224Y18303354D01*
X9729376Y18345340D01*
X9705093Y18410854D01*
X9720085Y18479097D01*
X9769591Y18528401D01*
X9774994Y18531168D01*
X9933716Y18607604D01*
X10115741Y18739852D01*
X10115749Y18739858D01*
X10271237Y18902487D01*
X10395191Y19090267D01*
X10483624Y19297170D01*
X10483627Y19297179D01*
X10515084Y19435000D01*
X9323686Y19435000D01*
X9349493Y19475156D01*
X9390000Y19613111D01*
X9390000Y19756889D01*
X9349493Y19894844D01*
X9323686Y19935000D01*
X10517550Y19935000D01*
X10517550Y19935001D01*
X10513584Y19964279D01*
X10474625Y20084182D01*
X10472630Y20154023D01*
X10508710Y20213856D01*
X10571411Y20244684D01*
X10592556Y20246500D01*
X11720168Y20246500D01*
X11787207Y20226815D01*
G37*
%TD.AperFunction*%
%TD*%
M02*
