<?xml version="1.0" encoding="UTF-8" standalone="no"?>
<!-- Created with Inkscape (http://www.inkscape.org/) -->

<svg
   width="0.69999999in"
   height="0.69999999in"
   viewBox="0 0 17.78 17.78"
   version="1.1"
   id="svg1"
   inkscape:version="1.3.1 (91b66b0783, 2023-11-16)"
   sodipodi:docname="QR_code.svg"
   xmlns:inkscape="http://www.inkscape.org/namespaces/inkscape"
   xmlns:sodipodi="http://sodipodi.sourceforge.net/DTD/sodipodi-0.dtd"
   xmlns="http://www.w3.org/2000/svg"
   xmlns:svg="http://www.w3.org/2000/svg">
  <sodipodi:namedview
     id="namedview1"
     pagecolor="#ffffff"
     bordercolor="#000000"
     borderopacity="0.25"
     inkscape:showpageshadow="2"
     inkscape:pageopacity="0.0"
     inkscape:pagecheckerboard="0"
     inkscape:deskcolor="#d1d1d1"
     inkscape:document-units="mm"
     inkscape:zoom="8"
     inkscape:cx="58.6875"
     inkscape:cy="37.8125"
     inkscape:window-width="1920"
     inkscape:window-height="1043"
     inkscape:window-x="1920"
     inkscape:window-y="0"
     inkscape:window-maximized="1"
     inkscape:current-layer="layer1" />
  <defs
     id="defs1" />
  <g
     inkscape:label="Layer 1"
     inkscape:groupmode="layer"
     id="layer1">
    <path
       id="rect2"
       style="fill:#ff0000;stroke:none;stroke-width:0.120135"
       d="M 0 0 L 0 17.779793 L 17.779793 17.779793 L 17.779793 0 L 0 0 z M 1.9223633 1.9223633 L 5.2859823 1.9223633 L 5.2859823 5.2859823 L 1.9223633 5.2859823 L 1.9223633 1.9223633 z M 6.2471639 1.9223633 L 7.6884196 1.9223633 L 7.6884196 2.4029541 L 8.1690104 2.4029541 L 8.1690104 1.9223633 L 9.1301921 1.9223633 L 9.1301921 2.4029541 L 8.1690104 2.4029541 L 8.1690104 2.8830282 L 7.6884196 2.8830282 L 7.6884196 3.8442098 L 8.1690104 3.8442098 L 8.1690104 3.363619 L 8.6496012 3.363619 L 8.6496012 2.8830282 L 10.091374 2.8830282 L 10.091374 1.9223633 L 10.571965 1.9223633 L 10.571965 2.4029541 L 11.052555 2.4029541 L 11.052555 2.8830282 L 11.533146 2.8830282 L 11.533146 3.363619 L 12.013737 3.363619 L 12.013737 5.7665731 L 11.533146 5.7665731 L 11.533146 6.2471639 L 11.052555 6.2471639 L 11.052555 6.7277547 L 10.571965 6.7277547 L 10.571965 7.2083455 L 10.091374 7.2083455 L 10.091374 7.6884196 L 10.571965 7.6884196 L 10.571965 8.1690104 L 11.052555 8.1690104 L 11.052555 7.2083455 L 11.533146 7.2083455 L 11.533146 6.7277547 L 12.013737 6.7277547 L 12.013737 6.2471639 L 12.493811 6.2471639 L 12.493811 6.7277547 L 12.013737 6.7277547 L 12.013737 7.2083455 L 12.493811 7.2083455 L 12.493811 7.6884196 L 13.454993 7.6884196 L 13.454993 8.1690104 L 13.935583 8.1690104 L 13.935583 8.6496012 L 14.896765 8.6496012 L 14.896765 8.1690104 L 15.377356 8.1690104 L 15.377356 7.6884196 L 15.857947 7.6884196 L 15.857947 8.6496012 L 14.896765 8.6496012 L 14.896765 10.091374 L 15.857947 10.091374 L 15.857947 11.052555 L 15.377356 11.052555 L 15.377356 10.571965 L 14.416174 10.571965 L 14.416174 11.052555 L 13.454993 11.052555 L 13.454993 10.571965 L 12.493811 10.571965 L 12.493811 10.091374 L 12.013737 10.091374 L 12.013737 9.6107829 L 12.493811 9.6107829 L 12.493811 10.091374 L 12.974402 10.091374 L 12.974402 9.1301921 L 13.454993 9.1301921 L 13.454993 8.6496012 L 12.493811 8.6496012 L 12.493811 9.1301921 L 11.533146 9.1301921 L 11.533146 11.052555 L 12.013737 11.052555 L 12.013737 11.533146 L 12.493811 11.533146 L 12.493811 11.052555 L 12.974402 11.052555 L 12.974402 11.533146 L 13.935583 11.533146 L 13.935583 12.013737 L 14.416174 12.013737 L 14.416174 11.533146 L 15.857947 11.533146 L 15.857947 12.013737 L 14.416174 12.013737 L 14.416174 12.493811 L 14.896765 12.493811 L 14.896765 12.974402 L 15.377356 12.974402 L 15.377356 13.454993 L 14.896765 13.454993 L 14.896765 12.974402 L 13.935583 12.974402 L 13.935583 13.454993 L 14.416174 13.454993 L 14.416174 13.935583 L 14.896765 13.935583 L 14.896765 14.416174 L 15.377356 14.416174 L 15.377356 13.935583 L 15.857947 13.935583 L 15.857947 14.416174 L 15.377356 14.416174 L 15.377356 14.896765 L 15.857947 14.896765 L 15.857947 15.377356 L 15.377356 15.377356 L 15.377356 14.896765 L 14.896765 14.896765 L 14.896765 15.857947 L 14.416174 15.857947 L 14.416174 15.377356 L 13.935583 15.377356 L 13.935583 15.857947 L 12.493811 15.857947 L 12.493811 14.896765 L 11.052555 14.896765 L 11.052555 14.416174 L 10.571965 14.416174 L 10.571965 14.896765 L 10.091374 14.896765 L 10.091374 15.377356 L 11.533146 15.377356 L 11.533146 15.857947 L 8.6496012 15.857947 L 8.6496012 15.377356 L 9.1301921 15.377356 L 9.1301921 14.416174 L 8.6496012 14.416174 L 8.6496012 14.896765 L 7.6884196 14.896765 L 7.6884196 15.377356 L 7.2083455 15.377356 L 7.2083455 15.857947 L 5.7665731 15.857947 L 5.7665731 14.896765 L 6.2471639 14.896765 L 6.2471639 13.454993 L 5.7665731 13.454993 L 5.7665731 11.533146 L 5.2859823 11.533146 L 5.2859823 12.013737 L 3.363619 12.013737 L 3.363619 11.533146 L 2.8830282 11.533146 L 2.8830282 11.052555 L 2.4029541 11.052555 L 2.4029541 12.013737 L 1.9223633 12.013737 L 1.9223633 10.091374 L 2.4029541 10.091374 L 2.4029541 9.6107829 L 3.363619 9.6107829 L 3.363619 9.1301921 L 2.4029541 9.1301921 L 2.4029541 8.6496012 L 1.9223633 8.6496012 L 1.9223633 7.2083455 L 2.4029541 7.2083455 L 2.4029541 6.2471639 L 1.9223633 6.2471639 L 1.9223633 5.7665731 L 2.8830282 5.7665731 L 2.8830282 6.2471639 L 4.3248006 6.2471639 L 4.3248006 5.7665731 L 5.7665731 5.7665731 L 5.7665731 6.2471639 L 6.2471639 6.2471639 L 6.2471639 5.2859823 L 5.7665731 5.2859823 L 5.7665731 4.8053914 L 6.2471639 4.8053914 L 6.2471639 4.3248006 L 5.7665731 4.3248006 L 5.7665731 3.363619 L 6.2471639 3.363619 L 6.2471639 2.8830282 L 7.2083455 2.8830282 L 7.2083455 2.4029541 L 6.2471639 2.4029541 L 6.2471639 1.9223633 z M 6.2471639 3.363619 L 6.2471639 4.3248006 L 6.7277547 4.3248006 L 6.7277547 3.363619 L 6.2471639 3.363619 z M 6.2471639 4.8053914 L 6.2471639 5.2859823 L 6.7277547 5.2859823 L 6.7277547 4.8053914 L 6.2471639 4.8053914 z M 6.7277547 5.2859823 L 6.7277547 5.7665731 L 7.2083455 5.7665731 L 7.2083455 6.7277547 L 8.1690104 6.7277547 L 8.1690104 7.2083455 L 7.6884196 7.2083455 L 7.6884196 7.6884196 L 7.2083455 7.6884196 L 7.2083455 9.1301921 L 6.7277547 9.1301921 L 6.7277547 9.6107829 L 7.2083455 9.6107829 L 7.2083455 10.571965 L 6.7277547 10.571965 L 6.7277547 11.533146 L 7.2083455 11.533146 L 7.2083455 11.052555 L 7.6884196 11.052555 L 7.6884196 10.571965 L 8.1690104 10.571965 L 8.1690104 11.052555 L 7.6884196 11.052555 L 7.6884196 11.533146 L 8.6496012 11.533146 L 8.6496012 12.013737 L 9.1301921 12.013737 L 9.1301921 12.493811 L 10.091374 12.493811 L 10.091374 11.533146 L 9.1301921 11.533146 L 9.1301921 11.052555 L 8.6496012 11.052555 L 8.6496012 10.091374 L 7.6884196 10.091374 L 7.6884196 9.1301921 L 8.1690104 9.1301921 L 8.1690104 9.6107829 L 9.1301921 9.6107829 L 9.1301921 9.1301921 L 8.6496012 9.1301921 L 8.6496012 8.6496012 L 9.1301921 8.6496012 L 9.1301921 8.1690104 L 9.6107829 8.1690104 L 9.6107829 7.2083455 L 8.6496012 7.2083455 L 8.6496012 6.7277547 L 10.091374 6.7277547 L 10.091374 5.7665731 L 11.533146 5.7665731 L 11.533146 3.363619 L 11.052555 3.363619 L 11.052555 3.8442098 L 10.091374 3.8442098 L 10.091374 4.3248006 L 10.571965 4.3248006 L 10.571965 4.8053914 L 11.052555 4.8053914 L 11.052555 5.2859823 L 10.571965 5.2859823 L 10.571965 4.8053914 L 10.091374 4.8053914 L 10.091374 5.2859823 L 9.6107829 5.2859823 L 9.6107829 3.363619 L 8.6496012 3.363619 L 8.6496012 3.8442098 L 9.1301921 3.8442098 L 9.1301921 4.3248006 L 8.6496012 4.3248006 L 8.6496012 3.8442098 L 8.1690104 3.8442098 L 8.1690104 4.3248006 L 7.6884196 4.3248006 L 7.6884196 3.8442098 L 7.2083455 3.8442098 L 7.2083455 5.2859823 L 6.7277547 5.2859823 z M 9.6107829 8.1690104 L 9.6107829 8.6496012 L 10.091374 8.6496012 L 10.091374 8.1690104 L 9.6107829 8.1690104 z M 9.1301921 9.6107829 L 9.1301921 10.571965 L 9.6107829 10.571965 L 9.6107829 10.091374 L 10.091374 10.091374 L 10.091374 9.6107829 L 10.571965 9.6107829 L 10.571965 9.1301921 L 9.6107829 9.1301921 L 9.6107829 9.6107829 L 9.1301921 9.6107829 z M 10.571965 9.1301921 L 11.533146 9.1301921 L 11.533146 8.1690104 L 11.052555 8.1690104 L 11.052555 8.6496012 L 10.571965 8.6496012 L 10.571965 9.1301921 z M 10.571965 9.6107829 L 10.571965 10.091374 L 11.052555 10.091374 L 11.052555 9.6107829 L 10.571965 9.6107829 z M 10.571965 10.091374 L 10.091374 10.091374 L 10.091374 10.571965 L 10.571965 10.571965 L 10.571965 10.091374 z M 10.091374 11.533146 L 10.571965 11.533146 L 10.571965 12.013737 L 11.052555 12.013737 L 11.052555 11.533146 L 11.533146 11.533146 L 11.533146 11.052555 L 10.091374 11.052555 L 10.091374 11.533146 z M 11.052555 12.013737 L 11.052555 12.493811 L 11.533146 12.493811 L 11.533146 12.013737 L 11.052555 12.013737 z M 11.052555 12.493811 L 10.571965 12.493811 L 10.571965 12.974402 L 11.052555 12.974402 L 11.052555 12.493811 z M 10.571965 12.974402 L 10.091374 12.974402 L 10.091374 13.454993 L 9.6107829 13.454993 L 9.6107829 13.935583 L 11.052555 13.935583 L 11.052555 13.454993 L 10.571965 13.454993 L 10.571965 12.974402 z M 9.6107829 13.935583 L 9.1301921 13.935583 L 9.1301921 14.416174 L 9.6107829 14.416174 L 9.6107829 13.935583 z M 9.6107829 14.416174 L 9.6107829 14.896765 L 10.091374 14.896765 L 10.091374 14.416174 L 9.6107829 14.416174 z M 9.6107829 13.454993 L 9.6107829 12.974402 L 9.1301921 12.974402 L 9.1301921 13.454993 L 9.6107829 13.454993 z M 6.7277547 10.571965 L 6.7277547 9.6107829 L 6.2471639 9.6107829 L 6.2471639 10.091374 L 5.7665731 10.091374 L 5.7665731 11.533146 L 6.2471639 11.533146 L 6.2471639 10.571965 L 6.7277547 10.571965 z M 6.2471639 9.6107829 L 6.2471639 9.1301921 L 5.7665731 9.1301921 L 5.7665731 8.6496012 L 5.2859823 8.6496012 L 5.2859823 9.1301921 L 4.8053914 9.1301921 L 4.8053914 9.6107829 L 6.2471639 9.6107829 z M 4.8053914 9.6107829 L 4.3248006 9.6107829 L 4.3248006 9.1301921 L 3.8442098 9.1301921 L 3.8442098 10.091374 L 4.8053914 10.091374 L 4.8053914 9.6107829 z M 4.8053914 10.091374 L 4.8053914 10.571965 L 5.2859823 10.571965 L 5.2859823 10.091374 L 4.8053914 10.091374 z M 3.8442098 10.091374 L 3.363619 10.091374 L 3.363619 10.571965 L 3.8442098 10.571965 L 3.8442098 10.091374 z M 3.8442098 10.571965 L 3.8442098 11.052555 L 4.3248006 11.052555 L 4.3248006 10.571965 L 3.8442098 10.571965 z M 4.3248006 11.052555 L 4.3248006 11.533146 L 5.2859823 11.533146 L 5.2859823 11.052555 L 4.3248006 11.052555 z M 3.8442098 11.052555 L 3.363619 11.052555 L 3.363619 11.533146 L 3.8442098 11.533146 L 3.8442098 11.052555 z M 4.3248006 9.1301921 L 4.8053914 9.1301921 L 4.8053914 8.6496012 L 5.2859823 8.6496012 L 5.2859823 8.1690104 L 3.8442098 8.1690104 L 3.8442098 8.6496012 L 4.3248006 8.6496012 L 4.3248006 9.1301921 z M 3.8442098 8.1690104 L 3.8442098 7.6884196 L 4.3248006 7.6884196 L 4.3248006 6.7277547 L 3.363619 6.7277547 L 3.363619 7.6884196 L 2.8830282 7.6884196 L 2.8830282 8.1690104 L 3.8442098 8.1690104 z M 2.8830282 8.1690104 L 2.4029541 8.1690104 L 2.4029541 8.6496012 L 2.8830282 8.6496012 L 2.8830282 8.1690104 z M 4.3248006 6.7277547 L 5.7665731 6.7277547 L 5.7665731 6.2471639 L 4.3248006 6.2471639 L 4.3248006 6.7277547 z M 5.2859823 8.1690104 L 5.7665731 8.1690104 L 5.7665731 8.6496012 L 6.2471639 8.6496012 L 6.2471639 9.1301921 L 6.7277547 9.1301921 L 6.7277547 8.1690104 L 6.2471639 8.1690104 L 6.2471639 7.6884196 L 5.7665731 7.6884196 L 5.7665731 7.2083455 L 4.8053914 7.2083455 L 4.8053914 7.6884196 L 5.2859823 7.6884196 L 5.2859823 8.1690104 z M 6.2471639 7.6884196 L 6.7277547 7.6884196 L 6.7277547 7.2083455 L 6.2471639 7.2083455 L 6.2471639 7.6884196 z M 6.7277547 7.2083455 L 7.2083455 7.2083455 L 7.2083455 6.7277547 L 6.7277547 6.7277547 L 6.7277547 7.2083455 z M 6.7277547 6.7277547 L 6.7277547 6.2471639 L 6.2471639 6.2471639 L 6.2471639 6.7277547 L 6.7277547 6.7277547 z M 7.2083455 15.377356 L 7.2083455 14.896765 L 7.6884196 14.896765 L 7.6884196 14.416174 L 7.2083455 14.416174 L 7.2083455 13.454993 L 6.7277547 13.454993 L 6.7277547 15.377356 L 7.2083455 15.377356 z M 8.6496012 14.416174 L 8.6496012 12.493811 L 7.6884196 12.493811 L 7.6884196 12.013737 L 6.7277547 12.013737 L 6.7277547 12.974402 L 8.1690104 12.974402 L 8.1690104 13.454993 L 7.6884196 13.454993 L 7.6884196 13.935583 L 8.1690104 13.935583 L 8.1690104 14.416174 L 8.6496012 14.416174 z M 13.935583 15.377356 L 13.935583 14.896765 L 13.454993 14.896765 L 13.454993 15.377356 L 13.935583 15.377356 z M 12.493811 8.6496012 L 12.493811 7.6884196 L 12.013737 7.6884196 L 12.013737 8.6496012 L 12.493811 8.6496012 z M 12.013737 7.6884196 L 12.013737 7.2083455 L 11.533146 7.2083455 L 11.533146 7.6884196 L 12.013737 7.6884196 z M 14.416174 10.571965 L 14.416174 10.091374 L 13.935583 10.091374 L 13.935583 10.571965 L 14.416174 10.571965 z M 13.935583 10.091374 L 13.935583 9.6107829 L 13.454993 9.6107829 L 13.454993 10.091374 L 13.935583 10.091374 z M 13.935583 9.6107829 L 14.416174 9.6107829 L 14.416174 9.1301921 L 13.935583 9.1301921 L 13.935583 9.6107829 z M 10.091374 2.8830282 L 10.091374 3.363619 L 10.571965 3.363619 L 10.571965 2.8830282 L 10.091374 2.8830282 z M 11.533146 1.9223633 L 12.013737 1.9223633 L 12.013737 2.4029541 L 11.533146 2.4029541 L 11.533146 1.9223633 z M 12.493811 1.9223633 L 15.857947 1.9223633 L 15.857947 5.2859823 L 12.493811 5.2859823 L 12.493811 1.9223633 z M 2.4029541 2.4029541 L 2.4029541 4.8053914 L 4.8053914 4.8053914 L 4.8053914 2.4029541 L 2.4029541 2.4029541 z M 12.974402 2.4029541 L 12.974402 4.8053914 L 15.377356 4.8053914 L 15.377356 2.4029541 L 12.974402 2.4029541 z M 2.8830282 2.8830282 L 4.3248006 2.8830282 L 4.3248006 4.3248006 L 2.8830282 4.3248006 L 2.8830282 2.8830282 z M 13.454993 2.8830282 L 14.896765 2.8830282 L 14.896765 4.3248006 L 13.454993 4.3248006 L 13.454993 2.8830282 z M 7.6884196 4.8053914 L 8.1690104 4.8053914 L 8.1690104 5.7665731 L 9.6107829 5.7665731 L 9.6107829 6.2471639 L 7.6884196 6.2471639 L 7.6884196 4.8053914 z M 8.6496012 4.8053914 L 9.1301921 4.8053914 L 9.1301921 5.2859823 L 8.6496012 5.2859823 L 8.6496012 4.8053914 z M 13.454993 5.7665731 L 14.416174 5.7665731 L 14.416174 6.2471639 L 15.377356 6.2471639 L 15.377356 6.7277547 L 14.416174 6.7277547 L 14.416174 6.2471639 L 13.935583 6.2471639 L 13.935583 7.2083455 L 14.416174 7.2083455 L 14.416174 7.6884196 L 13.935583 7.6884196 L 13.935583 7.2083455 L 13.454993 7.2083455 L 13.454993 6.7277547 L 12.974402 6.7277547 L 12.974402 6.2471639 L 13.454993 6.2471639 L 13.454993 5.7665731 z M 7.6884196 8.1690104 L 8.1690104 8.1690104 L 8.1690104 8.6496012 L 7.6884196 8.6496012 L 7.6884196 8.1690104 z M 15.377356 9.1301921 L 15.857947 9.1301921 L 15.857947 9.6107829 L 15.377356 9.6107829 L 15.377356 9.1301921 z M 12.013737 12.013737 L 12.013737 13.454993 L 13.454993 13.454993 L 13.454993 12.013737 L 12.013737 12.013737 z M 1.9223633 12.493811 L 5.2859823 12.493811 L 5.2859823 15.857947 L 1.9223633 15.857947 L 1.9223633 12.493811 z M 12.493811 12.493811 L 12.974402 12.493811 L 12.974402 12.974402 L 12.493811 12.974402 L 12.493811 12.493811 z M 2.4029541 12.974402 L 2.4029541 15.377356 L 4.8053914 15.377356 L 4.8053914 12.974402 L 2.4029541 12.974402 z M 2.8830282 13.454993 L 4.3248006 13.454993 L 4.3248006 14.896765 L 2.8830282 14.896765 L 2.8830282 13.454993 z M 12.493811 13.935583 L 12.493811 14.416174 L 13.935583 14.416174 L 13.935583 13.935583 L 12.493811 13.935583 z " />
  </g>
</svg>
